<?xml version="1.0" encoding="UTF-8" standalone="no"?>
<!DOCTYPE svg PUBLIC "-//W3C//DTD SVG 1.1//EN" "http://www.w3.org/Graphics/SVG/1.1/DTD/svg11.dtd">
<svg xmlns="http://www.w3.org/2000/svg">
<metadata>
This is a custom SVG webfont generated by Font Squirrel.
Copyright   : Copyright c 2009 Barry Schwartz
</metadata>
<defs>
<font id="webfontbRrCzYSu" horiz-adv-x="669">
<font-face units-per-em="2048" ascent="1591" descent="-457"/>
<missing-glyph horiz-adv-x="436"/>
<glyph unicode="ff" horiz-adv-x="1085" d="M-80 -336q0 29 15.5 85t41.5 56q12 0 17.5 -9t7.5 -22.5t12.5 -31.5t28.5 -33q12 -8 18 -8q39 0 56.5 90t48.5 365q37 326 55 458l15 115q0 35 -21 35h-69q-26 0 -33 -1t-13 -1h-12q-47 0 -47 35q0 27 10 36t41 9q102 -2 148 -2q14 0 16 16q37 279 196.5 435.5 t325.5 156.5q43 0 77 -12.5t50.5 -24.5t18.5 -12q6 -1 24 19l42 44q24 24 71 43t102 19q49 0 64.5 -13.5t15.5 -42.5q0 -10 -1 -23t-3 -21.5t-2 -10.5q-4 -66 -25 -65q-16 0 -58 38.5t-91 38.5q-39 0 -69.5 -31.5t-53 -93t-35 -111.5t-26.5 -128q-6 -33 -15.5 -74 t-13.5 -65.5t-4 -47.5q0 -12 9 -22t22 -10q20 0 78.5 2t86.5 2q31 0 31 -45q0 -33 -57 -33q-43 0 -98.5 1t-79.5 1q-8 0 -15.5 -71.5t-19.5 -220t-23 -249.5q-35 -305 -78 -415q-35 -84 -77.5 -120t-116.5 -59q-37 -10 -55 -10q-61 0 -62 51q0 27 15.5 75t42.5 48 q8 0 20 -26q18 -35 38.5 -53.5t31.5 -18.5q20 0 36.5 40t27.5 108.5t18.5 133t13.5 141.5t10 103l25 215q12 96 19 146.5t12.5 84.5t7.5 45l2 11q0 39 -21 39q-31 0 -82 2t-133 2h-82q-6 0 -11 -1t-8 -4l-6 -6q-3 -3 -5.5 -8t-3.5 -9.5t-2 -12.5t-2 -14t-2 -16.5t-1 -16.5 q-8 -68 -26.5 -251t-28.5 -265q-33 -276 -55 -330q-41 -100 -124 -157.5t-134 -57.5q-64 0 -64 41zM377 860q0 -18 24 -18q4 0 75 -1t239 -1q12 0 14 16q20 137 49 230.5t46.5 130t17.5 51.5q0 12 -13.5 32.5t-52.5 42t-94 21.5q-84 0 -157.5 -98.5t-110.5 -212t-37 -193.5z "/>
<glyph unicode="fi" horiz-adv-x="1003" d="M-82 -322q0 127 51 127q20 0 25 -22q6 -33 26.5 -54.5t32.5 -21.5q14 0 25.5 13.5t19.5 41.5l16 54q8 28 13 74l10 80q4 34 9.5 87.5t9.5 81.5q63 518 75 588v2q0 45 -26 45h-15q-23 0 -60.5 -4t-49.5 -4q-39 0 -39 27q0 23 2 32t12.5 14t32.5 5q2 0 41 -2t66 -2h41 q14 0 16 16q18 127 71.5 269.5t133.5 228.5q68 72 151.5 120t161.5 48q133 0 133 -78q0 -18 -19.5 -62.5t-37.5 -44.5q-12 0 -32.5 22.5t-51.5 45t-72 22.5q-72 0 -130 -56t-91 -134t-56.5 -165t-31.5 -141t-8 -71q0 -25 24 -24q135 0 223 3t116 7l48 7q20 3 33.5 3 t24 -14.5t10.5 -26.5q0 -8 -24.5 -132t-49 -274.5t-24.5 -224.5q0 -31 13 -46t28 -15q31 0 69.5 49t48.5 49q20 0 21 -20q0 -14 -10.5 -32.5t-21.5 -32t-25 -28.5l-15 -16q-8 -12 -24.5 -29.5t-60.5 -47t-83 -29.5q-70 0 -69 170q0 106 38.5 332.5t38.5 240.5q0 25 -11 32 t-42 9q-14 0 -84.5 5t-154.5 5q-39 0 -48.5 -12t-13.5 -76q-6 -98 -39 -393q-43 -381 -71 -457q-45 -109 -127 -164t-131 -55q-61 0 -62 43v12z"/>
<glyph unicode="fl" horiz-adv-x="1052" d="M-84 -328q0 33 12.5 88.5t38.5 55.5q16 0 41 -51.5t47.5 -51.5t39 30t25.5 84q9 55 14 105l12 114q6 64 10 93q82 596 82 619q0 16 -19 16q-39 0 -80 -3t-49 -3q-49 0 -49 37q0 25 10 34t43 9q100 -4 146 -4h4q10 0 16 51t36 156.5t89 208.5q59 96 156.5 180t220.5 84 q8 0 33.5 -3t31.5 -3q14 0 27.5 3t24.5 3q35 0 45 -8.5t10 -26.5q0 -47 -3 -66.5t-13.5 -64.5t-20.5 -121l-66 -467q-74 -532 -73 -592q0 -29 7 -42t13 -15t21 -2q43 0 78.5 34.5t58 68.5t33.5 34q25 0 24 -25q0 -41 -101 -141t-187 -100q-45 0 -58.5 35.5t-13.5 105.5v39 q0 158 72 604q86 547 86 582q0 74 -109 74q-76 0 -139.5 -75t-98 -177.5t-53 -186.5t-18.5 -121q0 -18 6 -22t22 -4q20 0 75.5 1t84.5 1q41 0 41 -23q0 -53 -33 -53q-53 0 -104 2t-72 2q-12 0 -18 -3t-10.5 -11t-5.5 -16.5t-3 -27t-4 -32.5q-6 -37 -51 -444 q-39 -338 -70 -406q-96 -205 -247 -205q-68 0 -68 43z"/>
<glyph unicode="ffi" horiz-adv-x="1476" d="M-80 -338q0 16 3 46t14.5 64.5t29.5 34.5q16 0 22.5 -9t12.5 -29.5t16 -34.5q23 -31 41 -31q35 0 57.5 117t49.5 354q33 322 49 440q12 96 16 114v1q0 41 -20 41q-35 0 -76 -3t-49 -3q-45 0 -45 33q0 27 10 37t41 10h19q33 0 57.5 -1t35.5 -1t18 -1t11 -1q14 0 17 16 q31 242 170 406q59 70 167.5 129t192.5 59q43 0 88 -12.5t72 -25.5t29 -13q4 0 41 31.5t100.5 63.5t134.5 32q55 0 94 -16.5t39 -43.5q0 -10 -1 -24.5t-3 -23.5t-2 -11q-2 -25 -17.5 -52.5t-29.5 -27.5q-12 0 -25.5 15.5t-26.5 34t-50 33.5t-95 15q-70 0 -128 -73.5 t-90.5 -174t-51 -183.5t-18.5 -120q0 -33 30 -32q12 0 53.5 1t105 3t91.5 2q86 2 120 7t42 5q41 0 41 -41q0 -25 -18.5 -104.5t-26.5 -126.5q-51 -328 -51 -369q0 -86 28 -86q33 0 77 52.5t54 52.5q18 0 19 -27q0 -63 -94 -148.5t-144 -85.5q-78 0 -77 162q0 82 40.5 310.5 t40.5 281.5q0 27 -10 35t-39 8h-194q-76 0 -87.5 -5t-15.5 -34q-20 -143 -47 -409q-10 -113 -17 -172.5t-20.5 -145.5t-29 -131t-41 -99t-58 -80t-79 -44.5t-103.5 -18.5q-23 0 -32 5.5t-11 12.5t-2 23q0 27 15.5 80.5t41.5 53.5q12 0 35 -50.5t53 -50.5q20 0 38 39 t29 107.5t18.5 130t13.5 139.5t10 102l27 215l19 147l12 84q5 34 8 45l2 11q0 43 -19 43h-301q-8 0 -15 -2t-10.5 -5t-5.5 -11.5t-3 -13.5t-3 -17t-2 -18q-12 -92 -55 -508q-33 -297 -57 -359q-41 -102 -117 -154.5t-137 -52.5h-17q-45 0 -45 31zM373 860q0 -18 22 -18 q4 0 76 -1t240 -1q12 0 14 16q16 111 41 194t45 117.5t34.5 62t14.5 42t-12 35t-50 41t-93 20.5q-78 0 -144.5 -59.5t-105.5 -145.5t-60.5 -167t-21.5 -136z"/>
<glyph unicode="ffl" horiz-adv-x="1517" d="M-80 -336q0 29 15.5 85t41.5 56q12 0 17.5 -9t7.5 -22.5t12.5 -31.5t28.5 -33q12 -8 18 -8q14 0 25.5 13.5t21 45t15.5 67.5t14 99q9 62 15 119l16 149q10 92 20 171l45 345q2 15 3 19q0 35 -21 35q-39 0 -80 -1t-47 -1q-47 0 -47 35q0 27 10 36t41 9q92 -6 137 -6 q25 0 27 20q20 152 81.5 271.5t140.5 186t157 100.5t143 34q43 0 88 -15.5t73 -29.5t30 -14t15 13t36.5 32.5t53.5 38t71 32t82 13.5q8 0 38.5 -3.5t37.5 -3.5q14 0 27 2.5t24 2.5q45 0 45 -43q0 -27 -13.5 -90.5t-25.5 -145.5q-137 -946 -137 -1063q0 -61 43 -61t78.5 33.5 t60.5 68.5t39 35t14 -19q0 -49 -91 -148t-196 -99q-74 0 -73 147v39q0 61 32 303l46 301q23 170 45 303t32.5 188.5t10.5 90.5q0 23 -32 48.5t-85 25.5q-117 0 -186 -121q-31 -53 -60 -159t-42 -182.5t-13 -93.5q0 -25 9 -30.5t56 -5.5q14 0 56.5 2t66.5 2q37 0 37 -27 t-14.5 -37t-63.5 -10h-39q-16 0 -50 1t-42 1q-18 0 -25.5 -9t-11.5 -42q-4 -27 -51 -490q-25 -254 -63.5 -381t-139.5 -184q-66 -39 -118 -39q-63 0 -64 56q0 25 17.5 71.5t44.5 46.5q4 0 30.5 -48t48.5 -48q35 0 54.5 67.5t32 213t14.5 155.5q78 565 78 613q0 4 -9.5 11 t-17.5 7q-6 0 -102.5 1t-190.5 1q-6 0 -10 -1t-7 -4t-6.5 -7t-5.5 -10.5t-3 -11.5t-2 -14t-2 -15.5t-3 -17.5t-2 -19q-10 -74 -28.5 -264.5t-22.5 -227.5q-31 -283 -55 -342q-41 -100 -124 -157.5t-134 -57.5q-64 0 -64 41zM375 860q0 -25 31 -24h305q8 0 12 5t6 19t4 32.5 t10.5 53.5t20.5 74q27 84 47 135t28.5 61.5t12.5 17.5t4 26q0 45 -44 74.5t-130 29.5q-84 0 -158.5 -98.5t-111.5 -213t-37 -192.5z"/>
<glyph unicode="fh" horiz-adv-x="1527" d="M-84 -328q0 33 12.5 88.5t38.5 55.5q16 0 41 -51.5t47.5 -51.5t39 30t25.5 84q9 55 14 105l12 114q6 64 10 93q82 596 82 619q0 16 -19 16q-39 0 -80 -3t-49 -3q-49 0 -49 37q0 25 10 34t43 9q104 -4 150 -4q10 0 16 51t36 156.5t89 208.5q59 96 156.5 180t220.5 84 q8 0 33.5 -3t31.5 -3q14 0 27.5 3t24.5 3q35 0 45 -8.5t10 -26.5q0 -14 -52.5 -366.5t-52.5 -409.5q0 -18 9 -19q6 0 32.5 28t61.5 59.5t91 59t114 27.5q182 0 182 -231q0 -61 -24.5 -215t-24.5 -199q0 -94 49 -94q27 0 86 37q17 10 35 32l30 36q12 16 19 16q18 0 18 -17 q0 -72 -97 -156.5t-169 -84.5q-100 0 -100 190q0 63 18.5 210t18.5 208q0 160 -115 160q-70 0 -139.5 -41t-106.5 -137q-18 -47 -30.5 -122t-28 -210t-23.5 -193q-6 -37 -23.5 -49t-52.5 -12q-66 0 -65 49q0 25 10 91.5t25.5 154.5t21.5 129q8 49 45 295l66 441 q29 196 29 198q0 76 -109 76q-76 0 -139.5 -75t-98 -177.5t-53 -186.5t-18.5 -121q0 -18 6 -22t22 -4q20 0 75.5 2t84.5 2q18 0 28.5 -3t11.5 -7t1 -13q0 -49 -39 -49q-43 0 -94 1t-76 1q-29 0 -35 -51q-16 -115 -41.5 -350.5t-31.5 -278.5q-29 -213 -54 -264 q-96 -205 -247 -205q-68 0 -68 43z"/>
<glyph unicode="ffh" horiz-adv-x="1998" d="M-80 -336q0 29 15.5 85t41.5 56q12 0 17.5 -9t7.5 -22.5t12.5 -31.5t28.5 -33q12 -8 18 -8q14 0 25.5 13.5t21 45t15.5 67.5t14 99q9 62 15 119l16 149q10 92 20 171l45 345q2 15 3 19q0 35 -21 35q-39 0 -80 -1t-47 -1q-47 0 -47 35q0 27 10 36t41 9q92 -6 137 -6 q25 0 27 20q20 152 81.5 271.5t140.5 186t157 100.5t143 34q43 0 88 -15.5t73 -29.5t30 -14t15 13t36.5 32.5t53.5 38t71 32t82 13.5q8 0 38.5 -3.5t37.5 -3.5q14 0 27 2.5t24 2.5q45 0 45 -43q1 -3 -23 -173l-48 -354q-24 -184 -25 -227q0 -25 8 -25q6 0 32.5 28t60.5 59.5 t90 59t114 27.5q182 0 182 -231q0 -61 -24.5 -215t-24.5 -199q0 -94 49 -94q27 0 86 37q18 10 36 32l30 36q12 16 18 16q18 0 18 -17q0 -72 -99 -156.5t-167 -84.5q-98 0 -98 190q0 63 18.5 210t18.5 208q0 160 -117 160q-70 0 -139.5 -41t-106.5 -137q-18 -45 -30.5 -122 t-26.5 -208t-23 -195q-6 -37 -23.5 -49t-54.5 -12q-66 0 -65 49q0 25 11 91l26 155q16 88 22 129q4 32 43 280l68 440q29 192 29 216q0 23 -32 48.5t-85 25.5q-117 0 -186 -121q-31 -53 -60 -159t-42 -182.5t-13 -93.5q0 -25 9 -30.5t56 -5.5q14 0 56.5 2t66.5 2 q37 0 37 -27q0 -25 -15.5 -36t-66.5 -11h-31q-29 0 -43 1t-30 1h-6q-37 0 -43.5 -6t-10.5 -45q-14 -115 -55 -531q-25 -229 -64.5 -349t-134.5 -175q-66 -39 -118 -39q-63 0 -64 56q0 25 17.5 71.5t44.5 46.5q4 0 30.5 -48t48.5 -48q35 0 54.5 67.5t32 213t14.5 155.5 q78 569 78 606q0 18 -29 22.5t-156 4.5h-135q-6 0 -11 -2t-8 -6l-6 -9q-4 -5 -6 -13.5t-4 -15.5t-3 -19.5t-2 -20.5l-3 -24q-2 -16 -2 -25l-26 -248q-18 -176 -21 -203q-29 -283 -55 -348q-41 -100 -124 -157.5t-134 -57.5q-64 0 -64 41zM375 860q0 -25 31 -24h305q8 0 12 5 t6 19t4 32.5t10.5 53.5t20.5 74q27 84 47 135t28.5 61.5t12.5 17.5t4 26q0 45 -44 74.5t-130 29.5q-84 0 -158.5 -98.5t-111.5 -213t-37 -192.5z"/>
<glyph unicode="fk" horiz-adv-x="1462" d="M-84 -328q0 33 12.5 88.5t38.5 55.5q16 0 41 -51.5t47.5 -51.5t39 30t25.5 84q9 55 14 105l12 114q6 64 10 93q82 596 82 619q0 16 -19 16q-39 0 -80 -3t-49 -3q-49 0 -49 37q0 25 10 34t43 9q100 -4 146 -4h4q10 0 16 51t36 156.5t89 208.5q59 96 156.5 180t220.5 84 q8 0 33.5 -3t31.5 -3q14 0 27.5 3t24.5 3q35 0 45 -8.5t10 -26.5q0 -45 -4 -71.5t-12.5 -59.5t-29 -173.5t-46.5 -361.5q-10 -86 -19 -155l-10 -68q0 -4 -5 -27.5t-8 -50t-3 -45.5q0 -16 1 -23.5t5 -11.5t12 -4q23 0 146.5 98.5t168.5 172.5q12 20 32 73.5t42.5 78 t65.5 24.5q31 0 48 -21.5t17 -52.5q0 -53 -78.5 -123t-157.5 -119t-79 -51q0 -4 100 -184q6 -12 18.5 -32.5t18.5 -32t16.5 -30t17.5 -29.5l15 -24q8 -14 15.5 -21t14.5 -15.5t13 -11.5t13 -3q41 0 88 57.5t55 57.5q18 0 18 -37q0 -57 -71.5 -139t-126.5 -82 q-39 0 -90.5 70.5t-90 155.5t-78.5 155.5t-61 70.5l-49 -26q-12 -6 -23.5 -13.5t-18.5 -9.5t-14 -7t-10.5 -6t-7.5 -6l-4 -5l-2 -7q-2 -7 -2 -9.5t-2 -12.5t-2 -16l-37 -269q-6 -61 -69 -61q-66 0 -66 49q0 25 10 91l24 156l21 128l123 821q14 102 15 113q0 76 -109 76 q-76 0 -139.5 -75t-98 -177.5t-53 -186.5t-18.5 -121q0 -18 7 -22t23 -4q20 0 78 2t86 2q35 0 35 -25q0 -47 -27 -47q-61 0 -111 1t-71 1q-8 0 -13 -2t-9 -7t-6.5 -10t-4.5 -14.5t-3 -16.5t-2 -22.5t-3 -23.5q-2 -14 -51 -444q-37 -334 -70 -404q-96 -205 -247 -205 q-68 0 -68 43z"/>
<glyph unicode="ffk" horiz-adv-x="1933" d="M-80 -336q0 29 15.5 85t41.5 56q12 0 17.5 -9t7.5 -22.5t12.5 -31.5t28.5 -33q12 -8 18 -8q14 0 25.5 13.5t21 45t15.5 67.5t14 99q9 62 15 119l16 149q10 92 20 171l45 345q2 15 3 19q0 35 -21 35q-39 0 -80 -1t-47 -1q-47 0 -47 35q0 27 10 36t41 9q92 -6 137 -6 q25 0 27 20q20 152 81.5 271.5t140.5 186t157 100.5t143 34q43 0 88 -15.5t73 -29.5t30 -14t15 13t36.5 32.5t53.5 38t71 32t82 13.5q8 0 38.5 -3.5t37.5 -3.5q14 0 27 2.5t24 2.5q45 0 45 -43q0 -12 -1 -20.5t-2 -19t-6.5 -38t-11.5 -68.5t-17 -123l-26 -188l-55 -416 l-8 -60q-4 -31 -6 -48t-2 -27q0 -27 20 -27q23 0 147.5 98.5t170.5 172.5q12 23 30.5 75t41 76.5t65.5 24.5q31 0 48 -21.5t17 -52.5q0 -53 -78.5 -123t-157.5 -119t-79 -51l102 -184l23 -41q14 -27 24 -42l21 -35q13 -20 21 -34l17 -24q9 -12 17 -17.5t17 -5.5 q41 0 89 57.5t56 57.5q16 0 16 -37q0 -57 -70.5 -139t-125.5 -82q-39 0 -90.5 70.5t-91 155.5t-79.5 155.5t-61 70.5l-49 -26q-12 -8 -27.5 -16.5t-21.5 -10.5t-14.5 -8t-9.5 -6t-4 -8.5t-3 -9.5t-2 -14t-2 -19l-37 -269q-6 -61 -69 -61q-68 0 -68 49q0 25 10 91l25 156 l20 128l41 272q23 154 51 322l38 242q12 74 12 100q0 23 -32 48.5t-85 25.5q-117 0 -186 -121q-31 -53 -60 -159t-42 -182.5t-13 -93.5q0 -25 6 -30.5t35 -5.5q8 0 56 2t91 2q37 0 37 -27q0 -25 -15.5 -35t-62.5 -10h-137q-18 0 -22.5 -6t-8.5 -45q-23 -184 -49 -469 q-25 -262 -64.5 -394t-140.5 -192q-66 -39 -118 -39q-63 0 -64 56q0 25 17.5 71.5t44.5 46.5q4 0 30.5 -48t48.5 -48q35 0 54.5 67.5t32 213t14.5 155.5l67 502q10 82 11 104q0 18 -29 22.5t-156 4.5h-135q-8 0 -13 -3t-9.5 -9t-7.5 -12.5t-5 -18.5t-3 -21.5t-2 -25.5 t-3 -27q-8 -68 -26.5 -253t-28.5 -275q-25 -227 -49 -289q-41 -100 -124 -157.5t-134 -57.5q-64 0 -64 41zM375 860q0 -25 31 -24h305q8 0 12 5t6 19t4 32.5t10.5 53.5t20.5 74q27 84 47 135t28.5 61.5t12.5 17.5t4 26q0 45 -44 74.5t-130 29.5q-84 0 -158.5 -98.5 t-111.5 -213t-37 -192.5z"/>
<glyph unicode="fb" horiz-adv-x="1486" d="M-84 -328q0 33 12.5 88.5t38.5 55.5q16 0 41 -51.5t47.5 -51.5t39 30t25.5 84q9 55 14 105l12 114q6 64 10 93q82 596 82 619q0 16 -19 16q-39 0 -80 -3t-49 -3q-49 0 -49 37q0 25 10 34t43 9q100 -4 146 -4h4q10 0 16 51t36 156.5t89 208.5q59 96 156.5 180t220.5 84 q8 0 33.5 -3t31.5 -3q14 0 27.5 3t24.5 3q35 0 45 -8.5t10 -27t-53.5 -378.5t-53.5 -385q0 -29 9 -29q6 0 49 47.5t125 95.5t186 48q109 0 167 -76t58 -184q0 -223 -167 -434t-392 -211q-100 0 -175 44t-75 128q0 45 8.5 114.5t18.5 123.5l27 144q16 90 22 128q16 96 42 267 l44 295q18 124 17 128q0 76 -109 76q-76 0 -139.5 -75t-98 -177.5t-53 -186.5t-18.5 -121q0 -18 6 -23t22 -5q20 0 72.5 3t81.5 3q47 0 47 -25q0 -47 -45 -47q-41 0 -90 1t-74 1q-6 0 -10 -1t-7 -3t-5 -4t-4 -6t-3.5 -8t-2.5 -11.5t-2 -12.5t-2 -15t-3 -19q-6 -47 -59 -518 q-33 -279 -64 -346q-96 -205 -247 -205q-68 0 -68 43zM748 178q0 -139 157 -139q135 0 254 175t119 355q0 86 -58.5 147.5t-142.5 61.5q-35 0 -72.5 -10t-91 -58t-84.5 -130q-27 -72 -47 -169.5t-27 -157t-7 -75.5z"/>
<glyph unicode="ffb" horiz-adv-x="1961" d="M-80 -336q0 29 15.5 85t41.5 56q12 0 17.5 -9t7.5 -22.5t12.5 -31.5t28.5 -33q12 -8 18 -8q14 0 25.5 13.5t21 45t15.5 67.5t14 99q9 62 15 119l16 149q10 92 20 171l45 345q2 15 3 19q0 35 -21 35q-39 0 -80 -1t-47 -1q-47 0 -47 35q0 27 10 36t41 9q92 -6 137 -6 q25 0 27 20q20 152 81.5 271.5t140.5 186t157 100.5t143 34q43 0 88 -15.5t73 -29.5t30 -14t15 13t36.5 32.5t53.5 38t71 32t82 13.5q8 0 38.5 -3.5t37.5 -3.5q14 0 27 2.5t24 2.5q45 0 45 -43q0 -14 -48 -358.5t-48 -393.5q0 -25 8 -25t35.5 30t64.5 65.5t107.5 65.5 t150.5 30q109 0 168 -76t59 -184q0 -223 -166.5 -434t-392.5 -211q-100 0 -175 44t-75 128q0 57 13.5 143t34 197.5t28.5 169.5q10 72 38 250l45 298q18 120 18 144q0 23 -32 48.5t-85 25.5q-117 0 -186 -121q-31 -53 -60 -159t-42 -182.5t-13 -93.5q0 -25 10 -30.5t57 -5.5 q14 0 55.5 2t65.5 2q37 0 37 -27t-13.5 -36t-62.5 -9h-141q-16 0 -20.5 -5t-5.5 -28l-3 -18q-16 -127 -35.5 -331t-21.5 -220q-23 -215 -63.5 -332t-133.5 -172q-66 -39 -118 -39q-63 0 -64 56q0 25 17.5 71.5t44.5 46.5q4 0 30.5 -48t48.5 -48q35 0 54.5 67.5t32 213 t14.5 155.5q78 569 78 606q0 18 -29 22.5t-156 4.5h-139q-16 0 -24.5 -28.5t-8.5 -45.5q-12 -80 -34 -305l-29 -287q-25 -213 -47 -268q-41 -100 -124 -157.5t-134 -57.5q-64 0 -64 41zM375 860q0 -25 31 -24h307q12 0 15 13t10 62.5t26 108.5q27 84 47 135t28.5 61.5 t12.5 17.5t4 26q0 45 -44 74.5t-130 29.5q-84 0 -158.5 -98.5t-111.5 -213t-37 -192.5zM1223 178q0 -139 157 -139q135 0 253 174t118 356q0 86 -57.5 147.5t-141.5 61.5q-35 0 -72.5 -10t-91 -58t-83.5 -130q-27 -72 -47.5 -169.5t-27.5 -157t-7 -75.5z"/>
<glyph unicode=" " horiz-adv-x="436"/>
<glyph unicode="	" horiz-adv-x="436"/>
<glyph unicode=" " horiz-adv-x="436"/>
<glyph unicode="!" horiz-adv-x="509" d="M139 102q0 10 21.5 35t32.5 33q14 10 35.5 30.5t34.5 29t28 8.5q8 0 15 -7.5t22.5 -28t25.5 -32.5q37 -41 37 -57q0 -23 -61 -80q-55 -55 -66 -56q-25 0 -63 46q-8 10 -26.5 28.5t-27 30.5t-8.5 20zM272 432q0 12 4 57l54 795v16q0 14 1 20.5l3 20t6 20.5t11 17.5 t17.5 15.5t26 9t33.5 4q74 0 74 -68q0 -29 -8.5 -61.5t-28 -120.5t-37.5 -221q-37 -258 -86 -498q-2 -12 -14.5 -26.5t-28.5 -14.5q-27 0 -27 35z"/>
<glyph unicode="&quot;" horiz-adv-x="839" d="M74 899q0 16 13 28.5t30.5 24t40 40t37.5 67.5q25 59 24 92q0 41 -16.5 70.5t-36 44t-35.5 31t-16 35t44 68.5t72 50q6 0 17.5 -5t28 -20.5t29.5 -38t23.5 -61.5t10.5 -86q0 -100 -53.5 -189t-108.5 -132.5t-79.5 -43.5t-24.5 25zM424 899q0 16 13.5 28.5t30.5 24 t39.5 40t37.5 67.5q25 59 24 92q0 51 -26.5 85t-52 54.5t-25.5 40.5q0 18 44 68.5t73 50.5q6 0 17 -5t27.5 -20.5t30 -38t23.5 -61.5t10 -86q0 -100 -53 -189t-108.5 -132.5t-80 -43.5t-24.5 25z"/>
<glyph unicode="#" horiz-adv-x="1091" d="M121 285v6q0 25 4 34t25 9h167q6 0 7 4q4 36 14 106l17 118q7 48 7 52q0 10 -14 11h-194q-18 0 -25.5 7t-7.5 34q0 45 33 45h208q18 0 19 14q29 205 45 342q6 41 8 45q10 14 45 14q41 0 41 -24q0 -6 -26.5 -190.5t-26.5 -190.5q0 -10 12 -10h201q16 0 18 14 q53 385 58 389q8 12 47 12q33 0 33 -20q0 -8 -26 -192.5t-26 -192.5q0 -10 11 -10h141q37 0 37 -52q0 -35 -31 -34h-166q-6 0 -10 -13q-37 -264 -37 -266q0 -12 14 -12h195q12 0 18.5 -2t11.5 -11.5t5 -27.5q0 -45 -35 -45h-201q-18 0 -22 -21l-24 -177q-19 -138 -27 -161.5 t-43 -23.5q-39 0 -39 26q0 6 23.5 173t23.5 172q0 12 -15 12h-135q-39 0 -57.5 -2t-21.5 -5t-5 -10q-45 -340 -49 -350q-10 -16 -47 -16t-37 26q0 6 23.5 172t23.5 170q0 14 -16 15h-143q-29 0 -29 37zM412 344q0 -10 16 -10h195q18 0 20 14q5 52 13 100l12 74l7 47t4 31 t1 14q0 10 -12 11h-201q-14 0 -18 -15q-37 -264 -37 -266z"/>
<glyph unicode="$" horiz-adv-x="999" d="M41 186q0 23 24.5 90.5t45.5 67.5q18 0 30.5 -20.5t24.5 -61.5t20 -59q35 -76 91.5 -122t107.5 -46q14 0 18.5 7t8.5 32q14 121 32 263l30 222q11 80 11 86q0 20 -33.5 41t-80.5 45.5t-94.5 58t-81 95t-33.5 139.5q0 180 118.5 274.5t272.5 98.5q27 0 31 38l8 75 q4 38 33 38q51 0 51 -37q0 -18 -11.5 -53t-11.5 -57q0 -6 10.5 -10.5t31 -7.5t22.5 -3q82 -25 138 -60.5t74.5 -61t18.5 -41.5q0 -45 -12 -76t-23.5 -39t-19.5 -8q-10 0 -18.5 11t-21.5 37.5t-22 39.5q-29 47 -86 93t-90 46q-20 0 -28 -59q-14 -127 -27.5 -225.5t-20 -138.5 t-6.5 -64q0 -23 40 -42.5t96.5 -44t113 -62.5t96 -114.5t39.5 -183.5q0 -188 -125.5 -301t-330.5 -113q-14 0 -24.5 -7t-10.5 -15q-4 -37 -8 -78t-7 -65.5t-6.5 -50t-6.5 -39t-8 -25.5t-13 -16.5t-19 -4.5q-27 0 -36 8.5t-9 26.5q0 31 20.5 132.5t20.5 103.5q0 23 -20 22 q-127 20 -230.5 90t-103.5 131zM268 1087q0 -49 25.5 -94t62.5 -69q117 -76 133 -76q23 0 27 45q51 399 51 407q0 31 -41 31q-27 0 -62.5 -9t-83.5 -32.5t-80 -76t-32 -126.5zM479 57q0 -33 45 -32q27 0 70 15t97 50t92 106.5t38 165.5q0 55 -23.5 104.5t-57 79t-69.5 51 t-59.5 31t-27.5 9.5q-29 0 -33 -33q-12 -76 -42 -302.5t-30 -244.5z"/>
<glyph unicode="%" horiz-adv-x="1579" d="M121 705q0 166 117.5 321.5t289.5 155.5q66 0 116 -36l95 -71q45 -35 97 -35q39 0 86 17.5t84.5 38t85.5 58.5l72 58l64 58l40 37q16 16 37 16q18 0 18 -18q0 -16 -16 -43l-892 -1358q-52 -83 -63 -86q-12 -4 -20 -4q-25 0 -46.5 16t-21.5 33q0 25 61 112l21 31l338 486 l218 307l153 209q43 60 43 65q0 8 -8 8q-2 0 -40 -22.5t-96.5 -45t-113.5 -22.5q-23 0 -45.5 5t-38 10.5t-17.5 5.5t-2 -2l2 -14q2 -13 2 -25q0 -117 -20.5 -190.5t-83.5 -166.5q-111 -164 -291 -163q-72 0 -148.5 66.5t-76.5 187.5zM268 745q0 -113 33 -176t90 -63 q98 0 157.5 135t59.5 293q0 82 -26.5 135t-69.5 53q-115 0 -179.5 -116t-64.5 -261zM791 131q0 174 112.5 321.5t292.5 147.5q111 0 166 -69.5t55 -182.5q0 -178 -112.5 -343t-266.5 -165q-121 0 -184 83t-63 208zM936 150q0 -113 32.5 -178.5t90.5 -65.5q92 0 157.5 139 t65.5 293q0 82 -29.5 140.5t-72.5 58.5q-115 0 -179.5 -120t-64.5 -267z"/>
<glyph unicode="&amp;" horiz-adv-x="1708" d="M80 449q0 113 60.5 222t138.5 175q31 27 63.5 45t46.5 27.5t14 19.5q0 4 -3 17.5t-7 42t-4 65.5q0 106 44 190t112.5 131.5t139.5 71t134 23.5q29 0 61.5 -7.5t70.5 -23.5t62.5 -53t24.5 -88q0 -143 -133 -144q-25 0 -24 15q0 8 13 39.5t13 54.5q0 31 -35.5 59.5 t-89.5 28.5q-158 0 -241.5 -111.5t-83.5 -236.5q0 -37 24 -37q10 0 59.5 10t88.5 10q82 0 127 -41t45 -96t-43 -94t-121 -39q-51 0 -94 22.5t-65 48.5l-38 48q-18 22 -26 22q-18 0 -56.5 -40t-74 -118.5t-35.5 -164.5q0 -115 52 -221.5t167 -182.5t270 -76q193 0 341.5 127 t148.5 289q0 86 -49.5 143.5t-135.5 57.5q-72 0 -123 -44t-51 -120q0 -53 29 -80.5t55 -27.5q31 0 52.5 22.5t31.5 22.5q14 0 15 -19q0 -27 -34 -53.5t-83 -26.5q-80 0 -125 65.5t-45 127.5q0 53 20.5 98t49 75t85 61.5t98.5 50t122 51t125 53.5q162 72 241.5 149.5 t79.5 184.5q0 53 -44 100t-116 47q-39 0 -75.5 -23.5t-36.5 -82.5q0 -35 48 -55.5t48 -36.5q0 -84 -96 -84q-45 0 -70.5 36.5t-25.5 92.5q0 88 73.5 148.5t157.5 60.5q90 0 155.5 -70t65.5 -164t-47 -175t-113.5 -130t-133 -86t-114 -59.5t-47.5 -32.5q0 -6 19.5 -19.5 t42 -32t42 -61.5t19.5 -102q0 -197 -137 -332q-121 -121 -249 -175t-306 -54q-248 0 -406.5 122t-158.5 347zM504 881q0 -25 34.5 -59t77.5 -34q31 0 54.5 20.5t23.5 49.5q0 41 -34.5 59.5t-69.5 18.5q-33 0 -59.5 -17.5t-26.5 -37.5z"/>
<glyph unicode="'" horiz-adv-x="489" d="M74 899q0 16 13 28.5t30.5 24t40 40t37.5 67.5q25 59 24 92q0 41 -16.5 70.5t-36 44t-35.5 31t-16 35t44 68.5t72 50q6 0 17.5 -5t28 -20.5t29.5 -38t23.5 -61.5t10.5 -86q0 -100 -53.5 -189t-108.5 -132.5t-79.5 -43.5t-24.5 25z"/>
<glyph unicode="(" horiz-adv-x="589" d="M129 424q0 195 50 385t123 324.5t151.5 239t136 156.5t78.5 52q35 0 34 -35q0 -18 -42 -60t-105 -112.5t-130 -169t-124 -266.5t-78 -371q-10 -98 -10 -168q0 -180 44 -336.5t96.5 -239.5t96.5 -145.5t44 -74.5q0 -16 -15.5 -28.5t-27.5 -12.5q-18 0 -55.5 41 t-83.5 120.5t-87 181t-68.5 240t-27.5 279.5z"/>
<glyph unicode=")" horiz-adv-x="589" d="M-113 -403q0 18 42 60t105.5 112.5t130 169t124 266.5t78.5 370q10 98 10 168q0 180 -44 337t-96.5 241t-96.5 146.5t-44 74.5q0 16 15.5 27.5t27.5 11.5q18 0 55 -41t83.5 -120t87.5 -180t68.5 -239.5t27.5 -279.5q0 -195 -50.5 -385.5t-123 -324.5t-151.5 -239.5 t-136 -157.5t-78 -52q-35 0 -35 35z"/>
<glyph unicode="*" horiz-adv-x="882" d="M121 784q0 27 110.5 76t110.5 55q0 8 -110.5 59.5t-110.5 76.5q0 18 19.5 44.5t45.5 26.5q18 0 98.5 -54t88.5 -54q10 0 10 39q0 20 -3 76.5t-3 84.5q0 27 10 35t43 8q49 0 62.5 -12t13.5 -61q0 -18 -4 -65.5t-4 -67.5q0 -37 10 -37t93 55t95 55q25 0 46.5 -25.5 t21.5 -45.5q0 -25 -111.5 -76t-111.5 -59q0 -10 111.5 -59.5t111.5 -74.5q0 -20 -20.5 -45.5t-49.5 -25.5q-18 0 -98 54t-86 54q-10 0 -10 -39q0 -20 3 -62t3 -56q0 -59 -11.5 -72.5t-62.5 -13.5q-55 0 -55 49q0 16 3 69.5t3 77.5q0 47 -10 47q-8 0 -91 -54t-96 -54 q-27 0 -46 26.5t-19 44.5z"/>
<glyph unicode="+" horiz-adv-x="1040" d="M43 434q0 16 2 23.5t10 12.5t27 5h346q45 0 45 39v360q0 14 5 21.5t12.5 8.5t26 1t26.5 -1t15 -11t7 -29v-334q0 -55 35 -55h363q16 0 23 -5t8 -12t1 -26q0 -29 -6 -38t-37 -9h-352q-25 0 -30 -8t-5 -29v-358q0 -23 -10 -29t-31 -6q-33 0 -42 5t-9 32v356q0 27 -9 32 t-38 5h-346q-25 0 -31 10t-6 39z"/>
<glyph unicode="," horiz-adv-x="462" d="M86 -313q0 12 11.5 24.5t30.5 26.5t26 22q76 84 75 187q0 47 -28.5 79.5t-56 52t-27.5 36.5q0 10 46 68.5t70 58.5q41 0 80 -61.5t39 -180.5q0 -102 -91 -221t-144 -119q-31 0 -31 27z"/>
<glyph unicode="-" horiz-adv-x="577" d="M80 379q0 27 17.5 46t72.5 36l131 42q57 19 78.5 27.5t39 13.5t34.5 5q45 0 45 -45q0 -18 -1 -28.5t-6.5 -21t-9.5 -14.5t-19.5 -11t-26.5 -10t-39 -13l-52 -17q-51 -17 -96 -35l-64 -25q-18 -7 -36.5 -12.5t-32.5 -5.5q-35 0 -35 68z"/>
<glyph unicode="." horiz-adv-x="454" d="M100 94q0 18 68 78q63 59 84 59q18 0 59 -61q4 -6 17.5 -18.5t19.5 -25.5t6 -32q0 -12 -7 -22.5t-29.5 -28.5t-26.5 -23q-51 -51 -74 -51q-14 0 -24.5 8.5t-22.5 27t-20 26.5l-12 12q-6 6 -10.5 10t-9.5 9.5t-8.5 8.5t-5.5 7t-3 8t-1 8z"/>
<glyph unicode="/" horiz-adv-x="851" d="M41 -348q0 4 39 117q625 1686 629 1699q8 23 19 30t40 7q43 0 43 -24q0 -16 -29 -90l-622 -1702q-16 -45 -27.5 -54.5t-38.5 -9.5q-53 0 -53 27z"/>
<glyph unicode="0" horiz-adv-x="1060" d="M66 348q0 209 141 375t375 166q172 0 292.5 -116t120.5 -298q0 -125 -46 -227.5t-122.5 -166t-169 -98t-188.5 -34.5q-170 0 -286.5 103t-116.5 296zM186 348q0 -143 83 -221t206 -78q156 0 281 115t125 307q0 150 -87 232.5t-214 82.5q-156 0 -275 -116.5t-119 -321.5z "/>
<glyph unicode="1" horiz-adv-x="632" d="M41 29q0 25 51 24q29 0 51.5 14.5t36 34t23.5 54t13 56t8 60.5t7 52q41 262 41 381q0 92 -114 98q-20 0 -46 13t-26 38q0 29 31 29q14 0 47 -8.5t59.5 -8.5t56 -1t72.5 -1q49 0 110.5 6.5t82.5 6.5q23 0 35 -10.5t12 -20.5q0 -35 -70 -35q-74 0 -97.5 -90t-51.5 -415 l-6 -73q0 -4 -4.5 -28.5t-4.5 -38.5q0 -76 76 -100q2 0 26 -4l42 -6q20 -3 37.5 -13t17.5 -25q0 -27 -39 -26q-29 0 -100.5 7t-118.5 7t-116.5 -7t-94.5 -7q-47 0 -47 37z"/>
<glyph unicode="2" horiz-adv-x="921" d="M41 23q0 13 44 37l136 78q92 54 176 124q299 244 299 385q0 84 -75.5 128t-139.5 44q-188 0 -188 -94q0 -23 15.5 -63.5t15.5 -53.5q0 -27 -29 -26q-139 0 -139 71q0 25 20.5 61t61.5 76.5t118.5 68.5t175.5 28q131 0 229.5 -55.5t98.5 -165.5q0 -74 -80 -166t-174 -160 l-174 -127q-80 -59 -80 -74q0 -16 92 -16h136q39 0 69.5 6t49 11t39 20.5t26.5 21.5t22.5 25.5t18.5 23.5q20 25 33 25q25 0 24 -23q0 -6 -8 -18t-28.5 -46t-43.5 -85q-33 -84 -65 -84h-303q-133 0 -226.5 -2t-99.5 -2q-47 0 -47 27z"/>
<glyph unicode="3" horiz-adv-x="798" d="M-41 -238q0 45 41 45q6 0 34.5 -25.5t80 -51t108.5 -25.5q147 0 261 116t114 222q0 92 -80 158.5t-174 66.5q-18 0 -55 -4t-66.5 -8t-32.5 -4q-25 0 -24 24q0 14 16.5 24t65.5 30t98 47q233 131 234 268q0 74 -63.5 123t-160.5 49q-66 0 -122 -31.5t-68 -31.5 q-29 0 -29 28q0 33 105.5 72t201.5 39q63 0 121 -14.5t105 -59.5t47 -114q0 -39 -13.5 -76t-30 -61.5t-46 -52.5t-47.5 -41l-52 -36q-34 -22 -43 -26q-15 -12 -29 -22l-20 -13q-6 -4 -11 -7t-6 -5.5t-1 -4.5q0 -6 50 -17t109.5 -29.5t109.5 -72t50 -132.5q0 -68 -43 -149 t-118.5 -157.5t-200.5 -129t-269 -52.5q-90 0 -118.5 23.5t-28.5 117.5z"/>
<glyph unicode="4" horiz-adv-x="1015" d="M20 29q0 12 5.5 24.5t17.5 26.5l23 26q10 12 30 30l31 30l578 598q96 102 131 102q27 0 26 -35q0 -23 -8 -51t-25.5 -104t-33.5 -184l-19 -115q-6 -43 -16 -103l-16 -93q-6 -34 -5 -42q0 -33 56 -33q53 0 83.5 8.5t38 16.5t16.5 16.5t21 8.5q23 0 23 -25q0 -10 -37 -90 q-20 -41 -63 -41q-33 0 -67 2t-55.5 3t-23.5 1q-12 0 -16 -11t-7 -58q-4 -60 -8 -107l-5 -58q-3 -36 -4 -50.5t-5 -38t-10 -32.5t-16.5 -20.5t-26 -14.5t-35.5 -3q-31 0 -47 16.5t-16 32.5t26.5 158.5t26.5 150.5q0 27 -23.5 32t-107.5 5q-131 0 -234.5 -6t-156.5 -6 q-46 0 -46 33zM213 141q0 -20 26.5 -26t108.5 -6q23 0 80 1t84 1h45h10q12 0 20.5 1t14.5 6t9 10t6.5 18.5t4.5 23.5t5 32.5t6 41.5q53 319 53 364q0 31 -8 31q-10 0 -70 -59q-94 -92 -244.5 -259.5t-150.5 -179.5z"/>
<glyph unicode="5" horiz-adv-x="763" d="M-72 -236q0 47 33 48q14 0 33.5 -16.5t40 -36t66.5 -36t108 -16.5q129 0 249 116t120 298q0 141 -102.5 234.5t-313.5 93.5q-25 0 -36 2t-18.5 11t-7.5 27q0 6 54 162l55 168q6 18 10 25.5t20.5 17.5t43.5 10q8 0 61 -6t133 -6q209 0 238 33q2 2 9 13.5t13 18.5t15.5 14 t15.5 7q18 0 18 -16q0 -10 -6 -22.5t-25.5 -44.5t-37.5 -68q-31 -57 -64 -58h-272h-53q-20 0 -28.5 1t-10.5 1q-37 0 -43 -39q-4 -18 -10.5 -40.5t-11.5 -38t-5 -17.5q0 -23 43 -32t101.5 -14t134 -39t129.5 -95q76 -88 75 -221q0 -227 -192 -416q-174 -170 -471 -170 q-45 0 -68 25q-43 48 -43 122z"/>
<glyph unicode="6" horiz-adv-x="1003" d="M66 504q0 213 133 430t319.5 350t343.5 132q16 0 31.5 -7.5t15.5 -17.5q0 -20 -19.5 -26.5t-72.5 -17t-104 -34.5q-156 -72 -301.5 -246t-145.5 -276q0 -10 8 -11q6 0 40 28t95.5 55.5t137.5 27.5q195 0 298 -121t103 -295q0 -197 -126 -349.5t-339 -152.5 q-417 1 -417 531zM211 489q0 -207 97.5 -328.5t223.5 -121.5q123 0 193 108.5t70 258.5q0 166 -84 288.5t-236 122.5q-131 0 -197.5 -94.5t-66.5 -233.5z"/>
<glyph unicode="7" horiz-adv-x="968" d="M-47 -311q0 49 59 121q41 49 185.5 236t234.5 292q315 373 316 389q0 12 -48 12q-8 0 -35.5 -1t-46.5 -1h-159q-33 0 -115 -3t-111 -3q-27 0 -46 -2t-29.5 -4t-18.5 -9t-10 -8t-6 -13l-4 -11q-2 -4 -5 -11t-4 -11.5t-5.5 -8.5t-10.5 -6t-14 -2q-39 0 -39 35q0 18 41 123 l10 31q6 20 9 26t15.5 12.5t33.5 6.5h32q20 0 194.5 -5.5t303.5 -5.5h131q29 0 55.5 15.5t40.5 15.5q20 0 21 -22q0 -10 -7.5 -23.5t-15.5 -23.5l-23 -30l-24 -30l-172 -238l-387 -555q-102 -156 -121.5 -189.5t-19.5 -63.5v-11q0 -47 -52 -47h-108q-45 0 -45 23z"/>
<glyph unicode="8" horiz-adv-x="1077" d="M86 303q0 88 36 163t87 119t102 73.5t87 44t36 16.5t-22.5 18.5t-55 44t-66.5 64.5t-56.5 90t-22.5 111q0 129 110.5 245.5t305.5 116.5q158 0 270.5 -78t112.5 -227q0 -74 -29 -133.5t-71 -91t-83 -53t-69.5 -33t-28.5 -15.5t28.5 -19.5t70.5 -44t84 -69.5t71 -105.5 t29 -140.5q0 -199 -148.5 -324.5t-365.5 -125.5q-184 0 -298 98t-114 256zM207 324q0 -125 75.5 -219.5t223.5 -94.5q117 0 225 74q141 96 141 281q0 156 -178 256q-29 16 -108.5 45.5t-89.5 29.5q-20 0 -94 -44t-109 -97q-86 -129 -86 -231zM313 1092q0 -70 51.5 -129.5 t118 -91t116.5 -49t65 -17.5q61 0 149 86t88 205q0 92 -75.5 173t-211.5 81q-125 0 -213 -67.5t-88 -190.5z"/>
<glyph unicode="9" horiz-adv-x="1028" d="M66 377q0 111 52 225.5t164.5 200.5t256.5 86q178 0 302 -117t124 -340q0 -264 -160 -495q-131 -190 -356 -299q-123 -57 -275 -58q-43 0 -54 9.5t-11 25.5q0 33 41 33q119 0 250.5 76.5t208.5 159.5t77 118q0 8 -8 8t-74.5 -24.5t-132.5 -24.5q-168 0 -286.5 101.5 t-118.5 314.5zM211 442.5q0 -151.5 86 -275.5t248 -124q78 0 132 31.5t80.5 86t38 110t11.5 118.5q0 174 -95.5 302t-207.5 128q-127 0 -210 -112.5t-83 -264z"/>
<glyph unicode=":" horiz-adv-x="610" d="M143 102q0 10 22.5 35t35.5 33q14 10 35.5 30.5t35 29t27.5 8.5q8 0 15.5 -7.5t22.5 -28t25 -32.5q37 -41 37 -53q0 -27 -61 -84l-24 -25l-26 -28q-9 -10 -16 -9q-20 0 -63 52q-10 12 -27.5 29.5t-28 29.5t-10.5 20zM213 754q0 16 61.5 70.5t77.5 54.5q14 0 59.5 -52.5 t45.5 -60.5q0 -27 -62.5 -79t-79.5 -52q-6 0 -15 9t-20.5 24.5t-17.5 21.5q-49 50 -49 64z"/>
<glyph unicode=";" horiz-adv-x="610" d="M135 -313q0 12 11.5 24.5t30 27.5t24.5 21q78 86 78 187q0 47 -29 79.5t-56.5 52t-27.5 36.5q0 10 46 68.5t71 58.5q39 0 77.5 -61.5t38.5 -180.5q0 -102 -91 -221t-144 -119q-29 0 -29 27zM205 754q0 8 65.5 68.5t71.5 60.5q14 0 61.5 -59.5t47.5 -67.5q0 -25 -61.5 -79 t-78.5 -54q-6 0 -16 11t-22.5 27.5t-18.5 22.5q-49 50 -49 70z"/>
<glyph unicode="&lt;" horiz-adv-x="1040" d="M63 432q0 12 1.5 17.5t8.5 11.5t21 12l740 271q98 36 104 36q39 0 39 -51q0 -25 -33 -33l-625 -227q-86 -31 -86 -43q0 -6 86 -37l635 -229q23 -8 23 -27q0 -16 -11.5 -32.5t-35.5 -16.5q-8 0 -838 301q-20 8 -24.5 16t-4.5 31z"/>
<glyph unicode="=" horiz-adv-x="1040" d="M43 233q0 16 2 23.5t10 13.5t27 6h881q16 0 23 -5t8 -12t1 -26q0 -29 -6 -39t-37 -10h-872q-25 0 -31 10t-6 39zM43 635q0 16 2 23.5t10 12.5t27 5h881q16 0 23 -5t8 -12.5t1 -25.5q0 -29 -6 -38t-37 -9h-872q-25 0 -31 10t-6 39z"/>
<glyph unicode="&gt;" horiz-adv-x="1040" d="M63 133q0 18 23 27l635 229q86 31 86 37q0 12 -86 43l-627 227q-31 8 -31 33q0 51 37 51q6 0 104 -36l740 -271q33 -12 33 -41q0 -23 -5 -31t-26 -16q-829 -301 -835 -301q-25 0 -36.5 16.5t-11.5 32.5z"/>
<glyph unicode="?" horiz-adv-x="845" d="M207 102q0 6 6 15.5t17 18.5q10 10 19 16l19 13l11 7q16 12 32.5 29.5t26.5 24.5t24 7q4 0 9.5 -2t11.5 -9l11 -13q5 -6 14.5 -18.5t17.5 -20.5q45 -49 45 -64q0 -10 -8 -19q-9 -9 -31 -29l-29 -25q-61 -61 -67 -61.5t-13.5 2.5t-14.5 9.5t-11 11.5l-13 17q-10 12 -14 15 q-10 12 -27.5 28.5t-26.5 27.5t-9 19zM297 1245q0 29 65.5 75t141.5 46q98 0 178 -68.5t80 -175.5q0 -35 -9.5 -67.5t-26.5 -61t-30.5 -47t-33 -41t-23.5 -26.5l-46 -57l-43 -54l-37 -46q-24 -30 -33 -45t-25.5 -40t-23.5 -41t-14 -35.5t-10.5 -38t-3.5 -37.5 q0 -12 3.5 -35.5t3.5 -31.5q0 -20 -21 -21q-49 0 -49 133q0 74 66 193l134 229q68 110 68 164q0 63 -53 109.5t-111 46.5q-39 0 -78.5 -19.5t-52.5 -19.5q-16 0 -16 12z"/>
<glyph unicode="@" horiz-adv-x="1681" d="M90 586q0 197 66.5 352.5t164 244.5t220.5 147.5t222 77.5t185 19q285 0 464 -181t179 -443q0 -223 -140 -381t-327 -158q-66 0 -104.5 25.5t-46.5 56.5t-12.5 56.5t-8.5 25.5t-31.5 -31.5t-64.5 -68.5t-97.5 -69t-123.5 -32q-96 0 -143.5 54.5t-47.5 144.5 q0 117 64.5 250t177.5 228t232 95q39 0 91 -9t56 -9q14 0 38.5 41t47.5 41q16 0 16 -39q0 -8 -24.5 -107.5t-50 -222.5t-25.5 -190v-27q0 -121 84 -121q156 0 256 118t100 339q0 252 -159.5 394.5t-397.5 142.5q-309 0 -523 -206t-214 -536q0 -291 181 -477t472 -186 q129 0 233.5 33.5t158 66.5t55.5 33q23 0 22 -25q0 -12 -22.5 -33.5t-67.5 -47t-103.5 -49t-141 -39t-171.5 -15.5q-328 0 -533.5 190.5t-205.5 526.5zM582 465q0 -61 35.5 -92t91.5 -31q57 0 112.5 35t73.5 63q27 39 51 135q82 309 82 318q0 12 -45 26.5t-82 14.5 q-100 0 -209.5 -132t-109.5 -337z"/>
<glyph unicode="A" horiz-adv-x="1579" d="M41 18q0 27 51 43q20 8 32.5 15.5t28 20t31.5 37.5l34 56q20 31 50 88l68 124l94 170l122 222l160 284l199 352q16 29 23.5 34.5t24 5.5t23.5 -14t30 -94l61 -215q47 -158 169 -531l134 -407q35 -90 53.5 -111.5t77.5 -40.5q33 -10 33 -41q0 -20 -63 -20q-23 0 -63 3 t-71 3q-37 0 -94 -5t-96 -5q-55 0 -55 22q0 18 21.5 30.5t46 17t46 22.5t21.5 49q0 35 -16.5 99.5t-39 138t-28.5 98.5q-10 46 -44 55q-14 4 -32 4q-10 0 -90 -1t-158 -1q-156 0 -207 3t-67 3q-55 0 -72 -30q-57 -100 -100 -187.5t-58.5 -127.5t-15.5 -46q0 -51 35 -68.5 t69.5 -22.5t34.5 -25q0 -10 -2 -17.5t-7 -9.5t-8 -2h-13q-43 0 -82 1t-60.5 2t-35.5 1q-18 0 -65.5 -2t-88.5 -2.5t-41 22.5zM555 639q0 -16 68 -16h35q26 0 121 1t270 1q16 0 23 5t8 10t1 15q0 25 -89 295.5t-107 270.5q-10 0 -170 -287t-160 -295z"/>
<glyph unicode="B" horiz-adv-x="1253" d="M41 18q0 33 29 33q23 0 41 6t31 23l22 26q8 9 14 36.5t8 35.5t7 40l4 32q25 160 67.5 572.5t42.5 459.5q0 51 -51 88q-16 12 -41 17.5t-43 6.5t-31.5 8t-13.5 23q0 10 9 17.5t18 7.5q6 0 55 -4t84 -4q41 0 123 1t96 1q45 0 121 1t108 1q182 0 299 -80t117 -246 q0 -68 -29.5 -129t-71.5 -101t-85 -68.5t-73 -45t-30 -18.5q0 -4 31 -13.5t74 -28t86 -50t73.5 -93t30.5 -145.5q0 -68 -31.5 -143.5t-108.5 -150.5t-183 -109q-98 -31 -262 -31q-72 0 -167.5 3t-109.5 3q-18 0 -95 -6t-122 -6h-3q-40 0 -40 30zM336 154q0 -49 51 -73 t199 -24q201 0 302 113t101 229q0 129 -83 222.5t-255 107.5q-143 10 -168 10h-59q-18 0 -44 -214q-7 -70 -13 -113l-17 -138q-2 -23 -6 -52t-6 -45.5t-2 -22.5zM426 827q0 -27 43 -31.5t231 -4.5q80 0 141.5 32.5t92.5 81.5t46 96.5t15 88.5q0 119 -90 194 q-53 45 -117.5 65.5t-193.5 20.5q-59 0 -79.5 -16.5t-29.5 -69.5l-24 -168q-35 -228 -35 -289z"/>
<glyph unicode="C" horiz-adv-x="1560" d="M80 639q0 152 49 294t144.5 261t251 189.5t352.5 70.5q125 0 243.5 -39t185.5 -78l66 -39q6 0 21.5 16.5t23.5 16.5q25 0 25 -33q0 -88 3 -149.5t6 -83t6 -39.5t3 -33q0 -49 -28 -49q-14 0 -24.5 16.5t-26 60.5t-23.5 64q-25 63 -52.5 97.5t-76.5 66.5q-186 127 -385 127 q-184 0 -322.5 -103.5t-203 -258t-64.5 -330.5q0 -301 166 -478t395 -177q256 0 442 211q25 27 45.5 70.5t35 69.5t32.5 26q33 0 33 -37q0 -14 -5 -35t-15.5 -49.5t-14.5 -42.5q-8 -29 -15 -64t-12.5 -48t-19.5 -21q-297 -156 -547 -156q-172 0 -308 57.5t-219 154.5 t-125 218t-42 256z"/>
<glyph unicode="D" horiz-adv-x="1570" d="M41 27q0 16 16.5 23t38 10t46 24.5t38.5 65.5q10 39 19 88l139 1024q4 33 4 36q0 31 -28.5 56.5t-63.5 27.5q-94 6 -94 45q0 37 63 37q35 0 95.5 -11t111.5 -11t142 10t177 10q389 0 572.5 -162.5t183.5 -414.5q0 -258 -160 -504q-45 -72 -130 -153t-138 -111 q-193 -117 -463 -117q-53 0 -137 3t-180 3q-72 0 -134.5 -8t-72.5 -8q-18 0 -31.5 11.5t-13.5 25.5zM352 145q0 -37 20.5 -56t78.5 -19h180q90 0 212 43t206 118q82 76 140 175.5t81.5 195.5t33 161.5t9.5 119.5q0 66 -14.5 128t-55.5 130.5t-104.5 119t-171 83t-244.5 32.5 q-127 0 -164 -16.5t-59 -95.5q-8 -35 -45 -314l-70 -540q-33 -261 -33 -265z"/>
<glyph unicode="E" horiz-adv-x="1292" d="M41 29q0 27 45 28q47 2 72.5 33t36 68t26.5 140q4 23 6 36q0 6 16.5 106.5t24.5 165.5l74 621q2 18 2 43q0 57 -24.5 84.5t-53 29.5t-53.5 9.5t-25 25.5q0 31 48 31q18 0 84.5 -1t182 -2t251.5 -1q43 0 243.5 4t229.5 4q37 0 37 -39q0 -10 -4.5 -46t-4.5 -62 q0 -14 3.5 -51t3.5 -60q0 -57 -27 -57q-18 0 -24.5 14t-6.5 34.5t-8 51.5t-31 55q-8 10 -28.5 22.5t-71.5 28t-115 15.5q-78 0 -166 3t-149 3q-90 0 -109.5 -20.5t-36.5 -118.5q-51 -358 -51 -416q0 -20 13.5 -24.5t74.5 -4.5q266 0 329 8.5t89 40.5q20 25 32.5 53.5 t18.5 41t19 12.5q25 0 24 -23q0 -18 -17 -95t-24 -118q-4 -23 -4 -80t-7 -89.5t-25 -32.5q-23 0 -23 32q0 98 -35 123q-59 43 -219 43h-99q-38 0 -47.5 1t-15.5 1h-12q-78 0 -80 -34q-6 -61 -26 -184l-34 -216q-14 -94 -14 -108q0 -49 49.5 -62.5t208.5 -13.5 q174 0 296 31.5t166 69.5t74 70t42 32q20 0 20 -29q0 -55 -86 -163.5t-151 -108.5q-147 0 -367.5 11t-265.5 11q-57 0 -118.5 -3t-110.5 -3q-72 0 -72 29z"/>
<glyph unicode="F" horiz-adv-x="1198" d="M41 16q0 12 12.5 22.5t30.5 12.5q37 4 62.5 27.5t42 80t24.5 100.5t21 135q6 38 8 59q27 180 51 377l37 312q14 115 14 128q0 57 -29.5 84.5t-64.5 28.5t-64.5 8.5t-29.5 31.5q0 33 47 33q18 0 93 -3t198.5 -5t259.5 -2q43 0 191.5 2t176.5 2q37 0 37 -35v-108 q0 -14 5 -51t5 -60q0 -55 -24 -55q-16 0 -22.5 14t-8.5 34.5t-17.5 53.5t-43.5 62q-49 53 -199 59q-115 6 -152 6h-69q-84 0 -104.5 -19.5t-33.5 -99.5l-3 -24q-51 -358 -52 -408q0 -23 14.5 -30t71.5 -7h125q152 0 193 4q43 4 69.5 26t32.5 45.5t17.5 42t27.5 18.5 q20 0 21 -21q0 -23 -19.5 -119t-19.5 -182q0 -106 -27 -107q-33 0 -33 43v23q0 37 -4 58.5t-23.5 39t-42 24.5t-77.5 12t-110.5 6t-159.5 1q-72 0 -74 -45q-6 -59 -22 -173l-26 -197q-12 -84 -12 -99q0 -57 35 -86.5t76 -32t76 -11.5t35 -32q0 -25 -31 -24q-6 0 -73.5 5 t-137.5 5q-49 0 -109.5 -4t-100.5 -8l-40 -4h-4q-47 0 -47 26z"/>
<glyph unicode="G" horiz-adv-x="1583" d="M80 735q0 76 22.5 165t71.5 191.5t148.5 191.5t234.5 136q137 47 266 47q90 0 177 -15t146.5 -37.5t105.5 -45t73 -38t31 -15.5q6 0 28.5 20.5t30.5 20.5q27 0 27 -37q0 -8 -2 -43t-2 -64q0 -41 7 -102t7 -70q0 -47 -35 -47q-16 0 -24.5 19.5t-22.5 61.5t-39 77 q-78 117 -226.5 178.5t-313.5 61.5q-72 0 -139.5 -15.5t-142.5 -60.5t-129 -116t-90 -191.5t-36 -276.5q0 -285 158.5 -482.5t414.5 -197.5q94 0 158 14.5t123 58.5t89 137t30 237v12q0 106 -17.5 134t-95.5 28h-18q-59 0 -60 37q0 26 63 26h5q27 0 94.5 -3t93.5 -3 q41 0 82 2t64.5 4t25.5 2q39 0 39 -24q0 -14 -14 -22.5t-32.5 -11.5t-36 -20.5t-23.5 -50.5q-45 -281 -45 -393v-63q0 -29 -3 -38.5t-7.5 -13.5t-29 -10t-46.5 -14q-4 -2 -33 -13.5t-52.5 -19.5t-66.5 -21.5t-84 -21.5t-96 -14t-109 -6q-362 0 -553.5 206.5t-191.5 548.5z "/>
<glyph unicode="H" horiz-adv-x="1609" d="M41 23q0 14 10 21t24.5 8t37 11.5t41.5 28.5q8 8 13 17.5t10 26t9 31.5t9.5 45t8.5 56.5t9 73.5t10 88t12.5 109.5t14.5 128.5l34 272l30 242q10 84 10 86q0 53 -35 78.5t-87 31.5t-55 8q-16 6 -16 25q0 31 55 31q23 0 84.5 -7.5t126.5 -7.5q49 0 113.5 7.5t79.5 7.5 q37 0 37 -31q0 -14 -19.5 -19.5t-47.5 -12.5t-40 -21q-23 -27 -34 -76t-26.5 -171t-31.5 -214q-8 -51 -8 -80q0 -16 5 -20t19 -4q25 0 76 -1t211 -2.5t395 -3.5h41q35 0 45.5 14.5t16.5 69.5q2 16 12 110l19 172q8 77 8 87q0 98 -82 133q-10 4 -40 7t-50.5 10.5t-20.5 21.5 q0 27 55 27q20 0 88 -3t132 -3q49 0 105 4t71 4q45 0 45 -31q0 -16 -41 -25.5t-55 -27.5q-43 -51 -62 -240q-25 -229 -53 -447l-43 -325q-14 -108 -14 -139q0 -23 2 -43.5t5 -34.5t10 -25.5t11 -19.5t15.5 -13.5t15.5 -8.5t17.5 -6t16.5 -3t17 -1t17 -1q67 -4 67 -36 q0 -25 -34 -25h-3q-39 0 -102.5 9t-106.5 9q-59 0 -114.5 -8t-69.5 -8q-66 0 -66 26.5t39 30.5q23 2 41.5 14.5t28.5 22.5t17.5 36.5t9.5 35t6 41.5l4 32q57 408 57 443q0 23 -11 28t-58 5q-12 0 -80 -1.5t-125 -1.5h-481q-35 0 -40.5 -6t-9.5 -45l-14 -106 q-43 -297 -43 -342q0 -35 6 -59.5t12.5 -39t22.5 -25.5t22.5 -13.5t29 -8.5t24.5 -6q6 -2 14 -3t12 -3t11.5 -3t10.5 -3t7 -5t5 -7t1 -9q0 -18 -33 -18q-41 0 -100 2t-117 2q-23 0 -79 -5t-80 -5q-70 0 -70 29z"/>
<glyph unicode="I" horiz-adv-x="665" d="M41 23q0 14 12.5 20t27.5 7t35.5 11.5t35.5 30.5q27 39 30 70q4 39 42 328l69 531q31 243 31 247q0 53 -35 78.5t-87 31.5t-55 8q-16 6 -16 25q0 31 55 31q23 0 84.5 -8.5t126.5 -8.5q49 0 113.5 6.5t79.5 6.5q37 0 37 -29q0 -14 -19.5 -19.5t-47.5 -12.5t-40 -21 q-41 -47 -59 -240q-25 -231 -55 -448l-48 -327q-16 -110 -16 -138q0 -45 6 -76t21.5 -45t24.5 -20.5t34 -10.5t31 -6q8 -2 18 -4t17.5 -3t13.5 -3t9 -6t3 -11q0 -14 -6 -20t-12 -7t-25 -1q-6 0 -82 6t-125 6q-31 0 -84 -6t-73 -6q-72 0 -72 33z"/>
<glyph unicode="J" horiz-adv-x="829" d="M-20 -80q0 23 23.5 90.5t51.5 67.5q16 0 29.5 -29t38 -56.5t67.5 -27.5q80 0 124 146.5t73 392.5l86 733q0 10 3 27.5t3 23.5q0 80 -139 92q-51 4 -51 37t53 33q25 0 78 -9t123 -9q68 0 131 8t67 8q47 0 47 -25q0 -20 -12 -25t-30.5 -7t-39 -11.5t-40 -48.5t-31.5 -108 q-4 -29 -38 -320t-67 -504q-20 -141 -75 -264q-53 -121 -164 -198.5t-205 -77.5q-47 0 -76.5 17t-29.5 44z"/>
<glyph unicode="K" horiz-adv-x="1585" d="M41 27q0 18 18.5 24t43 9t52 33t42.5 87q23 88 78 564.5t55 525.5t-40 81.5t-100 37.5q-37 2 -36 34q0 25 36 25l11 -1l29 -3q20 -2 45.5 -4t65.5 -3t85 -1q51 0 105.5 4t66.5 4q39 0 39 -21q0 -10 -7 -15t-26.5 -11t-34.5 -15q-61 -37 -77.5 -108.5t-53.5 -425.5 q-2 -14 -4 -30.5t-3 -26t-1 -15.5q0 -18 14 -18q16 0 242 167l391 296q109 86 109 122q0 29 -49.5 43.5t-49.5 34.5q0 25 56 25q4 0 80.5 -6t107.5 -6q41 0 99.5 6t70.5 6q43 0 43 -33t-26 -39q-10 -4 -38 -8t-53.5 -12t-93 -48t-164.5 -110l-442 -317q-10 -8 -29.5 -20.5 t-31.5 -22.5l-26 -19q-13 -10 -20.5 -19.5t-7.5 -17.5t19 -26l252 -283l181 -208q48 -54 115.5 -114.5t114.5 -76t119 -19.5q47 -4 47 -28q0 -29 -35 -29q-8 0 -88 4t-114 4h-67q-26 0 -37 -1t-13 -1q-20 0 -51 34t-180 211l-213 255q-151 177 -165 186q-7 5 -20 4 q-20 0 -39 -18l-5 -4q-5 -4 -6 -6t-5 -6.5t-6 -8.5t-5 -12t-5.5 -16.5t-4.5 -21.5t-4 -28.5t-4 -35.5q-33 -295 -33 -304q0 -111 21.5 -136t107.5 -38q63 -6 64 -30q0 -27 -47 -27q-61 0 -102.5 3t-69.5 3q-61 0 -142 -5t-92 -5q-59 0 -59 31z"/>
<glyph unicode="L" horiz-adv-x="1206" d="M51 20q0 18 14.5 24.5t43 15t51.5 26.5q12 10 18 18.5t12.5 19.5t10.5 34.5t8 50.5t10 81t14.5 112.5t21.5 159.5l28 210q59 424 59 522q0 109 -125 113q-25 0 -42 12.5t-17 28.5q0 25 32 25q4 0 31 -4.5t80 -8.5t123 -4q63 0 120.5 4t65.5 4q43 0 43 -26 q0 -16 -20.5 -24.5t-46 -14.5t-50 -35t-32.5 -80q-145 -1055 -146 -1094q0 -70 38 -91t186 -21q137 0 240.5 15.5t157.5 38t91 48t50.5 48t25.5 38t24 15.5q25 0 25 -31q0 -43 -46 -120t-69 -97q-55 -49 -125 -49h-96q-96 0 -272 11t-232 11q-57 0 -133 -6t-125 -6 q-47 -1 -47 26z"/>
<glyph unicode="M" horiz-adv-x="1865" d="M41 20v8q0 3 1 6t3 4t5 3l6 4q3 2 10.5 5t13.5 5t18 7l21 8q49 18 71.5 84.5t52.5 236.5q9 46 13 70l36 176q34 166 50 268.5t16 157.5q0 14 -1 43t-1 45q0 104 -61 190q-25 33 -51.5 42.5t-73.5 9.5h-31q-31 0 -30 30q0 35 145 35h12q29 0 72 1t59 1q33 0 55.5 -43 t104.5 -248q78 -193 176 -413l165 -358q67 -140 75 -140q18 0 330 627l61 119q59 116 88 178q25 49 47.5 102t32.5 79t22.5 49.5t22.5 30.5t25 7h61q20 0 65.5 4t47.5 4q49 0 49 -28q0 -8 -10.5 -18.5t-18.5 -12.5t-31.5 -5t-31 -6.5t-22.5 -16.5t-22.5 -37.5t-17.5 -68.5 t-16 -110q-10 -94 -10 -225v-160q0 -59 -2.5 -158.5t-2.5 -132.5q0 -14 -1 -26.5t-1 -24.5t-1 -66.5t-1 -144.5q0 -86 22.5 -121t80.5 -45q22 -3 49 -6q31 -4 31 -25q0 -28 -54 -28h-4q-20 0 -92 5t-121 5q-27 0 -79 -5t-91 -5q-43 0 -43 24q0 14 16.5 23.5t38 13.5t46 24.5 t34.5 57.5q31 102 31 664q0 236 -12 235q-20 0 -80 -114l-299 -580l-117 -236q-34 -72 -44.5 -85t-28.5 -13q-14 0 -77 138l-337 757q-35 82 -42 95.5t-15 13.5q-6 0 -16.5 -35t-12.5 -55q-16 -141 -71.5 -426t-55.5 -349q0 -70 88 -86q8 -2 26.5 -4t25.5 -4t18.5 -6 t15.5 -10t4 -15q0 -25 -43 -24q-39 0 -110.5 3t-79.5 3q-4 0 -50.5 -3t-99.5 -3q-47 -1 -47 24z"/>
<glyph unicode="N" horiz-adv-x="1646" d="M41 12q0 10 8 16.5t19.5 9.5t29 9t29.5 19q16 14 29.5 30.5t23.5 44t16.5 49t15.5 71.5t14 85t17.5 115t20.5 137q4 29 21.5 132.5t27 164.5t18.5 143t9 131q0 27 -4 49.5t-8 35t-18.5 29.5t-18.5 22.5t-25.5 25t-25.5 23.5q-25 23 -72 25.5t-79 6t-32 29.5q0 39 138 39 q12 0 41.5 -3t44.5 -3q4 0 28.5 1t32.5 1q10 0 17.5 -1t14.5 -4t10 -5t11 -11.5l13 -15.5l15 -21l19 -28q485 -672 716 -1038q41 -65 52 -66q39 0 99.5 468t60.5 534q0 57 -25.5 87.5t-57.5 36t-57.5 16.5t-25.5 36q0 20 51 20q8 0 66.5 -4t89.5 -4q49 0 89 4t54 4 q33 0 43.5 -6t10.5 -22q0 -6 -3 -10.5t-11.5 -7.5t-14.5 -4t-16.5 -4t-16.5 -5q-55 -16 -79.5 -88t-41.5 -209q-86 -723 -159 -1059q-2 -16 -14.5 -35.5t-28.5 -19.5q-14 0 -30.5 18.5t-47.5 67.5l-69 112l-110 176l-157 232l-126 180l-92 130l-59 81q-26 37 -38.5 56.5 t-18.5 31.5q-12 25 -33 25q-29 0 -39 -97q-23 -227 -65.5 -490t-42.5 -349q0 -80 80 -105l23 -6l24 -6q8 -2 18.5 -6t14.5 -10t4 -15q0 -25 -35 -24q-10 0 -53 3t-152 3q-41 0 -83 -3t-50 -3q-45 -1 -45 22z"/>
<glyph unicode="O" horiz-adv-x="1669" d="M80 643q0 152 54 297t154.5 264t257 190.5t343.5 71.5q174 0 312 -58t220 -156.5t125 -221.5t43 -260q0 -145 -48 -285.5t-141 -260.5t-247 -192.5t-346 -72.5q-328 0 -527.5 188.5t-199.5 495.5zM256 711q0 -315 168 -496.5t397 -181.5q178 0 316.5 112.5t205 279.5 t66.5 353q0 180 -43 289q-59 154 -189 246t-317 92q-145 0 -264 -66.5t-190.5 -171t-110.5 -223t-39 -233.5z"/>
<glyph unicode="P" horiz-adv-x="1179" d="M39 20q0 23 43 32q6 2 8 1q66 12 88 107q6 33 55 438q78 606 78 705q0 106 -141 110q-37 0 -37 29q0 25 47 24q37 0 172 -6t150 -6q47 0 116.5 7t104.5 7q172 0 274.5 -87t102.5 -253q0 -131 -69.5 -248.5t-190.5 -168.5q-80 -33 -217 -33q-57 0 -99.5 9t-42.5 24 q0 4 6 4q2 0 15.5 -1t39.5 -1h58q117 0 227.5 108.5t110.5 284.5q0 68 -26.5 121t-52 75.5t-66.5 49.5q-78 49 -191 49q-41 0 -53 -2q-16 0 -22.5 -2t-15.5 -10.5t-15.5 -27t-14.5 -52.5q-10 -43 -35 -224l-20 -161l-32 -272l-40 -322q0 -10 -11 -80t-11 -82q0 -55 47 -83 t94 -38t47 -25q0 -30 -37 -30h-2q-14 0 -81.5 7t-129.5 7q-14 0 -85.5 -6t-80.5 -6h-4q-61 0 -61 28z"/>
<glyph unicode="Q" horiz-adv-x="1652" d="M80 -82q0 76 25.5 130t55 74.5t55.5 35t26 22.5q0 10 -26 45t-55.5 79t-55 128t-25.5 182q0 96 21.5 200t80 223.5t147.5 212.5t239.5 155.5t338.5 62.5q39 0 77 -3t68.5 -9t60.5 -14t51.5 -16.5t45 -19.5t37 -19.5t30.5 -20.5l25 -18q7 -5 17 -15t12 -10 q70 -57 107 -104q145 -197 145 -467q0 -301 -185.5 -521.5t-434.5 -250.5q-51 -6 -76 -12.5t-30 -11.5t-5 -13q0 -6 95 -58.5t226.5 -106.5t202.5 -54q57 0 97 25.5t59.5 50t30.5 24.5q16 0 16 -21q0 -57 -83 -135t-173 -78q-117 0 -286 76t-306 167t-263 167t-169 76 q-63 0 -110.5 -57.5t-47.5 -124.5q0 -61 23.5 -111.5t23.5 -54.5q0 -27 -24 -27q-84 0 -84 217zM254 668q0 -266 146.5 -452.5t426.5 -186.5q141 0 255 69.5t182.5 183t105.5 245.5t37 270q0 209 -78 342q-59 104 -182 187t-277 83q-258 0 -437 -198.5t-179 -542.5z"/>
<glyph unicode="R" horiz-adv-x="1304" d="M41 18q0 20 13.5 28.5t43 17t49.5 18.5q29 16 38.5 62t37.5 299q26 247 49 434q6 51 20 151l22 169q10 69 10 81q0 100 -127 111q-66 4 -66 24q0 23 13.5 30t48.5 7q20 0 79.5 -6t85.5 -6q51 0 150.5 8t187.5 8q94 0 138 -4q139 -12 221 -100t82 -209q0 -119 -83 -224.5 t-243 -160.5q-18 -6 -18 -23q0 -35 105.5 -273.5t158.5 -307.5q72 -98 168 -99q39 0 39 -22q0 -47 -144 -47q-121 0 -168 37.5t-108 175.5q-55 123 -109.5 269t-79 198.5t-49.5 52.5q-6 0 -47 -1t-47 -1q-16 0 -38.5 1t-33.5 1q-23 0 -33 -35t-20 -145l-29 -289q0 -6 -3 -37 t-3 -35q0 -47 29 -74.5t62.5 -35t62.5 -17.5t29 -29q0 -26 -65 -26h-5q-33 0 -90.5 6t-63.5 6q-59 0 -136 -9t-79 -9h-3q-52 0 -52 30zM426 844q0 -53 63 -53h29q182 0 246 14q70 16 117 77.5t62 122t15 113.5q0 106 -76.5 186t-215.5 80q-92 0 -137.5 -24.5t-51.5 -102.5 q-6 -90 -19 -187l-23 -156q-9 -60 -9 -70z"/>
<glyph unicode="S" horiz-adv-x="985" d="M41 274q0 47 33 48q14 0 22 -23q33 -106 124 -180t239 -74q86 0 148.5 24.5t91 63.5t40 73t11.5 66q0 70 -35 129.5t-111 135.5l-239 237q-195 199 -195 363q0 80 22.5 137t47 82.5t65.5 52.5q82 57 209 57q72 0 181.5 -35.5t117.5 -35.5q2 0 27.5 16t36.5 16 q27 0 26 -43q0 -10 -1 -33.5t-1 -37.5v-35q0 -31 12.5 -98.5t12.5 -77.5q0 -18 -11.5 -29.5t-21.5 -11.5q-18 0 -28.5 19.5t-16.5 49t-34 76.5t-73 92q-100 98 -243 99q-57 0 -98.5 -18.5t-58.5 -50.5t-24.5 -58.5t-7.5 -55.5q0 -72 40 -142.5t85 -117.5t135 -131t138 -133 q68 -70 99.5 -109.5t59 -108.5t27.5 -148q0 -51 -21.5 -106.5t-71.5 -114t-150.5 -95.5t-237.5 -37q-217 0 -295 45q-29 16 -52.5 108.5t-23.5 149.5z"/>
<glyph unicode="T" horiz-adv-x="1417" d="M59 1174q0 27 7 46l26 63q17 44 33 110q8 33 27.5 43t66.5 10q33 0 148.5 -3t380.5 -3q154 0 280.5 2t200.5 4t94 2q27 0 40 -7t15 -14.5t2 -19.5q0 -70 4.5 -143.5t4.5 -83.5q0 -47 -39 -47q-10 0 -14.5 2t-7.5 12t-5 21.5t-10 39t-19 56.5q-16 47 -64 57t-241 10h-92 q-49 0 -59.5 -20.5t-20.5 -125.5q-4 -51 -8 -83q-18 -186 -47 -406l-46 -347q-16 -128 -16 -173q0 -57 28 -83.5t60.5 -29t60.5 -9.5t28 -27q0 -31 -52 -31q-14 0 -91 6t-128 6q-37 0 -99.5 -5t-76.5 -5q-65 0 -65 28q0 7 1 12t5 9t7 6t10 3t11 2t14.5 2t14.5 1q59 8 84 45 q14 23 23 84q141 1059 141 1117q0 23 -26.5 27.5t-119.5 4.5q-197 0 -256 -14t-96 -55q-20 -25 -33.5 -53.5t-17.5 -46t-13.5 -30t-27.5 -12.5q-27 1 -27 46z"/>
<glyph unicode="U" horiz-adv-x="1693" d="M90 1421q0 29 35 29l72 -6q72 -6 161 -6q18 0 78 6t107 6q41 0 41 -29q0 -18 -21.5 -27.5t-47.5 -13.5t-50.5 -32.5t-28.5 -79.5q-10 -106 -33.5 -304t-37 -337.5t-13.5 -233.5q0 -53 14.5 -103t52.5 -108.5t120 -94.5t200 -36q397 0 531 326q45 115 97 448.5t52 438.5 q0 63 -44 87.5t-89 33t-45 32.5q0 27 49 27q10 0 51 -4t62 -4q49 0 124 4t89 4t25.5 -8.5t11.5 -18.5q0 -14 -24.5 -21t-58.5 -30t-48 -74q-4 -14 -30 -210.5t-66 -422t-80 -323.5q-45 -109 -108.5 -171.5t-182.5 -133.5q-49 -29 -148.5 -49.5t-161.5 -20.5 q-178 0 -282.5 35t-173.5 106q-61 61 -78.5 133t-17.5 205q0 29 37.5 422t37.5 420q0 49 -27.5 73.5t-61.5 26.5t-61.5 10.5t-27.5 28.5z"/>
<glyph unicode="V" horiz-adv-x="1597" d="M41 1413q0 31 74 31q20 0 76.5 -4t87.5 -4q20 0 78.5 4t80.5 4q74 0 74 -27q0 -20 -27.5 -25.5t-55.5 -29t-28 -88.5q0 -45 142.5 -550t165.5 -505q18 0 293.5 513t275.5 575q0 33 -25.5 50t-55.5 20t-55.5 13.5t-25.5 28.5q0 16 7 22.5t34 6.5q10 0 98 -5t127 -5 q10 0 35 2t70 2q69 0 69 -22q0 -17 -8 -23t-20 -7t-33.5 -9.5t-42.5 -24.5q-41 -35 -102.5 -146.5t-146.5 -282.5t-146 -274l-91 -157l-101 -172l-89 -151q-47 -79 -82 -131t-55 -75q-10 -10 -23 -10q-27 0 -52 95q-5 17 -7 28l-281 1016q-20 78 -31.5 111.5t-37 78.5 t-57.5 66q-18 10 -40 15t-36.5 6t-23.5 10.5t-9 29.5z"/>
<glyph unicode="W" horiz-adv-x="2156" d="M41 1434q0 20 41 20q6 0 69.5 -7t118.5 -7q20 0 80 4t82 4q57 0 57 -25q0 -12 -11 -17t-27.5 -6t-36 -7.5t-31.5 -18.5q-20 -20 -21 -88q0 -47 132.5 -561t154.5 -514q4 0 73 107.5t135.5 225.5t66.5 138q0 27 -11 68l-88 348q-4 12 -14 54t-14 57.5t-14.5 48t-19.5 48 t-24.5 35t-31.5 29.5q-20 14 -49 22.5t-42.5 15.5t-13.5 22q0 20 60 20q20 0 73 -5t84 -5q20 0 79.5 4t82.5 4q63 0 63 -25q0 -18 -17 -23t-38.5 -6t-39 -20.5t-17.5 -62.5q0 -18 92 -363q12 -55 20 -55q23 0 116 196.5t93 221.5q0 45 -34.5 63.5t-68.5 27.5t-34 28 q0 20 53 20q10 0 65.5 -3t94.5 -3q10 0 48 3t83 3q61 0 62 -29q0 -16 -8.5 -21t-19.5 -5t-32.5 -7.5t-42.5 -23.5l-23 -22q-12 -13 -26 -36l-24 -36l-28 -48l-26 -46l-30 -56q-21 -41 -27 -51l-43 -77l-34 -62q-13 -25 -26.5 -47.5t-20.5 -35.5l-14 -25l-10.5 -20 t-5.5 -12.5t-3 -10.5t-1 -9v-10q0 -37 78 -295t92 -258q16 0 296 525t280 585q0 37 -23.5 54.5t-52.5 19.5t-52.5 10t-23.5 26q0 27 43 27q10 0 84 -4t113 -4q18 0 72.5 4t62.5 4q70 0 70 -31q0 -16 -11.5 -22t-27 -7t-40 -9.5t-44.5 -24.5q-41 -35 -102.5 -147.5 t-146.5 -284.5t-147 -275l-141 -247l-152 -270q-65 -111 -104 -167q-12 -20 -43 -20q-12 0 -19.5 5t-11.5 17.5t-7 25.5t-8 37.5t-11 45.5l-121 459q-10 41 -16 41q-4 0 -88 -142l-175 -294q-92 -152 -108 -173q-14 -14 -25 -14q-16 0 -26.5 21.5t-30.5 101.5l-137 553 q-129 522 -158 614t-66 114q-5 2 -8 5q-20 12 -49 22.5t-40 19t-11 26.5z"/>
<glyph unicode="X" horiz-adv-x="1509" d="M41 20q0 20 12.5 28.5t35 11.5t69.5 32t98 80q31 31 70 76l66 78l83 107l84 106q147 186 148 194q0 2 -13 34l-40 95l-48 115q-57 145 -123.5 246.5t-117.5 113.5q-49 16 -76 17q-76 0 -120 -53.5t-44 -118.5q0 -76 51 -107q6 -4 17.5 -7t18.5 -6t13 -13.5t6 -24.5 q0 -39 -55 -39t-91 69.5t-36 155.5q0 76 30 131.5t77 82t89 38t79 11.5q133 0 209.5 -70t156.5 -236q39 -80 68 -155l38 -104q11 -27 19 -27t39 41l133 178q147 195 148 246q0 27 -18.5 41t-42 17t-42 10t-18.5 22q0 31 35 30q45 0 88 -3t77 -3q41 0 97.5 3t72.5 3 q63 0 64 -36q0 -23 -29 -29q-76 -12 -132 -64.5t-243 -292.5l-174 -219q-18 -22 -18 -26q0 -25 87 -217.5t161 -321.5q35 -63 61.5 -97t77.5 -64.5t115 -30.5q35 0 65.5 15t48.5 15q20 0 21 -22q0 -39 -63.5 -64.5t-137.5 -25.5q-117 0 -181.5 24.5t-97 67.5t-75.5 139 l-135 313q-47 111 -58 111q-8 0 -59 -68l-190 -254q-106 -145 -107 -196q0 -57 123 -68q35 0 35 -30q0 -29 -58 -29q-20 0 -118.5 5t-104.5 5q-18 0 -79.5 -10t-84.5 -10h-3q-54 0 -54 34z"/>
<glyph unicode="Y" horiz-adv-x="1413" d="M41 1434q0 28 64 28h4q12 0 92 -4t98 -4q25 0 95.5 4t86.5 4q61 0 62 -30q0 -20 -51.5 -39t-51.5 -47q0 -84 90 -240q33 -61 77 -158l72 -154q28 -59 34 -59q4 0 98 127t188.5 278.5t94.5 198.5q0 29 -22.5 41.5t-50.5 11.5t-50.5 7t-22.5 31q0 28 50 28h3q10 0 50.5 -2 t58.5 -2q47 0 110.5 3t100.5 3q53 0 53 -30q0 -12 -22.5 -22.5t-56 -24t-52.5 -33.5q-47 -49 -223 -307.5t-209 -294.5q-41 -47 -58.5 -90.5t-29.5 -149.5q-33 -313 -33 -346q0 -41 45 -80q23 -18 51.5 -26.5t49 -9.5t35 -8t14.5 -22q0 -10 -2 -15t-10.5 -9t-26.5 -4 q-10 0 -102.5 7t-129.5 7q-53 0 -103 -8t-69 -8q-55 0 -55 26q0 12 8 20.5t16.5 11.5t27 6t26.5 5q29 8 41 36t20 91q55 377 56 436q0 12 -3.5 25.5t-12.5 37.5t-19 46.5t-35 68.5l-48 89l-64 124l-83 158q-102 201 -180 226q-6 2 -33.5 3t-45 9.5t-17.5 28.5z"/>
<glyph unicode="Z" horiz-adv-x="1202" d="M41 8q0 10 6 21.5t21.5 34t33.5 44.5l56 70l71 94q731 975 732 1022q0 8 -68 9q-12 0 -43 -1.5t-66 -1.5q-41 0 -122.5 10.5t-106.5 10.5q-119 0 -190 -16q-82 -18 -132.5 -72.5t-50.5 -112.5q0 -43 11.5 -67.5t25.5 -29.5t25.5 -14.5t11.5 -25.5q0 -33 -47 -33 q-51 0 -71.5 50.5t-20.5 99.5q0 59 30 137q20 53 109 137q63 61 130 75.5t189 14.5q119 0 258.5 -14t182.5 -14q16 0 49 6t51 6q16 0 24.5 -1t14.5 -8t6 -24q0 -25 -445.5 -629t-445.5 -624q0 -16 26 -19.5t124 -3.5h88q115 0 234.5 -6t148.5 -6q153 0 153 54 q0 15 -28.5 24.5t-57 28t-28.5 51.5q0 43 31.5 68.5t66.5 25.5q47 0 69.5 -36t22.5 -64q0 -133 -121 -232l-6 -5q-6 -5 -13 -10l-20 -14q-12 -8 -30.5 -14t-43 -12t-57 -9t-71.5 -3q-193 0 -314.5 6t-126.5 6q-47 0 -106 -5t-117 -5h-4q-49 0 -49 26z"/>
<glyph unicode="[" horiz-adv-x="544" d="M113 -367q0 10 3 35t3 39l12 125q16 147 72.5 632.5t79.5 702.5q10 90 17 169t10 122t5 53q2 33 22.5 42.5t78.5 9.5h82q45 0 72.5 1t39.5 1h13q27 0 26 -37q0 -47 -26 -47q-20 0 -94 -1t-83 -1h-30q-14 0 -26 -122l-21 -212l-55 -483l-72 -644q-30 -272 -29 -309 q0 -35 18 -35q20 0 93 1t79 1q41 0 41 -32q0 -41 -23.5 -51.5t-82.5 -10.5h-170q-33 0 -44 9t-11 42z"/>
<glyph unicode="\" horiz-adv-x="851" d="M41 1481q0 25 43 24q29 0 40 -7t19 -30l629 -1699l16 -43l17 -44q6 -16 6 -24q0 -33 -68 -33q-16 0 -25 11.5t-26 52.5l-622 1702q-29 74 -29 90z"/>
<glyph unicode="]" horiz-adv-x="544" d="M-104 -381q0 47 26 47h199h8q14 0 26 121q11 119 21 215l54 482l72 644q30 272 30 310q0 33 -19 32h-172q-41 0 -41 31q0 59 37 60q193 4 240 4q33 0 44 -10.5t11 -43.5q0 -10 -3 -33.5t-3 -37.5l-12 -125q-16 -147 -72.5 -632.5t-79.5 -702.5q-10 -90 -17 -169 t-10.5 -122t-5.5 -54q-2 -33 -23.5 -43t-76.5 -10h-82h-125q-26 0 -26 37z"/>
<glyph unicode="^" horiz-adv-x="681" d="M59 678q0 10 27 51l74 125q86 145 112.5 179t59.5 34q35 0 60.5 -34t108.5 -174l77 -130q23 -33 22 -55q0 -16 -37 -17h-31q-10 0 -18 3.5t-14 12.5t-10.5 15t-10.5 18.5t-8 18.5l-29 53l-23 46t-20.5 37.5t-17.5 31.5t-13.5 24.5t-12.5 18.5t-9 12t-7 8t-7 2t-9.5 -4 t-11.5 -13l-13 -21q-6 -12 -18 -32l-23 -42l-29 -56l-35 -65q-2 -4 -8.5 -15.5t-8.5 -15.5t-8 -13t-11 -12t-12.5 -6.5t-15.5 -3.5h-29q-41 1 -41 19z"/>
<glyph unicode="_" horiz-adv-x="436" d="M0 -78q0 16 2 23.5t10 13.5t27 6h364q16 0 23.5 -5t8.5 -12t1 -26q0 -29 -6 -39t-37 -10h-356q-25 0 -31 10t-6 39z"/>
<glyph unicode="`" horiz-adv-x="899" d="M268 1298q0 25 43 39.5t63.5 14.5t33.5 -37q33 -106 64.5 -179t43.5 -96.5t12 -31.5q0 -20 -20 -21q-23 0 -131.5 137t-108.5 174z"/>
<glyph unicode="a" horiz-adv-x="1060" d="M66 233q0 150 114 334q123 193 277 267q74 36 145 36h4q31 0 85 -11t89 -11q20 0 53 50t54 50q23 0 22 -30q0 -18 -17.5 -67.5t-23.5 -74.5q-2 -8 -47 -262q-37 -203 -37 -262q0 -43 20.5 -82t49.5 -39q37 0 85 66.5t65 66.5q18 0 18 -22q0 -37 -37 -88 q-43 -63 -101.5 -115.5t-97.5 -52.5q-57 0 -85.5 57t-33.5 114.5t-7.5 57.5t-24 -25.5t-57 -61.5t-79.5 -72t-101.5 -61.5t-112.5 -25.5q-131 0 -175 70.5t-44 193.5zM209 246q0 -74 46 -119t114 -45q94 0 164.5 64.5t97.5 119.5q23 43 48.5 164t40.5 215t15 103 q0 37 -45 54t-90 17q-66 0 -137.5 -45t-116.5 -121q-106 -176 -127 -297q-10 -61 -10 -110z"/>
<glyph unicode="b" horiz-adv-x="964" d="M90 145q0 45 8 115t18 124l28 143q16 89 22 128l45 283q31 197 47 281q31 147 31 208q0 25 -51 25q-16 0 -43 -2t-41.5 -2t-20.5 1t-12 7t-6 21q0 8 3 14t11 11t15.5 8t22.5 6l27 4q13 2 35.5 4t36.5 4q35 4 64 10l46 9q15 3 19 3q39 0 39 -37q0 -4 -65.5 -355 t-65.5 -439q0 -31 10 -31q6 0 49.5 47t125 95.5t186.5 48.5q109 0 167 -76t58 -185q0 -223 -167 -434t-392 -211q-100 0 -175 44t-75 128zM225 170q0 -139 158 -139q135 0 254 175t119 355q0 86 -58.5 147.5t-142.5 61.5q-35 0 -73 -10t-91 -58.5t-84 -130.5 q-27 -72 -47 -169t-27.5 -156.5t-7.5 -75.5z"/>
<glyph unicode="c" horiz-adv-x="856" d="M66 305q0 219 154.5 403.5t365.5 184.5q20 0 63 -11.5t92.5 -47t49.5 -89.5q0 -31 -20.5 -55t-47.5 -24q-29 0 -56.5 23.5t-48 50t-58.5 50t-87 23.5q-16 0 -56 -19.5t-77 -52.5q-20 -18 -47 -54t-57.5 -115.5t-30.5 -163.5q0 -313 241 -314q74 0 134.5 28t94.5 55.5 t46 27.5q27 0 27 -27q0 -18 -43 -64t-135.5 -92.5t-194.5 -46.5q-309 0 -309 330z"/>
<glyph unicode="d" horiz-adv-x="1013" d="M35 256q0 236 161.5 429.5t348.5 193.5q27 0 75 -13.5t76 -13.5q4 0 39 269.5t35 283.5q0 23 -17.5 37t-41.5 14q-10 0 -27.5 -1t-31.5 -1h-13q-33 0 -33 23q0 16 17.5 22t55.5 10t56 9q29 8 54.5 14t35 9t21.5 6t22 3h25q14 0 23.5 -10t9.5 -24.5t-3 -37t-13 -84.5 l-22 -150q-14 -87 -40 -272l-57 -413q-43 -297 -43 -346q0 -88 53 -88q39 0 74.5 31.5t59 63.5t36.5 32q23 0 22 -19q0 -47 -87 -148t-175 -101q-49 0 -75.5 35.5t-30.5 78.5l-7 79q-4 36 -12 36q-4 0 -30.5 -36t-62.5 -79t-99.5 -78.5t-132.5 -35.5q-125 0 -185.5 74.5 t-60.5 197.5zM178 313q0 -96 43 -153.5t131 -57.5q123 0 207 107q53 66 83 254t30 291q0 39 -44 60.5t-93 21.5q-90 0 -174.5 -86t-133.5 -207t-49 -230z"/>
<glyph unicode="e" horiz-adv-x="823" d="M66 301q0 129 61 256t170 227q115 109 285 109q74 0 126 -43t52 -109q0 -51 -24.5 -97t-61.5 -76.5t-64.5 -48t-48.5 -25.5q-119 -53 -321 -56q-35 0 -35 -84q0 -119 73.5 -187.5t221.5 -68.5q51 0 101 22.5t82 44t38 21.5q25 0 24 -20q0 -43 -117.5 -117t-238.5 -74 q-182 0 -252.5 86t-70.5 240zM233 514q0 -41 19 -41q145 0 255.5 82t110.5 180q0 51 -35.5 73.5t-72.5 22.5q-76 0 -168 -96q-41 -43 -75 -118.5t-34 -102.5z"/>
<glyph unicode="f" horiz-adv-x="618" d="M-88 -319q0 27 16.5 83t42.5 56q25 0 27 -29q6 -33 27.5 -53.5t33.5 -20.5q18 0 31.5 25t23 74t15.5 97t13.5 120.5t13.5 116.5q82 586 82 589q0 27 -21 27h-125q-31 0 -41 8t-10 29q0 31 9 41t44 10q102 -4 148 -4q12 0 14 14q47 324 176 508q117 164 258 164 q96 0 96 -76q0 -29 -8 -73t-26 -44q-14 0 -65.5 42t-104.5 42q-68 0 -135.5 -245.5t-67.5 -311.5q0 -20 24 -20q20 0 79 2t87 2q39 0 39 -35q0 -55 -41 -55q-43 0 -95 2t-77 2q-8 0 -15 -2t-10 -4t-5.5 -8t-3.5 -9.5t-2 -13.5t-1 -14q0 -6 -20.5 -217t-36.5 -338 q-29 -244 -57 -312q-37 -88 -94.5 -141t-95.5 -65.5t-68 -12.5q-29 0 -51.5 13.5t-22.5 36.5z"/>
<glyph unicode="g" horiz-adv-x="890" d="M-49 -150q0 51 20.5 90.5t49 59.5t57 31.5t49 17.5t20.5 8q0 4 -6 13.5t-12 29t-6 47.5q0 43 20.5 74t40 46.5t19.5 21.5q0 2 -21.5 21.5t-44 79t-22.5 157.5q0 109 85 218t220 109q47 0 122.5 -26.5t102.5 -26.5q31 0 82 22.5t66 22.5q20 0 39.5 -12t19.5 -41 q0 -20 -20.5 -41.5t-55.5 -21.5q-31 0 -67.5 8t-40.5 8q-25 0 -25 -18q0 -4 9.5 -26t18.5 -58.5t9 -75.5q0 -115 -83 -233.5t-210 -118.5q-55 0 -102 13t-56 13q-2 0 -7 -5t-11 -22.5t-6 -41.5q0 -57 82 -96.5t179 -61t179 -75.5t82 -138q0 -123 -93 -172t-263 -49 q-176 0 -298 62t-122 187zM63 -125q0 -109 93.5 -166t210.5 -57q229 0 229 133q0 35 -72.5 77t-287.5 130q-50 20 -68 37q-27 0 -66 -49.5t-39 -104.5zM238 512q0 -113 39.5 -171t99.5 -58q72 0 128 80.5t56 214.5q0 117 -42 180t-103 63q-70 0 -124 -83t-54 -226z"/>
<glyph unicode="h" horiz-adv-x="993" d="M59 47q0 25 11 91l28 155q15 88 21 129l45 301l70 465q30 203 30 209q0 47 -57 47q-25 0 -52.5 -1t-31.5 -1q-27 0 -27 24q0 23 78 29q96 8 151.5 21.5t69.5 13.5q25 0 25 -27q0 -4 -61.5 -339t-61.5 -445q0 -23 8 -23q4 0 45 43t109.5 87t142.5 44q182 0 182 -231 q0 -61 -24.5 -215t-24.5 -199q0 -94 49 -94q27 0 86 37q18 10 36 32l30 36q12 16 18 16q20 0 21 -16q0 -70 -98.5 -156t-167.5 -86q-100 0 -101 190q0 63 18.5 210t18.5 208q0 160 -117 160q-70 0 -138 -41t-105 -137q-18 -47 -30.5 -122t-28 -210t-23.5 -193 q-6 -37 -23.5 -49t-52.5 -12q-68 0 -68 49z"/>
<glyph unicode="i" horiz-adv-x="512" d="M41 811q0 29 47 29h21q37 0 103.5 9t129.5 9q29 0 29 -22q0 -27 -23.5 -107t-32.5 -131q-61 -387 -61 -407.5t12.5 -38t28.5 -17.5q31 0 56.5 26.5t43 53.5t27.5 27q20 0 20 -23q0 -18 -20.5 -59t-38.5 -60q-113 -121 -188 -121l-1 1q-75 0 -75 170q0 82 46 310t46 281 q0 25 -10.5 34t-38.5 9q-25 0 -56.5 1t-35.5 1q-29 0 -29 25zM258 1214q0 16 39 62.5t63 46.5q29 0 54.5 -39t25.5 -70q0 -29 -36.5 -68.5t-53.5 -39.5q-25 0 -58.5 45t-33.5 63z"/>
<glyph unicode="j" horiz-adv-x="495" d="M-150 -268q0 33 27 32q20 0 61.5 -43t69.5 -43q33 0 53.5 82t53.5 351l35 271l34 252q13 93 13 101q0 49 -66 49h-53q-37 0 -37 25q0 33 41 33q8 0 28.5 1t34.5 1q27 0 75 9t77 9q47 0 47 -33q0 -51 -19.5 -156.5t-25.5 -144.5l-35 -278l-26 -210q-7 -58 -20 -134 t-27.5 -106.5t-37 -65.5t-59.5 -70l-14 -14q-12 -12 -18 -16l-16 -14q-11 -9 -20.5 -12t-22.5 -8.5t-29.5 -7.5t-34.5 -2q-43 0 -61.5 11.5t-20.5 46.5q-2 31 -4.5 54.5t-2.5 29.5zM223 1210q0 27 37 68t68 41q23 0 49 -35t26 -67q0 -29 -32.5 -70t-53.5 -41q-33 0 -63.5 43 t-30.5 61z"/>
<glyph unicode="k" horiz-adv-x="925" d="M59 47q0 25 11 91l24 156l21 128l41 272q29 199 50 366t36 249q16 92 16 96q0 39 -51 39q-25 0 -52.5 2t-31.5 2q-31 0 -31 25q0 31 31 30q96 4 164.5 17.5t85.5 13.5q37 0 37 -31q0 -8 -15 -94l-18 -119q-45 -264 -82 -547l-19 -141q0 -6 -5 -28.5t-9 -49t-4 -45.5 q0 -16 1 -23t5 -11.5t12 -4.5q23 0 148 98.5t170 172.5q12 23 30.5 75t41 76.5t65.5 24.5q31 0 48.5 -21.5t17.5 -54.5q0 -53 -79 -123t-158 -118t-79 -50l103 -184l22 -41l24 -42l22 -35l20 -34l17 -24.5t17.5 -17.5t16.5 -5q41 0 88 57.5t55 57.5q18 0 19 -37 q0 -57 -72 -139t-127 -82q-39 0 -89 70.5t-90 155.5t-80 155.5t-60 70.5l-50 -26q-12 -8 -27.5 -16.5t-21.5 -10.5t-14 -8t-9 -6t-4 -8.5t-3 -9.5t-2.5 -14t-2.5 -19l-36 -269q-6 -61 -70 -61q-68 0 -68 49z"/>
<glyph unicode="l" horiz-adv-x="534" d="M94 176q0 51 13.5 139t29 168t15.5 84q8 57 23 196.5t26 209.5q66 416 65 430q0 41 -51 41q-16 0 -31.5 -1t-27.5 -1q-59 0 -60 28q0 27 31 29q82 6 153.5 18.5t94.5 12.5q43 0 43 -33q0 -16 -9.5 -47t-11.5 -47q-33 -174 -45 -263t-23.5 -207t-37.5 -292 q-59 -412 -60 -440q0 -51 6.5 -65.5t26.5 -14.5q39 0 70 22.5t46 50t34.5 50t36.5 22.5q24 0 24 -31t-102 -149q-37 -43 -91.5 -72.5t-86.5 -29.5q-23 0 -35.5 4t-29.5 19.5t-26.5 58t-9.5 110.5z"/>
<glyph unicode="m" horiz-adv-x="1560" d="M49 659q0 51 70.5 139.5t126.5 88.5q41 0 63.5 -33t26.5 -73t8 -72.5t12 -32.5q4 0 13.5 12t28 33.5t44 45.5t69.5 50.5t97 44.5q63 23 119 23q121 0 121 -152v-43q0 -16 4 -16q6 0 14 11l24 33q17 23 38 42q131 127 254 127q55 0 93 -29t52 -72t18.5 -69.5t4.5 -46.5 q0 -49 -20.5 -245t-20.5 -226q0 -72 41 -72q16 0 37.5 12.5t35.5 23.5l15 11q6 8 15 22l13 19q4 6 13.5 11t19.5 5q20 0 21 -24q0 -59 -100.5 -136t-170.5 -77q-31 0 -53 38t-22 91q0 8 22.5 221t22.5 287t-36 115.5t-75 41.5q-61 0 -118.5 -58t-83 -106.5t-29.5 -68.5 q-14 -49 -24.5 -131t-24 -226.5t-13.5 -154.5q-4 -55 -84 -55q-57 0 -57 65q0 8 37 240.5t37 347.5q0 14 -5.5 33.5t-17.5 47.5t-44 46t-79 18q-23 0 -50.5 -12t-64 -44t-70.5 -105.5t-55 -178.5q-18 -92 -33.5 -241.5t-19.5 -169.5q-2 -18 -25.5 -31.5t-52.5 -13.5 q-71 0 -71 67q0 37 46 260.5t46 311.5q0 53 -16.5 76.5t-36.5 23.5q-35 0 -70 -59.5t-55 -59.5q-25 0 -25 49z"/>
<glyph unicode="n" horiz-adv-x="1077" d="M49 657q0 61 72 147.5t129 86.5q53 0 71.5 -54.5t18.5 -107.5t4 -53t13.5 12t33 39t55.5 51q150 117 250 117q172 0 172 -256q0 -82 -17 -244t-17 -186q0 -74 38 -74q16 0 37 11.5t33 22.5l12 11q6 6 15.5 20.5t14.5 19.5t14.5 10.5t19.5 5.5q18 0 18 -25 q0 -59 -101 -141t-169 -82q-31 0 -53.5 37.5t-22.5 91.5q0 88 21.5 282.5t21.5 223t-6 60.5t-42 70t-95 38q-70 0 -133 -91l-41 -59q-13 -18 -23 -50t-13 -50.5l-14 -84.5l-22 -126q-18 -96 -27.5 -156.5t-10.5 -78t-2 -29t-1 -17.5q-4 -33 -19.5 -43t-56.5 -10 q-45 0 -58 10t-13 53q0 35 45 254t45 308q0 49 -15.5 80.5t-31.5 31.5q-35 0 -73 -57.5t-58 -57.5q-19 0 -19 39z"/>
<glyph unicode="o" horiz-adv-x="913" d="M66 346q0 209 132 377t351 168q145 0 222 -103.5t77 -259.5q0 -133 -52.5 -255.5t-163 -207.5t-253.5 -85q-135 0 -224 94t-89 272zM223 344q0 -147 50.5 -225t128 -78t138 55.5t92.5 138t48 165.5t16 153q0 137 -50 206.5t-126 69.5q-78 0 -149.5 -68.5t-106.5 -187.5 q-41 -143 -41 -229z"/>
<glyph unicode="p" horiz-adv-x="999" d="M6 -375q0 29 42 47.5t48 36.5q4 10 13 80q111 860 132 970l1 3q0 10 -10.5 10t-51.5 -18.5t-53 -18.5q-27 0 -27 25v8q0 18 15 27q25 10 48 18l37 13q13 5 24.5 7.5t17.5 8.5t11 6t7 10t3 13t4 21.5t5 29.5l14 78q7 44 10 59.5t10 37t18.5 32t29.5 20.5q29 14 60 14 q29 0 28 -35q0 -31 -27.5 -123t-27.5 -120v-8q0 -10 10 -11q4 0 25.5 3t60.5 5.5t88 2.5q362 0 363 -275q0 -170 -80 -305q-4 -8 -15.5 -27.5t-16.5 -26.5t-15 -24.5t-17.5 -27t-20.5 -24.5t-25.5 -26.5t-30 -26t-37.5 -28.5q-121 -86 -270 -86q-16 0 -56.5 4t-54.5 4 q-18 0 -23.5 -10t-10.5 -60q-5 -32 -7 -53q-2 -23 -8 -58.5t-9.5 -59t-3.5 -31.5q0 -45 43 -62.5t85 -23.5t42 -25q0 -26 -26 -26h-2q-37 0 -107.5 1t-97.5 1q-25 0 -62.5 -1t-48.5 -1h-18h-2q-33 0 -33 26zM289 104q0 -8 8 -18t36.5 -20.5t72.5 -10.5q145 0 261.5 161 t116.5 310q0 80 -29.5 138.5t-69.5 88t-93 47t-87 21.5t-65 4q-18 0 -31.5 -3t-17.5 -3q-16 0 -35 -157l-26 -228q-41 -307 -41 -330z"/>
<glyph unicode="q" horiz-adv-x="1038" d="M45 238q0 104 69.5 235t161.5 234q155 167 355 167h2q70 0 109.5 -18t43.5 -18q25 0 66 79.5t61 79.5q25 0 25 -24q0 -16 -13.5 -55t-30.5 -108t-28 -146q-25 -209 -35 -277q-94 -645 -94 -684q0 -27 23.5 -39t51.5 -11t51.5 -8.5t23.5 -31.5q0 -20 -49 -21 q-47 0 -106.5 4.5t-74.5 4.5q-55 0 -93 -5.5t-56 -5.5q-63 0 -64 31q0 16 25 22.5t55.5 10.5t60 35.5t36.5 91.5q10 86 27 199l28 180q10 67 10 78q0 12 -4 12q-6 0 -23.5 -27.5t-48 -67.5t-77 -80t-124 -67.5t-171.5 -27.5q-72 0 -132.5 66.5t-60.5 191.5zM184 264 q0 -78 49.5 -135t126.5 -57q98 0 202 97t147 247q16 55 30.5 159.5t14.5 133.5q0 43 -43 76.5t-109 33.5q-104 0 -205.5 -100.5t-157 -229.5t-55.5 -225z"/>
<glyph unicode="r" horiz-adv-x="720" d="M31 606q0 66 18.5 119t44 82t54 49.5t48 26.5t27.5 6q49 0 76 -72q51 -135 57 -135q2 0 39 52t99.5 105.5t130.5 53.5q37 0 56 -19.5t19 -44.5q0 -16 -11 -44.5t-11 -30.5l-3 -18q-3 -17 -7 -27.5t-13.5 -21.5t-21.5 -11q-18 0 -30.5 21.5t-31 43t-49.5 21.5 q-59 0 -100 -123t-53 -231l-11 -68q-37 -288 -52 -321q-22 -27 -62 -27h-11q-61 0 -61 53q0 33 44 242t44 295q0 139 -70 139q-37 0 -61.5 -29.5t-36.5 -67.5t-14 -40q-12 -12 -23 -13q-24 0 -24 35z"/>
<glyph unicode="s" horiz-adv-x="681" d="M31 111q0 73 63 73h2q35 0 57.5 -22.5t33 -48t37 -48t67.5 -22.5q51 0 88 16.5t51 41t19.5 42t5.5 31.5q0 35 -8.5 62.5t-38 64.5t-38.5 46l-57 56l-39 39l-38 40q-13 12 -32.5 36.5t-27.5 43t-15 45t-7 57.5q0 102 78.5 166.5t199.5 64.5q190 0 191 -107 q0 -29 -18.5 -46t-34 -20t-25.5 -3q-37 0 -79 57.5t-83 57.5q-109 0 -109 -109q0 -35 25 -72t80 -88t57 -55l38 -40q30 -32 41 -47t29.5 -45t26 -62.5t7.5 -71.5q0 -33 -14.5 -74t-46.5 -87t-99.5 -77t-159.5 -31q-82 0 -154.5 32t-72.5 104z"/>
<glyph unicode="t" horiz-adv-x="612" d="M59 799q0 16 21.5 29.5t65.5 39t81 64.5l47 54l32 36q9 10 18.5 16t21.5 6q20 0 21 -24q0 -12 -18.5 -74.5t-18.5 -79.5q0 -10 11 -12t60 -2q47 0 81 1t38 1q53 0 53 -39q0 -35 -10 -47t-39 -12q-14 0 -77.5 5t-88.5 5q-12 0 -21 -2t-15.5 -8t-10.5 -11.5t-6 -17.5 t-4 -20.5t-4 -29t-4 -32.5q-6 -49 -23 -153l-30 -182q-13 -77 -13 -91q0 -49 21.5 -76.5t36 -32t26.5 -4.5q49 0 90 23t66 45.5t37 22.5q23 0 22 -29q0 -45 -106.5 -119t-194.5 -74q-53 0 -92 43t-39 150q0 111 43 338t43 237q0 20 -60.5 22.5t-60.5 33.5z"/>
<glyph unicode="u" horiz-adv-x="1075" d="M41 602q0 78 68.5 176.5t162.5 98.5q33 0 52.5 -35t22.5 -62.5t3 -52.5q0 -92 -38 -290.5t-38 -274.5q0 -25 12.5 -40.5t24.5 -15.5q10 0 21.5 3.5t24 10.5t22.5 15t25.5 22.5t24.5 24.5l27 30l28 32l30 36l31 37q145 176 237 531q8 33 60 33q67 0 67 -44 q0 -21 -62.5 -310t-62.5 -347q0 -49 45 -49q55 0 89 38t52.5 76t35.5 38q29 0 28 -43q0 -55 -96 -156.5t-223 -101.5q-61 0 -62 110q0 57 9.5 131t18.5 125t9 55q0 23 -10 23q-4 0 -12.5 -13.5t-26.5 -47t-45 -70.5q-223 -317 -393 -318q-70 0 -70 132q0 123 46 321.5 t46 249.5q0 43 -41 43q-14 0 -42.5 -36t-49.5 -83q-12 -29 -31 -29q-20 0 -20 27z"/>
<glyph unicode="v" horiz-adv-x="874" d="M20 518q0 145 89.5 254t162.5 109q45 0 69 -49.5t24 -116.5q0 -49 -20.5 -204t-20.5 -275q0 -49 29.5 -87t72.5 -38q109 0 210 184t101 364q0 37 -21.5 85.5t-21.5 68.5q0 31 28 50.5t46 19.5q66 0 66 -111q0 -72 -34 -213t-77 -223q-104 -203 -236 -289 q-113 -74 -153 -74q-133 0 -133 318q0 12 -29 17t-61.5 12.5t-61.5 57.5t-29 140zM74 496q0 -53 22.5 -87t41 -41.5t28.5 -7.5q20 0 26.5 10.5t10.5 40.5q2 9 2 15q28 206 28 253q0 40 -28.5 40t-79.5 -78.5t-51 -144.5z"/>
<glyph unicode="w" horiz-adv-x="1382" d="M20 508q0 141 88.5 256t159.5 115q45 0 65.5 -51.5t20.5 -110.5q0 -80 -12 -225.5t-12 -251.5q0 -47 25.5 -86t54.5 -39q68 0 139.5 94t114.5 197q53 129 88 374q6 43 10 57.5t17.5 25.5t41.5 11q59 0 60 -51q0 -29 -28 -170t-28 -247q0 -94 21 -195q12 -51 30.5 -76.5 t55.5 -25.5q72 0 147.5 96t119.5 207.5t44 175.5q0 106 -19.5 155.5t-19.5 67.5q0 25 26.5 46.5t51.5 21.5q59 0 59 -93q0 -84 -33.5 -223t-78.5 -223q-92 -176 -208 -268t-190 -92q-117 0 -120 354q0 39 -6 39q-2 0 -24 -41t-57.5 -98.5t-79.5 -116t-101.5 -99.5 t-112.5 -41q-125 0 -125 318q0 10 -29 17t-63.5 16.5t-63.5 55.5t-29 124zM88 498q0 -47 8 -70q25 -55 80 -55q23 0 31 22.5t16 100.5q10 88 10 159q0 45 -30 45q-29 0 -72 -66t-43 -136z"/>
<glyph unicode="x" horiz-adv-x="972" d="M41 47q0 84 72 84q23 0 47 -10t41 -10q33 0 93 78.5t103 157.5l43 79q0 4 -18 56l-44 120q-26 66 -44 92q-20 33 -47 33q-43 0 -62.5 -30.5t-30 -61.5t-26.5 -31q-29 0 -29 72q0 25 14.5 71t36.5 76q20 29 54.5 49.5t56.5 20.5q47 0 90 -50t67 -111l44 -112 q20 -51 26 -51q4 0 31 51.5t62.5 113t94 112.5t120.5 51q31 0 53 -25.5t22 -58.5q0 -31 -18.5 -53.5t-50.5 -22.5q-20 0 -49 7.5t-39 7.5q-43 0 -127 -112t-84 -134q0 -14 57 -142l102 -221q41 -82 103 -82q12 0 36.5 2.5t32.5 2.5q29 0 29 -25q0 -35 -52 -50.5t-83 -15.5 q-47 0 -85 9.5t-58.5 20.5t-37 31.5t-21.5 34t-12 36t-9 26.5l-34 93q-22 61 -33 87.5t-19 26.5q-2 0 -48 -92t-128 -185.5t-168 -93.5q-33 0 -53.5 22.5t-20.5 55.5z"/>
<glyph unicode="y" horiz-adv-x="833" d="M14 -256q0 27 19.5 47.5t46.5 20.5q39 0 84 -34t94 -34q80 0 167 134t87 206q0 100 -130 371.5t-204 271.5q-51 0 -72.5 -38t-30.5 -77t-34 -39q-20 0 -21 45q0 51 14.5 107.5t54.5 107t97 50.5q68 0 145 -91.5t130 -199.5l94 -200q41 -91 47 -91q20 0 47 127t27 229 q0 31 -25.5 80t-25.5 76q0 31 17 53.5t52 22.5t57.5 -31t22.5 -78q0 -86 -44 -279.5t-126 -400.5q-188 -477 -420 -477q-170 0 -170 121z"/>
<glyph unicode="z" horiz-adv-x="837" d="M41 33q0 14 18 33q496 508 496 540q0 6 -8 8l-133 58q-60 26 -85.5 38.5t-47 21.5t-29.5 11t-19 2q-23 0 -42 -22.5t-19 -42.5q0 -27 17.5 -56.5t17.5 -33.5q0 -18 -25 -19q-10 0 -27.5 15.5t-34 51.5t-16.5 79q0 63 49.5 113.5t110.5 50.5q49 0 143.5 -48.5t120.5 -58.5 q92 -33 129 -33q31 0 45.5 60.5t49.5 60.5q18 0 32.5 -10t14.5 -28.5t-43 -67.5l-396 -441q-72 -80 -71 -88q0 -12 25 -33l64 -50q38 -29 56 -50q29 -31 70 -95.5t71.5 -104t51.5 -39.5q37 0 60.5 55t64.5 55q20 0 32.5 -15.5t12.5 -31.5q0 -45 -61.5 -81t-145.5 -36 q-27 0 -55.5 10.5t-49 26t-43 36t-35 34.5t-24.5 31l-12 16q-125 145 -181 145q-12 0 -55 -50t-63 -50q-10 0 -20.5 10.5t-10.5 22.5z"/>
<glyph unicode="{" horiz-adv-x="544" d="M106 -358q0 14 44.5 391t44.5 393q0 35 -28 62.5t-28 50.5q0 37 40 61.5t42 56.5l41 424l41 422q2 37 39 37q18 0 55 -8t62 -8q39 0 77.5 6t51.5 6q33 0 33 -18q0 -47 -74 -81t-129 -34q-16 0 -17 -19l-87 -798l-62 -598q-20 -198 -19 -205t21 -13l55 -15q35 -9 60 -23 q57 -39 57 -78q0 -25 -16 -25q-2 0 -21.5 5.5t-51.5 9.5t-65 4q-57 0 -95 -14.5t-50 -14.5q-21 0 -21 23z"/>
<glyph unicode="|" horiz-adv-x="428" d="M160 -178q0 154 6 643t6 702v168q0 78 -1 122t-1 54q0 27 11.5 38.5t39.5 11.5q27 0 36 -11.5t9 -40.5q0 -6 -1 -21t-1 -25.5t1 -50.5t2 -111.5t1 -155.5q0 -162 -5 -567.5t-5 -557.5q0 -199 2 -301q0 -4 1 -22.5t1 -30.5v-16q0 -78 -35 -78q-45 0 -56 20.5t-11 104.5 v125z"/>
<glyph unicode="}" horiz-adv-x="544" d="M-72 -356q0 47 76 88q27 14 64.5 23t59.5 15.5t22 14.5l40 359l17 145q5 33 29 279l81 818q0 16 -12 17q-51 0 -114.5 29.5t-63.5 76.5q0 27 37 27q12 0 50 -6t77 -6q25 0 63.5 8t57.5 8q29 0 28 -31q0 -18 -48 -431.5t-48 -428.5q0 -29 29.5 -48t29.5 -46 q0 -33 -37.5 -64.5t-41.5 -76.5q-33 -295 -59 -597q-13 -144 -18 -171t-26 -27q-12 0 -46 14.5t-91 14.5q-33 0 -65.5 -4t-53 -9.5t-22.5 -5.5q-15 1 -15 15z"/>
<glyph unicode="~" horiz-adv-x="778" d="M59 352q0 8 29 52.5t82 91.5t104 47q47 0 120 -46t120 -46q43 0 79 24.5t56.5 50t28.5 25.5q41 0 41 -31q0 -10 -31 -52t-90 -87t-119 -45q-57 0 -123.5 47t-107.5 47t-74 -27.5t-50.5 -55.5t-23.5 -28q-41 0 -41 33z"/>
<glyph unicode="¡" horiz-adv-x="509" d="M139 43q0 29 8.5 62.5t28 121.5t37.5 222q35 252 86 495q2 12 14.5 26.5t28.5 14.5q27 0 27 -35q0 -10 -4 -55l-54 -797v-16q0 -14 -1 -19.5t-3 -19.5t-6 -20.5t-11 -16.5t-17.5 -15t-26 -9.5t-33.5 -4.5q-74 0 -74 66zM250 1270q0 25 61 82q55 55 66 55q25 0 63 -47 q8 -10 26.5 -28.5t27 -31t8.5 -20.5q0 -10 -21.5 -33.5t-31.5 -32.5q-14 -10 -36 -30.5t-35 -28.5t-28 -8q-8 0 -15 7t-22.5 27.5t-25.5 32.5q-37 42 -37 56z"/>
<glyph unicode="¢" horiz-adv-x="856" d="M66 326q0 176 94 323.5t250 202.5q18 6 35.5 11t22.5 5t11 5.5t7 12.5t3 25l9 74q0 20 30 21q45 0 45 -21q0 -6 -6 -47t-6 -45q0 -14 27.5 -16.5t79 -9.5t90.5 -29q20 -14 20 -45q-4 -168 -37 -168q-12 0 -20 10t-15.5 25.5t-36 42t-75.5 53.5q-27 14 -33 14 q-12 0 -16 -41l-72 -637q0 -2 -1 -4t-1 -4q0 -20 33 -21q68 0 127 27t94 53.5t41 26.5q18 0 18 -18q0 -16 -32.5 -54.5t-106.5 -82.5t-162 -54h-6q-20 -2 -22 -17q-2 -8 -5 -41q-4 -50 -8 -89q-2 -23 -43 -23q-29 0 -28 25q0 12 6 72.5t6 62.5q0 6 -3 8q-2 2 -10 2h-19 q-11 0 -32.5 5t-46.5 16q-206 78 -206 344zM215 408q0 -61 16.5 -115.5t39 -90.5t47 -62.5t43 -39t26.5 -12.5q12 0 14 31l72 647v14q0 10 -5 12.5t-24 2.5q-76 0 -152.5 -111.5t-76.5 -275.5z"/>
<glyph unicode="£" horiz-adv-x="1085" d="M41 76q0 51 36 90t107 39q33 0 67 -10.5t55.5 -21.5t25.5 -11q6 4 19.5 28.5t24.5 67.5t11 84q0 92 -59 295q-2 4 -4 12q-6 20 -12.5 26.5t-26.5 6.5q-4 0 -53.5 -1t-100.5 -1q-23 0 -22 33q0 55 30 55h113q33 0 33 4q0 2 -8.5 36t-16.5 88t-8 108q0 225 128 347t302 122 q121 0 210 -55.5t89 -141.5q0 -45 -35 -82t-55 -37q-16 0 -24.5 19.5t-18.5 59.5t-23 64q-23 45 -73 72t-111 27q-39 0 -76 -11.5t-79 -40t-67.5 -91t-25.5 -150.5q0 -94 58 -295q8 -27 14 -34t18 -7h293q39 0 39 -25q0 -31 -8 -45t-16.5 -16t-26.5 -2h-232q-43 0 -43 -8 q0 -2 7.5 -33t14.5 -80t7 -94q0 -80 -28.5 -164t-50 -121t-29.5 -45q117 -35 260 -35q90 0 160.5 33t103.5 71t57.5 70.5t32.5 32.5q23 0 23 -26q0 -25 -19.5 -73t-56.5 -105.5t-104.5 -98.5t-149.5 -41q-160 0 -371 90q-8 0 -34.5 -20.5t-69.5 -39t-97 -18.5 q-51 0 -77.5 29t-26.5 70zM113 86q0 -18 17 -34.5t42 -16.5q35 0 69.5 24.5t41.5 36.5q-6 8 -43 20.5t-68 12.5q-59 0 -59 -43z"/>
<glyph unicode="¤" horiz-adv-x="1079" d="M41 90q0 25 37 62l139 141q-80 104 -80 244q0 135 78 239l-137 142q-37 37 -37 61.5t16.5 39.5t36.5 15q27 0 64 -37l141 -141q106 80 239.5 80t241.5 -80l142 141q35 35 61 35q25 0 40 -16.5t15 -36.5q0 -25 -37 -61l-141 -144q84 -115 84 -242q0 -125 -84 -237 l141 -143q37 -37 37 -61.5t-17 -40t-38 -15.5q-25 0 -61 37l-142 141q-106 -80 -241.5 -80t-239.5 78l-141 -139q-35 -35 -64 -35q-25 0 -39 16.5t-14 36.5zM254 532.5q0 -120.5 84 -203.5t200.5 -83t201.5 85t85 203.5t-85 205.5t-201 87q-119 0 -202 -87t-83 -207.5z"/>
<glyph unicode="¥" horiz-adv-x="1413" d="M41 1434q0 29 68 28q12 0 92 -4t98 -4q25 0 95.5 4t86.5 4q61 0 62 -30q0 -20 -51.5 -39t-51.5 -47q0 -23 5.5 -45.5t22.5 -62.5l36 -77l58 -120l77 -158l9 -21q5 -12 7 -15t4.5 -8t5.5 -6.5t6 -2.5t9 -1h88h13q3 0 7.5 3.5t6.5 6.5l8 12q6 9 12 19q6 6 71.5 98.5 t136.5 211t71 159.5q0 29 -22.5 41.5t-50.5 11.5t-50.5 7t-22.5 31q0 29 53 28q10 0 50.5 -2t58.5 -2q47 0 110.5 3t100.5 3q53 0 53 -30q0 -12 -22.5 -22.5t-56 -24t-52.5 -33.5q-27 -29 -82 -106l-133 -192q-78 -114 -113 -161l-13 -17q-7 -10 -11 -15l-8 -10l-7 -8 q-2 -3 -2 -5q0 -6 191 -7q23 0 22 -34q0 -53 -30 -54h-176q-27 0 -42.5 -1t-26.5 -2t-17.5 -6t-9.5 -7t-8 -14.5t-9 -18.5q-20 -35 -33.5 -100.5t-13.5 -85.5q0 -12 20 -12q63 0 161.5 1t103.5 1q41 0 41 -27q0 -41 -13.5 -53.5t-42.5 -12.5h-258q-18 0 -20 -3t-4 -27 q-18 -193 -19 -211q0 -41 45 -80q23 -18 51.5 -26.5t49 -9.5t35 -8t14.5 -22q0 -10 -2 -15t-10.5 -9t-26.5 -4q-10 0 -102.5 7t-129.5 7q-53 0 -103 -8t-69 -8q-55 0 -55 26q0 12 8 20.5t16.5 11.5t27 6t26.5 5q29 8 41 36t20 91q27 186 27 195q0 16 -11.5 21t-52.5 5 q-127 0 -179 1.5t-54 1.5q-23 0 -23 32q0 55 29 56h264q33 0 38 3t8 23q1 8 1 15q0 8 4.5 40.5t4.5 42.5q0 25 -27 87q-13 30 -21 32q-6 2 -26 2h-195q-25 0 -32 6.5t-7 20.5q0 43 12.5 53t41.5 10h139q25 0 25 7q0 2 -2.5 5t-6.5 10t-8 13l-158 303q-102 201 -180 226 q-6 2 -33.5 3t-45 9.5t-17.5 28.5z"/>
<glyph unicode="¦" horiz-adv-x="425" d="M160 -303q0 27 1 59.5t1 75.5t1 180.5t1 347.5q0 51 53 52q27 0 35 -11.5t8 -40.5v-376q0 -148 1 -192t1 -79v-63q0 -78 -35 -78q-45 0 -56 20.5t-11 104.5zM170 848v663q0 27 11.5 38.5t39.5 11.5q27 0 36 -11.5t9 -40.5v-708q0 -78 -33 -78q-45 0 -54 19.5t-9 105.5z "/>
<glyph unicode="§" horiz-adv-x="1110" d="M121 25q0 57 33 57q8 0 14 -3t10 -11.5t6 -13.5t5.5 -20.5t5.5 -21.5q12 -45 29.5 -86t51 -92t87 -82t120.5 -31q139 0 230.5 73t91.5 171q0 61 -65.5 108.5t-159 83.5t-186.5 79t-158.5 117.5t-65.5 174.5q0 72 23.5 132.5t57.5 96.5t67.5 60.5t57 37.5t23.5 17 q0 6 -35.5 29t-71.5 73t-36 124q0 152 115.5 264.5t290.5 112.5q90 0 160.5 -28t78.5 -28q4 0 21.5 7.5t25.5 7.5q31 0 31 -21q0 -37 5 -134t5 -124q0 -78 -31 -78q-20 0 -30 31t-17.5 73t-40 94t-92.5 87q-63 37 -155 37q-113 0 -176.5 -72t-63.5 -145q0 -66 62.5 -112 t150.5 -79t176 -72.5t150.5 -113.5t62.5 -178q0 -72 -18.5 -133.5t-44 -99.5t-52 -65.5t-45 -43t-18.5 -17.5q0 -4 16.5 -15t41 -41t38.5 -79q14 -53 15 -90q0 -152 -122 -283t-337 -131q-86 0 -147.5 14.5t-141.5 63.5q-25 14 -37 129t-12 189zM295 612q0 -88 92 -151 q37 -27 182.5 -87.5t157.5 -60.5q31 0 87 74t56 152q0 20 -5 40.5t-12 36.5q-7 18 -23 34l-25 27q-9 11 -31 25l-34 20q-12 7 -36 18.5t-31 15.5t-32 14t-27 10q-106 47 -131 47q-37 0 -112.5 -63.5t-75.5 -151.5z"/>
<glyph unicode="¨" horiz-adv-x="899" d="M250 1206q0 25 36 65t66 40q29 0 55.5 -33t26.5 -63.5t-39 -69.5t-55 -39q-37 0 -63.5 34.5t-26.5 65.5zM565 1206q0 25 37 65t68 40q29 0 55.5 -33t26.5 -63.5t-40 -69.5t-57 -39q-37 0 -63.5 34.5t-26.5 65.5z"/>
<glyph unicode="©" horiz-adv-x="1630" d="M90 686q0 299 212 515t517 216q303 0 516 -216t213 -515q0 -297 -211 -513t-520 -216q-297 0 -512 212t-215 517zM176 686q0 -268 190.5 -455.5t452.5 -187.5t452.5 186.5t190.5 458.5q0 260 -186 450.5t-459 190.5q-268 0 -454.5 -189.5t-186.5 -453.5zM336 659 q0 209 128 347.5t357 138.5q78 0 157 -22.5t125 -45t48 -22.5q4 0 10 6t15 6q10 0 16 -4t9 -18.5t4 -30t4 -50t10 -67.5q4 -29 4 -33q0 -31 -27 -30q-16 0 -29 22q-121 219 -346 219q-154 0 -252 -94t-98 -248q0 -72 19.5 -140.5t61.5 -138t128 -112.5t203 -43 q164 0 278 162q12 18 21.5 40.5t15.5 30t25 7.5q14 0 14 -17q0 -51 -25 -170q-4 -20 -26 -28l-56 -28q-40 -20 -63 -29t-59.5 -21.5t-75.5 -17.5t-82 -5q-129 0 -226.5 35t-150.5 83t-86 112.5t-42 112.5t-9 93z"/>
<glyph unicode="ª" horiz-adv-x="690" d="M41 956q0 117 102.5 250t249.5 133q23 0 62 -7t63 -7q10 0 35 30.5t37 30.5q14 0 14 -24q0 -8 -3 -20.5t-9 -31t-10 -32.5q-2 -4 -14.5 -67.5t-25 -140.5t-12.5 -103q0 -25 12.5 -45.5t24.5 -20.5q20 0 49 40t41 40q14 0 15 -18q0 -39 -55.5 -98.5t-88.5 -59.5 q-25 0 -42 11t-25 29.5t-12.5 34t-7.5 35t-3 23.5l-14 -14q-14 -14 -26 -24l-34 -28q-20 -16 -40.5 -28.5t-44 -24.5t-50 -18t-53.5 -6q-80 0 -107.5 42.5t-27.5 118.5zM135 965q0 -41 26.5 -67t71.5 -26q47 0 90.5 24t61.5 45.5t29 37.5q18 33 41.5 143.5t23.5 134.5 q0 41 -90 41q-45 0 -94 -26.5t-80 -69.5q-80 -131 -80 -237z"/>
<glyph unicode="«" horiz-adv-x="718" d="M41 440q0 10 14 25q299 250 305 250q8 0 16.5 -13.5t8.5 -23.5q0 -12 -101.5 -117.5t-101.5 -116.5q0 -14 77 -116.5t77 -116.5q0 -10 -12.5 -24.5t-22.5 -14.5q-6 0 -132 130l-120 124q-8 8 -8 14zM293 440q0 12 12 25q299 250 307.5 250t17.5 -13.5t9 -23.5 q0 -12 -102.5 -117.5t-102.5 -116.5q0 -12 76 -118.5t76 -116.5q0 -6 -11.5 -21.5t-21.5 -15.5q-8 0 -96 93l-156 161q-8 8 -8 14z"/>
<glyph unicode="¬" horiz-adv-x="1040" d="M43 440q0 35 39 35h874q27 0 34 -6t7 -33v-323q0 -31 -30 -31q-25 0 -35 1t-18.5 10t-8.5 30v227q0 35 -53 35h-768q-18 0 -27.5 6t-11.5 16t-2 33z"/>
<glyph unicode="­" horiz-adv-x="577" d="M80 379q0 27 17.5 46t72.5 36l131 42q57 19 78.5 27.5t39 13.5t34.5 5q45 0 45 -45q0 -18 -1 -28.5t-6.5 -21t-9.5 -14.5t-19.5 -11t-26.5 -10t-39 -13l-52 -17q-51 -17 -96 -35l-64 -25q-18 -7 -36.5 -12.5t-32.5 -5.5q-35 0 -35 68z"/>
<glyph unicode="®" horiz-adv-x="978" d="M59 1118q0 180 125 306t301 126q180 0 307.5 -126t127.5 -306q0 -176 -127 -302t-308 -126q-176 0 -301 126t-125 302zM121 1118q0 -147 108.5 -254.5t255.5 -107.5q152 0 261.5 107.5t109.5 254.5q0 152 -109.5 260.5t-261.5 108.5q-147 0 -255.5 -108.5t-108.5 -260.5z M252 1348q0 18 24 18h48q59 0 104 2t51 2q76 0 127 -31.5t51 -99.5q0 -39 -23.5 -62.5t-46 -31.5t-22.5 -10q-1 -3 7 -11l20 -22q12 -14 18 -27q29 -51 76 -114q25 -31 43 -31l5 1q5 1 7 1q10 0 11 -8q0 -10 -12.5 -22.5t-39.5 -12.5q-29 0 -55 14q-31 18 -88 115.5 t-74 101.5h-51q-14 0 -17 -6t-3 -39q0 -66 6 -102q10 -39 47 -46t37 -18q0 -12 -15 -12q-2 0 -51 2t-53 2q-23 0 -57 -2l-35 -2q-14 0 -15 14q0 8 26 14.5t30 41.5q2 20 2 67v49q0 72 1 129.5t1 67.5q0 53 -62 53q-22 1 -22 15zM412 1221q0 -41 5 -55.5t23 -14.5 q10 0 16.5 -1t12.5 -1q61 0 85 18.5t24 69.5q0 31 -32 64.5t-100 33.5q-23 0 -28.5 -8t-5.5 -39v-67z"/>
<glyph unicode="¯" horiz-adv-x="899" d="M256 1190q0 55 41 55q158 0 225.5 -2t143.5 -2q16 0 21 -5t5 -24q0 -59 -35 -59q-14 0 -179 1t-206 1q-16 0 -16 35z"/>
<glyph unicode="°" horiz-adv-x="530" d="M61 1251q0 72 60.5 140.5t148.5 68.5q98 0 149.5 -72.5t51.5 -146.5q0 -96 -77 -152.5t-126 -56.5q-63 0 -108 24.5t-64.5 63.5t-27 69.5t-7.5 61.5zM147 1249q0 -57 34 -92t87 -35q16 0 40 8.5t50.5 38t26.5 76.5q0 125 -117 125q-43 0 -82 -36t-39 -85z"/>
<glyph unicode="±" horiz-adv-x="1040" d="M43 184q0 20 2 30.5t10 18t27 7.5h876q23 0 30 -8.5t7 -32.5q0 -27 -7 -38t-36 -11h-872q-37 -1 -37 34zM43 664q0 45 39 45h371q20 0 20 20v19v266q0 31 33 30q37 0 47 -6t10 -28v-262v-17q0 -23 25 -22h377q31 0 30 -31q0 -25 -2 -35t-11 -18.5t-30 -8.5h-364 q-25 0 -25 -34v-271q0 -29 -33 -28q-35 0 -46 5t-11 23v271q0 20 -5 27t-28 7h-360q-25 0 -31 10.5t-6 37.5z"/>
<glyph unicode="²" d="M76 729v4q0 16 32 55l113 140q80 100 160 227q76 119 76 217q0 61 -30 98t-85 37q-49 0 -86 -30.5t-57.5 -60.5t-30.5 -30q-14 0 -14 23q0 16 23.5 60t79.5 90.5t126 46.5q80 0 145.5 -50.5t65.5 -162.5q0 -68 -56 -161t-122 -166l-121 -138q-55 -64 -55 -82q0 -6 34 -6 q74 0 120 2t74 12t36 14t23.5 27t21.5 29q12 14 20 14q12 0 13 -14q0 -20 -47.5 -113.5t-75.5 -93.5q-76 0 -136.5 2t-76.5 2q-14 0 -68.5 -2t-71.5 -2q-30 0 -30 12z"/>
<glyph unicode="³" d="M51 784.5q0 30.5 25 29.5q6 0 18 -9.5t43 -19t80 -9.5q96 0 158.5 72t62.5 156q0 66 -43 108.5t-129 42.5q-12 0 -22.5 -2t-16.5 -3t-8 -1q-16 0 -16 22q0 8 7 11.5t42 19t80 43.5q109 68 108 170q0 49 -32.5 83t-85.5 34q-51 0 -104.5 -31t-57.5 -31q-10 0 -10 11 q0 37 67.5 82t151.5 45t140 -39t56 -115q0 -61 -44 -111.5t-88 -78t-44 -33.5q0 -2 18.5 -7t45 -16.5t53 -32t45 -59.5t18.5 -92q0 -117 -95 -215t-230 -98q-74 0 -133.5 21.5t-59.5 52z"/>
<glyph unicode="´" horiz-adv-x="899" d="M383 1004q0 8 5 16t20.5 27.5t35.5 48.5q18 28 52 86l73 133q18 37 41 37t60 -13.5t37 -33.5q0 -33 -141.5 -175.5t-166.5 -142.5q-16 1 -16 17z"/>
<glyph unicode="µ" horiz-adv-x="1097" d="M20 -299q0 92 19.5 188.5t59.5 233.5t59 219q41 174 80 370q20 101 28 125.5t25 24.5q18 0 56 -12t38 -39q0 -20 -51 -313t-51 -334q0 -74 41 -74q70 0 167 114.5t170.5 251t131.5 269.5l18 47l12 33l7 23q4 12 6 17t4 9t5 6t6 2h11q27 0 57.5 -13t30.5 -30 q0 -6 -63.5 -307t-63.5 -358q0 -23 15.5 -37.5t35.5 -14.5q45 0 84 74t56 74q23 0 22 -35q0 -74 -86 -166t-194 -92q-82 0 -82 147q0 53 19.5 176t19.5 126q0 12 -4 12q-6 0 -25.5 -36t-71 -111.5t-118.5 -149.5q-61 -68 -133 -113t-132 -45q-31 0 -50 21.5t-26.5 44 t-9.5 22.5q-4 0 -14 -40t-18.5 -95t-8.5 -90q0 -39 27 -101.5t27 -68.5q0 -16 -17.5 -40t-56.5 -24q-62 0 -62 109z"/>
<glyph unicode="¶" horiz-adv-x="993" d="M80 971q0 150 72.5 267.5t168 171.5t185.5 54q53 0 135 1t121 1q16 0 54 2t61 2h22q4 0 9 -7t5 -11q0 -14 -14 -21.5t-38.5 -17.5t-39.5 -27q-31 -31 -41 -135l-60 -529q-36 -322 -56 -529q-25 -242 -144 -407t-282 -165q-76 0 -123 31q-10 6 -11 43q0 35 27 90t45 55 q12 0 18.5 -24.5t11.5 -54t30.5 -54t70.5 -24.5q139 0 185 534q2 15 2 21l30 344q4 37 4 45q0 18 -8 24t-35 6q-61 0 -109 5.5t-106.5 24t-97.5 50t-65.5 92t-26.5 142.5zM422 879q0 -162 67 -162q25 0 39.5 15.5t17.5 33.5t7 61q4 35 10 113t10 119q10 104 18.5 171.5 t11.5 83t4 26t1 24.5q0 55 -45 55q-59 0 -76 -43q-25 -61 -41 -189t-20 -208t-4 -100zM502 -104q0 -16 12 -17q8 0 28.5 44t45 133t35.5 190l114 1143v2q0 14 -12 24t-27 10q-33 0 -36 -26q-25 -180 -59 -517t-56 -583l-23 -246q-4 -49 -9 -80.5t-7 -43t-4 -18.5t-2 -15z "/>
<glyph unicode="·" horiz-adv-x="616" d="M213 680q0 16 38 61t62 45q29 0 54.5 -38.5t25.5 -69.5q0 -29 -37 -69t-53 -40q-25 0 -57.5 46.5t-32.5 64.5z"/>
<glyph unicode="¸" horiz-adv-x="899" d="M352 -162q70 68 99 68q8 0 30.5 -10.5t47 -40t24.5 -70.5q0 -86 -64.5 -139.5t-101.5 -53.5q-10 0 -10 9q0 4 20.5 16t41 36.5t20.5 61.5q0 41 -26.5 63.5t-53.5 35t-27 24.5z"/>
<glyph unicode="¹" d="M150 745q0 31 38 31h17q33 0 52 12.5t23.5 22.5t4.5 16q18 88 57 603q0 45 -33 45q-14 0 -41.5 -7.5t-34.5 -7.5q-20 0 -20 18.5t18.5 26.5t45 10.5t69.5 15.5t80 38q8 6 18.5 15t17.5 14.5t19 5.5q10 0 11 -25q0 -2 -1 -9q-11 -85 -45 -376q-31 -299 -30 -340 q0 -76 88 -80h15q9 0 12.5 -1t9.5 -2t8 -2t5 -4t4 -7t1 -10q0 -27 -37 -27q-8 0 -65.5 3t-112.5 3q-33 0 -90 -4t-74 -4q-30 -1 -30 26z"/>
<glyph unicode="º" horiz-adv-x="595" d="M41 1016q0 129 84 230.5t233 101.5q98 0 147.5 -63.5t49.5 -160.5q0 -129 -82 -232.5t-225 -103.5q-92 0 -149.5 58.5t-57.5 169.5zM145 1014q0 -88 33 -133t84 -45q106 0 156 118q37 86 37 185q0 162 -115 161q-72 0 -119 -58t-61.5 -117.5t-14.5 -110.5z"/>
<glyph unicode="»" horiz-adv-x="718" d="M80 209q0 14 102.5 120.5t102.5 110.5q0 12 -76 120t-76 118q0 6 11.5 21.5t21.5 15.5q8 0 96 -93l156 -161q8 -8 8 -17q0 -12 -14 -22l-190 -159q-107 -91 -116 -91q-10 0 -18 13.5t-8 23.5zM332 209q0 12 101.5 117.5t101.5 115.5q0 14 -76 123t-76 113q0 10 12.5 23.5 t22.5 13.5q6 0 132 -130l120 -124q8 -8 8 -16.5t-14 -22.5q-299 -250 -306 -250q-10 0 -18 13.5t-8 23.5z"/>
<glyph unicode="¼" horiz-adv-x="1789" d="M1135 139q0 2 1 23.5t1 23.5q2 31 438 582q49 61 63 61q18 0 19 -24q0 -2 -34 -270.5t-34 -286.5q0 -12 13 -12h28q29 0 41 28.5t26.5 28.5t14.5 -17q-25 -121 -31 -135q-10 -18 -18 -18h-76q-8 0 -12 -58q-2 -49 -6 -88q-6 -68 -12.5 -75.5t-49.5 -16.5q-8 0 -20 -3 t-17 -3q-29 0 -28 27q0 12 17.5 99t17.5 114q0 6 -13 6q-10 0 -136 -1t-159 -1q-25 0 -29.5 2t-4.5 14zM1243 246q0 -10 23 -10h192q25 0 29 4t6 22q45 350 45 352q0 8 -6 9q-10 0 -149.5 -176t-139.5 -201zM442 -147q0 10 81 136l213 325l249 375l246 367l145 218 q0 2 10.5 15.5t23.5 27.5t22 14q10 0 23 -9t13 -17q0 -12 -18 -43l-896 -1367q-48 -75 -56 -77q-12 -4 -23 -4q-33 0 -33 39zM150 383q0 31 38 31h17q33 0 52 12t23.5 22.5t4.5 16.5q18 88 57 602q0 45 -33 45q-14 0 -41.5 -7t-34.5 -7q-20 0 -20 18.5t18.5 26.5t45 10 t69.5 15.5t80 37.5q8 6 18.5 15.5t17.5 14.5t19 5q10 0 11 -24q0 -2 -1 -9q-11 -85 -45 -377q-31 -299 -30 -339q0 -76 88 -80h15q9 0 12.5 -1t9.5 -2t8 -2t5 -4.5t4 -7.5t1 -10q0 -27 -37 -27q-8 0 -65.5 3.5t-112.5 3.5q-33 0 -90 -4.5t-74 -4.5q-30 0 -30 27z"/>
<glyph unicode="½" horiz-adv-x="1789" d="M1196 -61v4q0 16 33 55l113 140q80 100 159 227q76 119 76 217q0 61 -29.5 98t-85.5 37q-49 0 -86 -31t-57.5 -60.5t-30.5 -29.5q-14 0 -14 22q0 16 23.5 60.5t80 90.5t125.5 46q80 0 145.5 -50t65.5 -163q0 -86 -89 -210t-177 -220t-88 -117q0 -6 35 -6q74 0 120 2 t73.5 12.5t35.5 14.5t23.5 26.5t21.5 28.5q12 14 21 14q12 0 12 -14q0 -20 -47 -113.5t-76 -93.5q-76 0 -136.5 2t-76.5 2q-14 0 -68.5 -2t-70.5 -2q-31 1 -31 13zM442 -147q0 10 81 136l213 325l249 375l246 367l145 218q0 2 10.5 15.5t23.5 27.5t22 14q10 0 23 -9t13 -17 q0 -12 -18 -43l-896 -1367q-48 -75 -56 -77q-12 -4 -23 -4q-33 0 -33 39zM150 383q0 31 38 31h17q33 0 52 12t23.5 22.5t4.5 16.5q18 88 57 602q0 45 -33 45q-14 0 -41.5 -7t-34.5 -7q-20 0 -20 18.5t18.5 26.5t45 10t69.5 15.5t80 37.5q8 6 18.5 15.5t17.5 14.5t19 5 q10 0 11 -24q0 -2 -1 -9q-11 -85 -45 -377q-31 -299 -30 -339q0 -76 88 -80h15q9 0 12.5 -1t9.5 -2t8 -2t5 -4.5t4 -7.5t1 -10q0 -27 -37 -27q-8 0 -65.5 3.5t-112.5 3.5q-33 0 -90 -4.5t-74 -4.5q-30 0 -30 27z"/>
<glyph unicode="¾" horiz-adv-x="1789" d="M1135 139q0 2 1 23.5t1 23.5q2 31 438 582q49 61 63 61q18 0 19 -24q0 -2 -34 -270.5t-34 -286.5q0 -12 13 -12h28q29 0 41 28.5t26.5 28.5t14.5 -17q-25 -121 -31 -135q-10 -18 -18 -18h-76q-8 0 -12 -58q-2 -49 -6 -88q-6 -68 -12.5 -75.5t-49.5 -16.5q-8 0 -20 -3 t-17 -3q-29 0 -28 27q0 12 17.5 99t17.5 114q0 6 -13 6q-10 0 -136 -1t-159 -1q-25 0 -29.5 2t-4.5 14zM1243 246q0 -10 23 -10h192q25 0 29 4t6 22q45 350 45 352q0 8 -6 9q-10 0 -149.5 -176t-139.5 -201zM442 -147q0 10 81 136l213 325l249 375l246 367l145 218 q0 2 10.5 15.5t23.5 27.5t22 14q10 0 23 -9t13 -17q0 -12 -18 -43l-896 -1367q-48 -75 -56 -77q-12 -4 -23 -4q-33 0 -33 39zM51 422q0 31 25 31q6 0 18 -9.5t43 -19.5t80 -10q96 0 158.5 71.5t62.5 155.5q0 68 -43 110t-129 42q-12 0 -22.5 -1t-16.5 -3.5t-8 -2.5 q-16 0 -16 23q0 8 7 11l42 18q35 16 80 45q109 68 108 170q0 49 -32.5 82.5t-85.5 33.5q-51 0 -104.5 -30.5t-57.5 -30.5q-10 0 -10 10q0 37 67.5 82t151.5 45t140 -39t56 -114q0 -59 -44 -110.5t-88 -79.5t-44 -34q0 -2 18.5 -7t45 -16t53 -31.5t45 -59.5t18.5 -92 q0 -117 -95 -215.5t-230 -98.5q-74 0 -133.5 21.5t-59.5 52.5z"/>
<glyph unicode="¿" horiz-adv-x="724" d="M106 213q0 35 9.5 68.5t27 62.5t30.5 47.5t32.5 41t23.5 26.5l46 57l43 54l38 46q24 30 32.5 45t25 39.5t23.5 41t14.5 36t10.5 38t3 36.5q0 12 -3 35.5t-3 32.5q0 20 18 20q51 0 51 -133q0 -75 -68 -193l-134 -229q-68 -111 -68 -164q0 -63 54.5 -109t111.5 -46 q39 0 79 19t52 19q16 0 16 -12q0 -29 -65.5 -75t-140.5 -46q-98 0 -178.5 68t-80.5 174zM395 1231q0 10 9.5 20.5t31.5 28.5l29 25q61 61 67.5 61t13.5 -3t14 -9t11 -11.5t13.5 -16.5t13.5 -15q10 -12 27.5 -28.5t27 -28t9.5 -19.5q0 -18 -72 -72q-16 -12 -32.5 -29.5 t-27 -23.5t-24.5 -6q-4 0 -9 2t-11.5 9t-11.5 13l-14 19q-9 12 -18 20q-47 54 -47 64z"/>
<glyph unicode="À" horiz-adv-x="1579" d="M760 1839q0 25 43 39t63.5 14t32.5 -37q33 -106 64.5 -178.5t44 -96.5t12.5 -32q0 -20 -21 -20q-23 0 -131 137t-108 174zM41 18q0 27 51 43q20 8 32.5 15.5t27.5 19.5q16 14 32 38l34 56q20 32 50 88l68 124l94 170l122 222l160 284l199 352q16 29 23.5 34.5t24 5.5 t23.5 -14t30 -94l61 -215q47 -159 169 -531l134 -407q35 -90 53.5 -111.5t77.5 -40.5q33 -10 33 -41q0 -20 -63 -20q-23 0 -63 3t-71 3q-37 0 -94 -5t-96 -5q-55 0 -55 22q0 18 21.5 30.5t46 17t46 22.5t21.5 49q0 35 -16.5 99.5t-39 138t-28.5 98.5q-10 46 -44 55 q-14 4 -32 4q-10 0 -90 -1t-158 -1q-156 0 -207 3t-67 3q-55 0 -72 -30q-57 -100 -100 -187.5t-58.5 -127.5t-15.5 -46q0 -51 35 -68.5t69.5 -22.5t34.5 -25q0 -10 -2 -17.5t-7 -9.5t-8 -2h-13q-43 0 -82 1t-60.5 2t-35.5 1q-18 0 -65.5 -2t-88.5 -2.5t-41 22.5zM555 639 q0 -16 68 -16h35q26 0 121 1t270 1q16 0 23 5t8 10t1 15q0 25 -89 295.5t-107 270.5q-10 0 -170 -287t-160 -295z"/>
<glyph unicode="Á" horiz-adv-x="1579" d="M874 1544q0 8 5.5 16.5t20.5 28t34 47.5q20 30 54 88l73 131q18 37 40.5 37t59.5 -13t37 -34q0 -33 -141.5 -175t-165.5 -142q-17 0 -17 16zM41 18q0 27 51 43q20 8 32.5 15.5t27.5 19.5q16 14 32 38l34 56q20 32 50 88l68 124l94 170l122 222l160 284l199 352 q16 29 23.5 34.5t24 5.5t23.5 -14t30 -94l61 -215q47 -159 169 -531l134 -407q35 -90 53.5 -111.5t77.5 -40.5q33 -10 33 -41q0 -20 -63 -20q-23 0 -63 3t-71 3q-37 0 -94 -5t-96 -5q-55 0 -55 22q0 18 21.5 30.5t46 17t46 22.5t21.5 49q0 35 -16.5 99.5t-39 138t-28.5 98.5 q-10 46 -44 55q-14 4 -32 4q-10 0 -90 -1t-158 -1q-156 0 -207 3t-67 3q-55 0 -72 -30q-57 -100 -100 -187.5t-58.5 -127.5t-15.5 -46q0 -51 35 -68.5t69.5 -22.5t34.5 -25q0 -10 -2 -17.5t-7 -9.5t-8 -2h-13q-43 0 -82 1t-60.5 2t-35.5 1q-18 0 -65.5 -2t-88.5 -2.5 t-41 22.5zM555 639q0 -16 68 -16h35q26 0 121 1t270 1q16 0 23 5t8 10t1 15q0 25 -89 295.5t-107 270.5q-10 0 -170 -287t-160 -295z"/>
<glyph unicode="Â" horiz-adv-x="1579" d="M725 1563q0 2 8 14l61 78l46 63l34 48q16 22 24 36q8 15 16 27l12 18q4 6 8 10.5t7 5.5t9 1h54q20 0 28 -21q29 -61 67 -129l59 -104q20 -37 20 -45q0 -12 -16.5 -12.5t-101.5 86.5t-93 87q-16 0 -115.5 -86t-112.5 -86q-14 1 -14 9zM41 18q0 27 51 43q20 8 32.5 15.5 t27.5 19.5q16 14 32 38l34 56q20 32 50 88l68 124l94 170l122 222l160 284l199 352q16 29 23.5 34.5t24 5.5t23.5 -14t30 -94l61 -215q47 -159 169 -531l134 -407q35 -90 53.5 -111.5t77.5 -40.5q33 -10 33 -41q0 -20 -63 -20q-23 0 -63 3t-71 3q-37 0 -94 -5t-96 -5 q-55 0 -55 22q0 18 21.5 30.5t46 17t46 22.5t21.5 49q0 35 -16.5 99.5t-39 138t-28.5 98.5q-10 46 -44 55q-14 4 -32 4q-10 0 -90 -1t-158 -1q-156 0 -207 3t-67 3q-55 0 -72 -30q-57 -100 -100 -187.5t-58.5 -127.5t-15.5 -46q0 -51 35 -68.5t69.5 -22.5t34.5 -25 q0 -10 -2 -17.5t-7 -9.5t-8 -2h-13q-43 0 -82 1t-60.5 2t-35.5 1q-18 0 -65.5 -2t-88.5 -2.5t-41 22.5zM555 639q0 -16 68 -16h35q26 0 121 1t270 1q16 0 23 5t8 10t1 15q0 25 -89 295.5t-107 270.5q-10 0 -170 -287t-160 -295z"/>
<glyph unicode="Ã" horiz-adv-x="1579" d="M657 1634q0 33 82 118t138 85q47 0 120.5 -49t124.5 -49q33 0 59.5 28.5t45 57t30.5 28.5q18 0 19 -22q0 -37 -81 -118t-136 -81q-51 0 -127 49.5t-119 49.5q-33 0 -60.5 -30t-47 -58.5t-31.5 -28.5q-17 0 -17 20zM41 18q0 27 51 43q20 8 32.5 15.5t27.5 19.5 q16 14 32 38l34 56q20 32 50 88l68 124l94 170l122 222l160 284l199 352q16 29 23.5 34.5t24 5.5t23.5 -14t30 -94l61 -215q47 -159 169 -531l134 -407q35 -90 53.5 -111.5t77.5 -40.5q33 -10 33 -41q0 -20 -63 -20q-23 0 -63 3t-71 3q-37 0 -94 -5t-96 -5q-55 0 -55 22 q0 18 21.5 30.5t46 17t46 22.5t21.5 49q0 35 -16.5 99.5t-39 138t-28.5 98.5q-10 46 -44 55q-14 4 -32 4q-10 0 -90 -1t-158 -1q-156 0 -207 3t-67 3q-55 0 -72 -30q-57 -100 -100 -187.5t-58.5 -127.5t-15.5 -46q0 -51 35 -68.5t69.5 -22.5t34.5 -25q0 -10 -2 -17.5 t-7 -9.5t-8 -2h-13q-43 0 -82 1t-60.5 2t-35.5 1q-18 0 -65.5 -2t-88.5 -2.5t-41 22.5zM555 639q0 -16 68 -16h35q26 0 121 1t270 1q16 0 23 5t8 10t1 15q0 25 -89 295.5t-107 270.5q-10 0 -170 -287t-160 -295z"/>
<glyph unicode="Ä" horiz-adv-x="1579" d="M741 1747q0 25 36 64.5t67 39.5q29 0 55.5 -32.5t26.5 -63.5t-39 -69.5t-56 -38.5q-37 0 -63.5 34.5t-26.5 65.5zM1057 1747q0 25 36.5 64.5t67.5 39.5q29 0 55.5 -32.5t26.5 -63.5t-40 -69.5t-56 -38.5q-37 0 -63.5 34.5t-26.5 65.5zM41 18q0 27 51 43q20 8 32.5 15.5 t27.5 19.5q16 14 32 38l34 56q20 32 50 88l68 124l94 170l122 222l160 284l199 352q16 29 23.5 34.5t24 5.5t23.5 -14t30 -94l61 -215q47 -159 169 -531l134 -407q35 -90 53.5 -111.5t77.5 -40.5q33 -10 33 -41q0 -20 -63 -20q-23 0 -63 3t-71 3q-37 0 -94 -5t-96 -5 q-55 0 -55 22q0 18 21.5 30.5t46 17t46 22.5t21.5 49q0 35 -16.5 99.5t-39 138t-28.5 98.5q-10 46 -44 55q-14 4 -32 4q-10 0 -90 -1t-158 -1q-156 0 -207 3t-67 3q-55 0 -72 -30q-57 -100 -100 -187.5t-58.5 -127.5t-15.5 -46q0 -51 35 -68.5t69.5 -22.5t34.5 -25 q0 -10 -2 -17.5t-7 -9.5t-8 -2h-13q-43 0 -82 1t-60.5 2t-35.5 1q-18 0 -65.5 -2t-88.5 -2.5t-41 22.5zM555 639q0 -16 68 -16h35q26 0 121 1t270 1q16 0 23 5t8 10t1 15q0 25 -89 295.5t-107 270.5q-10 0 -170 -287t-160 -295z"/>
<glyph unicode="Å" horiz-adv-x="1579" d="M817 1729q0 70 54.5 123t117.5 53q66 0 98.5 -46.5t32.5 -99.5q0 -78 -63.5 -124t-102.5 -46q-78 0 -107.5 43.5t-29.5 96.5zM885 1737q0 -35 20.5 -56.5t55.5 -21.5q27 0 59.5 24.5t32.5 75.5q0 74 -74 74q-31 0 -62.5 -26.5t-31.5 -69.5zM41 18q0 27 51 43 q20 8 32.5 15.5t27.5 19.5q16 14 32 38l34 56q20 32 50 88l68 124l94 170l122 222l160 284l199 352q16 29 23.5 34.5t24 5.5t23.5 -14t30 -94l61 -215q47 -159 169 -531l134 -407q35 -90 53.5 -111.5t77.5 -40.5q33 -10 33 -41q0 -20 -63 -20q-23 0 -63 3t-71 3 q-37 0 -94 -5t-96 -5q-55 0 -55 22q0 18 21.5 30.5t46 17t46 22.5t21.5 49q0 35 -16.5 99.5t-39 138t-28.5 98.5q-10 46 -44 55q-14 4 -32 4q-10 0 -90 -1t-158 -1q-156 0 -207 3t-67 3q-55 0 -72 -30q-57 -100 -100 -187.5t-58.5 -127.5t-15.5 -46q0 -51 35 -68.5 t69.5 -22.5t34.5 -25q0 -10 -2 -17.5t-7 -9.5t-8 -2h-13q-43 0 -82 1t-60.5 2t-35.5 1q-18 0 -65.5 -2t-88.5 -2.5t-41 22.5zM555 639q0 -16 68 -16h35q26 0 121 1t270 1q16 0 23 5t8 10t1 15q0 25 -89 295.5t-107 270.5q-10 0 -170 -287t-160 -295z"/>
<glyph unicode="Æ" horiz-adv-x="2207" d="M41 14q0 25 57 47q25 8 41.5 18.5t34.5 28.5q18 17 48 56l67 88l105 142l148 200l209 280l277 363l80 102q10 16 10 27q0 23 -62.5 25t-62.5 24q0 29 47 29h222q29 0 164 -2t243 -2q43 0 244 5t229 5q35 0 35 -41q0 -10 -3 -45t-3 -61q0 -14 3 -51.5t3 -59.5 q0 -20 -7 -39.5t-20 -19.5q-18 0 -24 14t-6 34.5t-8.5 52.5t-30.5 56q-8 10 -28.5 22.5t-72 27t-114.5 14.5q-76 0 -166 3t-152 3q-90 0 -108.5 -19.5t-34.5 -117.5q-51 -358 -51 -416q0 -20 14 -25.5t74 -5.5q264 0 327.5 9.5t90.5 41.5q16 20 27 42t15.5 35.5t10.5 21.5 t14 8q27 0 27 -25q0 -20 -17.5 -98t-23.5 -115q-4 -23 -4 -80t-7.5 -89.5t-25.5 -32.5q-23 0 -23 34q0 98 -34 123q-57 43 -220 43h-99q-38 0 -48 1t-16 1h-13q-76 0 -77 -37q-6 -61 -26 -183t-34 -216t-14 -108q0 -49 48 -61.5t210 -12.5q174 0 296 31.5t166 68.5t73.5 69 t41.5 32q20 0 21 -27q0 -55 -87 -163.5t-153 -108.5q-147 0 -366 10t-265 10q-57 0 -119.5 -2t-111.5 -2q-72 0 -72 29q0 8 12.5 17t34.5 11q76 4 99.5 77t70.5 386q-16 12 -43 12q-10 0 -83.5 -1t-147.5 -1q-145 0 -192.5 3t-61.5 3q-49 0 -72 -30q-78 -100 -137 -187.5 t-82.5 -127.5t-25.5 -46q-2 -10 -2 -26q0 -43 52 -55.5t52 -28.5q0 -23 -10 -29t-41 -6q-10 0 -64.5 2t-95.5 2q-16 0 -60 -2t-83 -2q-33 0 -33 18zM674 639q0 -16 57 -16h53q47 0 151.5 1t252.5 1l55 487q4 45 11.5 94t10.5 76t3 41q0 39 -27 39q-20 0 -65 -53l-310 -409 q-192 -255 -192 -261z"/>
<glyph unicode="Ç" horiz-adv-x="1560" d="M682 -162q70 68 98 68q8 0 31 -10.5t47.5 -40t24.5 -70.5q0 -86 -64.5 -139.5t-101.5 -53.5q-10 0 -10 9q0 4 20.5 16t40.5 36.5t20 61.5q0 41 -26.5 63.5t-53 35t-26.5 24.5zM80 639q0 152 49 294t144.5 261t251 189.5t352.5 70.5q125 0 243.5 -39t185.5 -78l66 -39 q6 0 21.5 16.5t23.5 16.5q25 0 25 -33q0 -88 3 -149.5t6 -83t6 -39.5t3 -33q0 -49 -28 -49q-14 0 -24.5 16.5t-26 60.5t-23.5 64q-25 63 -52.5 97.5t-76.5 66.5q-186 127 -385 127q-184 0 -322.5 -103.5t-203 -258t-64.5 -330.5q0 -301 166 -478t395 -177q256 0 442 211 q25 27 45.5 70.5t35 69.5t32.5 26q33 0 32 -37q0 -14 -4.5 -35t-15 -49.5t-14.5 -42.5q-8 -29 -15 -64t-12.5 -48t-19.5 -21q-297 -156 -547 -156q-172 0 -308 57.5t-219 154.5t-125 218t-42 256z"/>
<glyph unicode="È" horiz-adv-x="1292" d="M604 1839q0 25 43 39t63.5 14t32.5 -37q33 -106 65 -178.5t44 -96.5t12 -32q0 -20 -20 -20q-23 0 -131.5 137t-108.5 174zM41 29q0 27 45 28q47 2 72.5 33t36 68t26.5 140q4 23 6 36q0 6 16.5 106.5t24.5 165.5l74 621q2 18 2 43q0 57 -24.5 84.5t-53 29.5t-53.5 9.5 t-25 25.5q0 31 48 31q18 0 84.5 -1t182 -2t251.5 -1q43 0 243.5 4t229.5 4q37 0 37 -39q0 -10 -4.5 -46t-4.5 -62q0 -14 3.5 -51t3.5 -60q0 -57 -27 -57q-18 0 -24.5 14t-6.5 34.5t-8 51.5t-31 55q-8 10 -28.5 22.5t-71.5 28t-115 15.5q-78 0 -166 3t-149 3 q-90 0 -109.5 -20.5t-36.5 -118.5q-51 -358 -51 -416q0 -20 13.5 -24.5t74.5 -4.5q266 0 329 8.5t89 40.5q20 25 32.5 53.5t18.5 41t19 12.5q25 0 24 -23q0 -18 -17 -95t-24 -118q-4 -23 -4 -80t-7 -89.5t-25 -32.5q-23 0 -23 32q0 98 -35 123q-59 43 -219 43h-99 q-38 0 -47.5 1t-15.5 1h-12q-78 0 -80 -34q-6 -62 -26 -184l-34 -216q-14 -94 -14 -108q0 -49 49.5 -62.5t208.5 -13.5q174 0 296 31.5t166 69.5t74 70t42 32q20 0 20 -29q0 -55 -86 -163.5t-151 -108.5q-147 0 -367.5 11t-265.5 11q-57 0 -118.5 -3t-110.5 -3q-72 0 -72 29 z"/>
<glyph unicode="É" horiz-adv-x="1292" d="M719 1544q0 8 5 16.5t20.5 28t35.5 47.5l52 88l73 131q18 37 41 37t59.5 -13t36.5 -34q0 -33 -141 -175t-166 -142q-16 0 -16 16zM41 29q0 27 45 28q47 2 72.5 33t36 68t26.5 140q4 23 6 36q0 6 16.5 106.5t24.5 165.5l74 621q2 18 2 43q0 57 -24.5 84.5t-53 29.5 t-53.5 9.5t-25 25.5q0 31 48 31q18 0 84.5 -1t182 -2t251.5 -1q43 0 243.5 4t229.5 4q37 0 37 -39q0 -10 -4.5 -46t-4.5 -62q0 -14 3.5 -51t3.5 -60q0 -57 -27 -57q-18 0 -24.5 14t-6.5 34.5t-8 51.5t-31 55q-8 10 -28.5 22.5t-71.5 28t-115 15.5q-78 0 -166 3t-149 3 q-90 0 -109.5 -20.5t-36.5 -118.5q-51 -358 -51 -416q0 -20 13.5 -24.5t74.5 -4.5q266 0 329 8.5t89 40.5q20 25 32.5 53.5t18.5 41t19 12.5q25 0 24 -23q0 -18 -17 -95t-24 -118q-4 -23 -4 -80t-7 -89.5t-25 -32.5q-23 0 -23 32q0 98 -35 123q-59 43 -219 43h-99 q-38 0 -47.5 1t-15.5 1h-12q-78 0 -80 -34q-6 -62 -26 -184l-34 -216q-14 -94 -14 -108q0 -49 49.5 -62.5t208.5 -13.5q174 0 296 31.5t166 69.5t74 70t42 32q20 0 20 -29q0 -55 -86 -163.5t-151 -108.5q-147 0 -367.5 11t-265.5 11q-57 0 -118.5 -3t-110.5 -3q-72 0 -72 29 z"/>
<glyph unicode="Ê" horiz-adv-x="1292" d="M569 1563q0 2 9 14l60 78l46 63l34 48q16 22 24 36.5t16 26.5l12 18q4 6 8 10.5t7 5.5t10 1h53q20 0 29 -21q29 -61 67 -129l58 -104q20 -37 20 -45q0 -12 -16.5 -12.5t-101.5 86.5t-93 87q-16 0 -115.5 -86t-111.5 -86q-15 1 -15 9zM41 29q0 27 45 28q47 2 72.5 33 t36 68t26.5 140q4 23 6 36q0 6 16.5 106.5t24.5 165.5l74 621q2 18 2 43q0 57 -24.5 84.5t-53 29.5t-53.5 9.5t-25 25.5q0 31 48 31q18 0 84.5 -1t182 -2t251.5 -1q43 0 243.5 4t229.5 4q37 0 37 -39q0 -10 -4.5 -46t-4.5 -62q0 -14 3.5 -51t3.5 -60q0 -57 -27 -57 q-18 0 -24.5 14t-6.5 34.5t-8 51.5t-31 55q-8 10 -28.5 22.5t-71.5 28t-115 15.5q-78 0 -166 3t-149 3q-90 0 -109.5 -20.5t-36.5 -118.5q-51 -358 -51 -416q0 -20 13.5 -24.5t74.5 -4.5q266 0 329 8.5t89 40.5q20 25 32.5 53.5t18.5 41t19 12.5q25 0 24 -23q0 -18 -17 -95 t-24 -118q-4 -23 -4 -80t-7 -89.5t-25 -32.5q-23 0 -23 32q0 98 -35 123q-59 43 -219 43h-99q-38 0 -47.5 1t-15.5 1h-12q-78 0 -80 -34q-6 -62 -26 -184l-34 -216q-14 -94 -14 -108q0 -49 49.5 -62.5t208.5 -13.5q174 0 296 31.5t166 69.5t74 70t42 32q20 0 20 -29 q0 -55 -86 -163.5t-151 -108.5q-147 0 -367.5 11t-265.5 11q-57 0 -118.5 -3t-110.5 -3q-72 0 -72 29z"/>
<glyph unicode="Ë" horiz-adv-x="1292" d="M586 1747q0 25 35.5 64.5t66.5 39.5q29 0 55.5 -32.5t26.5 -63.5t-39 -69.5t-55 -38.5q-37 0 -63.5 34.5t-26.5 65.5zM901 1747q0 25 37 64.5t68 39.5q29 0 55 -32.5t26 -63.5t-39.5 -69.5t-56.5 -38.5q-37 0 -63.5 34.5t-26.5 65.5zM41 29q0 27 45 28q47 2 72.5 33 t36 68t26.5 140q4 23 6 36q0 6 16.5 106.5t24.5 165.5l74 621q2 18 2 43q0 57 -24.5 84.5t-53 29.5t-53.5 9.5t-25 25.5q0 31 48 31q18 0 84.5 -1t182 -2t251.5 -1q43 0 243.5 4t229.5 4q37 0 37 -39q0 -10 -4.5 -46t-4.5 -62q0 -14 3.5 -51t3.5 -60q0 -57 -27 -57 q-18 0 -24.5 14t-6.5 34.5t-8 51.5t-31 55q-8 10 -28.5 22.5t-71.5 28t-115 15.5q-78 0 -166 3t-149 3q-90 0 -109.5 -20.5t-36.5 -118.5q-51 -358 -51 -416q0 -20 13.5 -24.5t74.5 -4.5q266 0 329 8.5t89 40.5q20 25 32.5 53.5t18.5 41t19 12.5q25 0 24 -23q0 -18 -17 -95 t-24 -118q-4 -23 -4 -80t-7 -89.5t-25 -32.5q-23 0 -23 32q0 98 -35 123q-59 43 -219 43h-99q-38 0 -47.5 1t-15.5 1h-12q-78 0 -80 -34q-6 -62 -26 -184l-34 -216q-14 -94 -14 -108q0 -49 49.5 -62.5t208.5 -13.5q174 0 296 31.5t166 69.5t74 70t42 32q20 0 20 -29 q0 -55 -86 -163.5t-151 -108.5q-147 0 -367.5 11t-265.5 11q-57 0 -118.5 -3t-110.5 -3q-72 0 -72 29z"/>
<glyph unicode="Ì" horiz-adv-x="665" d="M213 1839q0 25 43 39t63.5 14t32.5 -37q33 -106 65 -178.5t44 -96.5t12 -32q0 -20 -20 -20q-23 0 -131.5 137t-108.5 174zM41 23q0 14 12.5 20t27.5 7t35.5 11.5t35.5 30.5q27 39 30 70q4 40 42 328l69 531q31 243 31 247q0 53 -35 78.5t-87 31.5t-55 8q-16 6 -16 25 q0 31 55 31q23 0 84.5 -8.5t126.5 -8.5q49 0 113.5 6.5t79.5 6.5q37 0 37 -29q0 -14 -19.5 -19.5t-47.5 -12.5t-40 -21q-41 -47 -59 -240q-25 -231 -55 -448l-48 -327q-16 -110 -16 -138q0 -45 6 -76t21.5 -45t24.5 -20.5t34 -10.5t31 -6q8 -2 18 -4t17.5 -3t13.5 -3t9 -6 t3 -11q0 -14 -6 -20t-12 -7t-25 -1q-6 0 -82 6t-125 6q-31 0 -84 -6t-73 -6q-72 0 -72 33z"/>
<glyph unicode="Í" horiz-adv-x="665" d="M328 1544q0 8 5 16.5t20.5 28t34.5 47.5q20 30 54 88l72 131q18 37 41 37t59.5 -13t36.5 -34q0 -33 -141 -175t-166 -142q-16 0 -16 16zM41 23q0 14 12.5 20t27.5 7t35.5 11.5t35.5 30.5q27 39 30 70q4 40 42 328l69 531q31 243 31 247q0 53 -35 78.5t-87 31.5t-55 8 q-16 6 -16 25q0 31 55 31q23 0 84.5 -8.5t126.5 -8.5q49 0 113.5 6.5t79.5 6.5q37 0 37 -29q0 -14 -19.5 -19.5t-47.5 -12.5t-40 -21q-41 -47 -59 -240q-25 -231 -55 -448l-48 -327q-16 -110 -16 -138q0 -45 6 -76t21.5 -45t24.5 -20.5t34 -10.5t31 -6q8 -2 18 -4t17.5 -3 t13.5 -3t9 -6t3 -11q0 -14 -6 -20t-12 -7t-25 -1q-6 0 -82 6t-125 6q-31 0 -84 -6t-73 -6q-72 0 -72 33z"/>
<glyph unicode="Î" horiz-adv-x="665" d="M178 1563q0 2 8 14l60 78l46 63l34 48q16 22 24 36.5t16 26.5l13 18q4 6 8 10.5t7 5.5t9 1h54q20 0 28 -21q29 -61 67 -129l58 -104q20 -37 21 -45q0 -12 -16.5 -12.5t-101.5 86.5t-93 87q-16 0 -115.5 -86t-111.5 -86q-15 1 -15 9zM41 23q0 14 12.5 20t27.5 7t35.5 11.5 t35.5 30.5q27 39 30 70q4 40 42 328l69 531q31 243 31 247q0 53 -35 78.5t-87 31.5t-55 8q-16 6 -16 25q0 31 55 31q23 0 84.5 -8.5t126.5 -8.5q49 0 113.5 6.5t79.5 6.5q37 0 37 -29q0 -14 -19.5 -19.5t-47.5 -12.5t-40 -21q-41 -47 -59 -240q-25 -231 -55 -448l-48 -327 q-16 -110 -16 -138q0 -45 6 -76t21.5 -45t24.5 -20.5t34 -10.5t31 -6q8 -2 18 -4t17.5 -3t13.5 -3t9 -6t3 -11q0 -14 -6 -20t-12 -7t-25 -1q-6 0 -82 6t-125 6q-31 0 -84 -6t-73 -6q-72 0 -72 33z"/>
<glyph unicode="Ï" horiz-adv-x="665" d="M195 1747q0 25 35.5 64.5t66.5 39.5q29 0 55.5 -32.5t26.5 -63.5t-39 -69.5t-55 -38.5q-37 0 -63.5 34.5t-26.5 65.5zM510 1747q0 25 37 64.5t67 39.5q29 0 55.5 -32.5t26.5 -63.5t-40 -69.5t-56 -38.5q-37 0 -63.5 34.5t-26.5 65.5zM41 23q0 14 12.5 20t27.5 7 t35.5 11.5t35.5 30.5q27 39 30 70q4 40 42 328l69 531q31 243 31 247q0 53 -35 78.5t-87 31.5t-55 8q-16 6 -16 25q0 31 55 31q23 0 84.5 -8.5t126.5 -8.5q49 0 113.5 6.5t79.5 6.5q37 0 37 -29q0 -14 -19.5 -19.5t-47.5 -12.5t-40 -21q-41 -47 -59 -240q-25 -231 -55 -448 l-48 -327q-16 -110 -16 -138q0 -45 6 -76t21.5 -45t24.5 -20.5t34 -10.5t31 -6q8 -2 18 -4t17.5 -3t13.5 -3t9 -6t3 -11q0 -14 -6 -20t-12 -7t-25 -1q-6 0 -82 6t-125 6q-31 0 -84 -6t-73 -6q-72 0 -72 33z"/>
<glyph unicode="Ð" horiz-adv-x="1570" d="M41 27q0 16 16.5 23t38 10t46 24.5t38.5 65.5q8 24 26 152l35 244l15 116q0 18 -7 22t-26 4h-102q-27 0 -27 45q0 18 7.5 31.5t15.5 13.5q16 0 69.5 -2t67.5 -2q16 0 19 7t8 50l57 431q4 33 4 36q0 31 -28.5 56.5t-63.5 27.5q-94 6 -94 45q0 37 63 37q35 0 95.5 -11 t111.5 -11t142 10t177 10q389 0 572.5 -162.5t183.5 -414.5q0 -258 -160 -504q-45 -72 -130 -153t-138 -111q-193 -117 -463 -117q-53 0 -137 3t-180 3q-72 0 -134.5 -8t-72.5 -8q-18 0 -31.5 11.5t-13.5 25.5zM352 145q0 -37 20.5 -56t78.5 -19h180q90 0 212 43t206 118 q82 76 140 175.5t81.5 195.5t33 161.5t9.5 119.5q0 66 -14.5 128t-55.5 130.5t-104.5 119t-171 83t-244.5 32.5q-127 0 -164 -16.5t-59 -95.5q-6 -20 -23.5 -139t-31.5 -228l-13 -109q0 -14 27 -14q37 0 182 3t160 3q25 0 24 -47q0 -43 -16 -43q-12 0 -81 -1t-126 -1h-151 q-23 0 -27 -5t-8 -32l-16 -124l-32 -250q-16 -126 -16 -132z"/>
<glyph unicode="Ñ" horiz-adv-x="1646" d="M582 1634q0 33 81.5 118t137.5 85q47 0 120.5 -49t125.5 -49q33 0 59.5 28.5t44.5 57t31 28.5q18 0 18 -22q0 -37 -81 -118t-136 -81q-51 0 -127 49.5t-119 49.5q-33 0 -60.5 -30t-47 -58.5t-31.5 -28.5q-16 0 -16 20zM41 12q0 10 8 16.5t19.5 9.5t29 9t29.5 19 q16 14 29.5 30.5t23.5 44t16.5 49t15.5 71.5t14 85t17.5 115t20.5 137q4 29 21.5 132.5t27 164.5t18.5 143t9 131q0 27 -4 49.5t-8 35t-18.5 29.5t-18.5 22.5t-25.5 25t-25.5 23.5q-25 23 -72 25.5t-79 6t-32 29.5q0 39 138 39q12 0 41.5 -3t44.5 -3q4 0 28.5 1t32.5 1 q10 0 17.5 -1t14.5 -4t10 -5t11 -12q9 -9 13 -15l15 -21l19 -28q485 -672 716 -1038q41 -65 52 -66q39 0 99.5 468t60.5 534q0 57 -25.5 87.5t-57.5 36t-57.5 16.5t-25.5 36q0 20 51 20q8 0 66.5 -4t89.5 -4q49 0 89 4t54 4q33 0 43.5 -6t10.5 -22q0 -6 -3 -10.5t-11.5 -7.5 t-14.5 -4t-16.5 -4t-16.5 -5q-55 -16 -79.5 -88t-41.5 -209q-86 -723 -159 -1059q-2 -16 -14.5 -35.5t-28.5 -19.5q-14 0 -30.5 18.5t-47.5 67.5l-69 112l-110 176q-72 114 -157 232l-126 180l-92 130l-59 81q-26 37 -38.5 56.5t-18.5 31.5q-12 25 -33 25q-29 0 -39 -97 q-23 -227 -65.5 -490t-42.5 -349q0 -80 80 -105l23 -6l24 -6q8 -2 18.5 -6t14.5 -10t4 -15q0 -25 -35 -24q-10 0 -53 3t-152 3q-41 0 -83 -3t-50 -3q-45 -1 -45 22z"/>
<glyph unicode="Ò" horiz-adv-x="1669" d="M707 1839q0 25 43 39t63.5 14t32.5 -37q33 -106 64.5 -178.5t44 -96.5t12.5 -32q0 -20 -21 -20q-23 0 -131 137t-108 174zM80 643q0 152 54 297t154.5 264t257 190.5t343.5 71.5q174 0 312 -58t220 -156.5t125 -221.5t43 -260q0 -145 -48 -285.5t-141 -260.5t-247 -192.5 t-346 -72.5q-328 0 -527.5 188.5t-199.5 495.5zM256 711q0 -315 168 -496.5t397 -181.5q178 0 316.5 112.5t205 279.5t66.5 353q0 180 -43 289q-59 154 -189 246t-317 92q-145 0 -264 -66.5t-190.5 -171t-110.5 -223t-39 -233.5z"/>
<glyph unicode="Ó" horiz-adv-x="1669" d="M821 1544q0 8 5 16.5t20.5 28t35.5 47.5l53 88l73 131q18 37 40.5 37t59.5 -13t37 -34q0 -33 -141.5 -175t-165.5 -142q-17 0 -17 16zM80 643q0 152 54 297t154.5 264t257 190.5t343.5 71.5q174 0 312 -58t220 -156.5t125 -221.5t43 -260q0 -145 -48 -285.5t-141 -260.5 t-247 -192.5t-346 -72.5q-328 0 -527.5 188.5t-199.5 495.5zM256 711q0 -315 168 -496.5t397 -181.5q178 0 316.5 112.5t205 279.5t66.5 353q0 180 -43 289q-59 154 -189 246t-317 92q-145 0 -264 -66.5t-190.5 -171t-110.5 -223t-39 -233.5z"/>
<glyph unicode="Ô" horiz-adv-x="1669" d="M672 1563q0 2 8 14l60 78l46 63l34 48q16 22 24 36.5t16 26.5t12.5 18t8.5 10.5t7 5.5t9 1h53q20 0 29 -21q29 -61 67 -129l58 -104q20 -37 20 -45q0 -12 -16 -12.5t-101 86.5t-94 87q-16 0 -115.5 -86t-111.5 -86q-14 1 -14 9zM80 643q0 152 54 297t154.5 264t257 190.5 t343.5 71.5q174 0 312 -58t220 -156.5t125 -221.5t43 -260q0 -145 -48 -285.5t-141 -260.5t-247 -192.5t-346 -72.5q-328 0 -527.5 188.5t-199.5 495.5zM256 711q0 -315 168 -496.5t397 -181.5q178 0 316.5 112.5t205 279.5t66.5 353q0 180 -43 289q-59 154 -189 246 t-317 92q-145 0 -264 -66.5t-190.5 -171t-110.5 -223t-39 -233.5z"/>
<glyph unicode="Õ" horiz-adv-x="1669" d="M604 1634q0 33 82 118t137 85q47 0 121 -49t125 -49q33 0 59.5 28.5t45 57t30.5 28.5q18 0 19 -22q0 -37 -81 -118t-136 -81q-51 0 -127 49.5t-119 49.5q-33 0 -60.5 -30t-47 -58.5t-31.5 -28.5q-17 0 -17 20zM80 643q0 152 54 297t154.5 264t257 190.5t343.5 71.5 q174 0 312 -58t220 -156.5t125 -221.5t43 -260q0 -145 -48 -285.5t-141 -260.5t-247 -192.5t-346 -72.5q-328 0 -527.5 188.5t-199.5 495.5zM256 711q0 -315 168 -496.5t397 -181.5q178 0 316.5 112.5t205 279.5t66.5 353q0 180 -43 289q-59 154 -189 246t-317 92 q-145 0 -264 -66.5t-190.5 -171t-110.5 -223t-39 -233.5z"/>
<glyph unicode="Ö" horiz-adv-x="1669" d="M688 1747q0 25 36 64.5t67 39.5q29 0 55 -32.5t26 -63.5t-38.5 -69.5t-55.5 -38.5q-37 0 -63.5 34.5t-26.5 65.5zM1004 1747q0 25 36.5 64.5t67.5 39.5q29 0 55.5 -32.5t26.5 -63.5t-40 -69.5t-56 -38.5q-37 0 -63.5 34.5t-26.5 65.5zM80 643q0 152 54 297t154.5 264 t257 190.5t343.5 71.5q174 0 312 -58t220 -156.5t125 -221.5t43 -260q0 -145 -48 -285.5t-141 -260.5t-247 -192.5t-346 -72.5q-328 0 -527.5 188.5t-199.5 495.5zM256 711q0 -315 168 -496.5t397 -181.5q178 0 316.5 112.5t205 279.5t66.5 353q0 180 -43 289 q-59 154 -189 246t-317 92q-145 0 -264 -66.5t-190.5 -171t-110.5 -223t-39 -233.5z"/>
<glyph unicode="×" horiz-adv-x="1040" d="M162 125q0 10 16 27l246 247q18 18 18 30.5t-14 27.5l-254 254q-12 12 -12 22q0 12 21.5 32.5t33.5 20.5t29 -16l237 -235q25 -25 39.5 -25t24.5 10l256 256q12 12 22.5 12t32 -20t21.5 -33q0 -10 -21 -30l-248 -248q-14 -14 -14 -27q0 -10 14 -24l254 -254 q14 -14 15 -25q0 -12 -22.5 -33.5t-33 -21.5t-24.5 14l-252 254q-14 14 -29 14q-10 0 -33 -22l-243 -246q-14 -14 -27 -14q-10 0 -31.5 20.5t-21.5 32.5z"/>
<glyph unicode="Ø" horiz-adv-x="1669" d="M80 643q0 152 54 297t154.5 264t257 190.5t343.5 71.5q51 0 97 -5t77 -11t53.5 -12t35.5 -11.5t15 -5.5q6 0 25 35l72 127q18 31 39 31q12 0 32.5 -12.5t20.5 -28.5q0 -4 -4 -17l-78 -135q-4 -8 -8 -14l-6 -10q-2 -4 -4.5 -6t-2.5 -5l19 -11q18 -11 48 -33.5t65.5 -55.5 t71.5 -83t65.5 -110.5t48 -144.5t18.5 -178q0 -145 -48 -285.5t-141 -260.5t-247 -192.5t-346 -72.5q-59 0 -114.5 6t-93.5 16.5t-66.5 19.5t-44 15.5t-17.5 6.5q-4 0 -31 -50l-98 -170q-20 -31 -33 -30q-16 0 -36.5 14t-20.5 27q0 14 6 24l104 176l27 47q0 2 -31.5 23.5 t-76.5 65t-91.5 104.5t-78 164.5t-31.5 224.5zM256 711q0 -102 20.5 -193.5t49 -150t58.5 -102.5t50.5 -63.5t22.5 -19.5q6 0 32 51l615 1070q20 35 20 38q0 6 -36.5 21.5t-101 29t-126.5 13.5q-145 0 -264 -66.5t-190.5 -171t-110.5 -223t-39 -233.5zM528 127 q0 -10 40 -31.5t112 -42t141 -20.5q178 0 316.5 112.5t205 279.5t66.5 353q0 311 -164 477q-37 37 -43 37q-2 0 -16 -24l-620 -1074q-38 -65 -38 -67z"/>
<glyph unicode="Ù" horiz-adv-x="1693" d="M743 1839q0 25 43 39t63.5 14t33.5 -37q33 -106 64.5 -178.5t44 -96.5t12.5 -32q0 -20 -21 -20q-23 0 -131.5 137t-108.5 174zM90 1421q0 29 35 29l72 -6q72 -6 161 -6q18 0 78 6t107 6q41 0 41 -29q0 -18 -21.5 -27.5t-47.5 -13.5t-50.5 -32.5t-28.5 -79.5 q-10 -106 -33.5 -304t-37 -337.5t-13.5 -233.5q0 -53 14.5 -103t52.5 -108.5t120 -94.5t200 -36q397 0 531 326q45 115 97 448.5t52 438.5q0 63 -44 87.5t-89 33t-45 32.5q0 27 49 27q10 0 51 -4t62 -4q49 0 124 4t89 4t25.5 -8.5t11.5 -18.5q0 -14 -24.5 -21t-58.5 -30 t-48 -74q-4 -14 -30 -210.5t-66 -422t-80 -323.5q-45 -109 -108.5 -171.5t-182.5 -133.5q-49 -29 -148.5 -49.5t-161.5 -20.5q-178 0 -282.5 35t-173.5 106q-61 61 -78.5 133t-17.5 205q0 29 37.5 422t37.5 420q0 49 -27.5 73.5t-61.5 26.5t-61.5 10.5t-27.5 28.5z"/>
<glyph unicode="Ú" horiz-adv-x="1693" d="M858 1544q0 8 5 16.5t20.5 28t35 48t53.5 87t72 131.5q18 37 41 37t60 -13t37 -34q0 -33 -141.5 -175t-166.5 -142q-16 0 -16 16zM90 1421q0 29 35 29l72 -6q72 -6 161 -6q18 0 78 6t107 6q41 0 41 -29q0 -18 -21.5 -27.5t-47.5 -13.5t-50.5 -32.5t-28.5 -79.5 q-10 -106 -33.5 -304t-37 -337.5t-13.5 -233.5q0 -53 14.5 -103t52.5 -108.5t120 -94.5t200 -36q397 0 531 326q45 115 97 448.5t52 438.5q0 63 -44 87.5t-89 33t-45 32.5q0 27 49 27q10 0 51 -4t62 -4q49 0 124 4t89 4t25.5 -8.5t11.5 -18.5q0 -14 -24.5 -21t-58.5 -30 t-48 -74q-4 -14 -30 -210.5t-66 -422t-80 -323.5q-45 -109 -108.5 -171.5t-182.5 -133.5q-49 -29 -148.5 -49.5t-161.5 -20.5q-178 0 -282.5 35t-173.5 106q-61 61 -78.5 133t-17.5 205q0 29 37.5 422t37.5 420q0 49 -27.5 73.5t-61.5 26.5t-61.5 10.5t-27.5 28.5z"/>
<glyph unicode="Û" horiz-adv-x="1693" d="M709 1563q0 2 8 14l61 78l46 63l33 48q15 22 23.5 36.5t16.5 26.5l12 18q4 6 8.5 10.5t7.5 5.5t9 1h53q20 0 29 -21q28 -61 66 -129l58 -104q20 -37 21 -45q0 -12 -16.5 -12.5t-101.5 86.5t-93 87q-16 0 -115.5 -86t-111.5 -86q-14 1 -14 9zM90 1421q0 29 35 29l72 -6 q72 -6 161 -6q18 0 78 6t107 6q41 0 41 -29q0 -18 -21.5 -27.5t-47.5 -13.5t-50.5 -32.5t-28.5 -79.5q-10 -106 -33.5 -304t-37 -337.5t-13.5 -233.5q0 -53 14.5 -103t52.5 -108.5t120 -94.5t200 -36q397 0 531 326q45 115 97 448.5t52 438.5q0 63 -44 87.5t-89 33t-45 32.5 q0 27 49 27q10 0 51 -4t62 -4q49 0 124 4t89 4t25.5 -8.5t11.5 -18.5q0 -14 -24.5 -21t-58.5 -30t-48 -74q-4 -14 -30 -210.5t-66 -422t-80 -323.5q-45 -109 -108.5 -171.5t-182.5 -133.5q-49 -29 -148.5 -49.5t-161.5 -20.5q-178 0 -282.5 35t-173.5 106q-61 61 -78.5 133 t-17.5 205q0 29 37.5 422t37.5 420q0 49 -27.5 73.5t-61.5 26.5t-61.5 10.5t-27.5 28.5z"/>
<glyph unicode="Ü" horiz-adv-x="1693" d="M725 1747q0 25 36 64.5t66 39.5q29 0 55.5 -32.5t26.5 -63.5t-39 -69.5t-55 -38.5q-37 0 -63.5 34.5t-26.5 65.5zM1040 1747q0 25 37 64.5t68 39.5q29 0 55.5 -32.5t26.5 -63.5t-40 -69.5t-57 -38.5q-37 0 -63.5 34.5t-26.5 65.5zM90 1421q0 29 35 29l72 -6q72 -6 161 -6 q18 0 78 6t107 6q41 0 41 -29q0 -18 -21.5 -27.5t-47.5 -13.5t-50.5 -32.5t-28.5 -79.5q-10 -106 -33.5 -304t-37 -337.5t-13.5 -233.5q0 -53 14.5 -103t52.5 -108.5t120 -94.5t200 -36q397 0 531 326q45 115 97 448.5t52 438.5q0 63 -44 87.5t-89 33t-45 32.5q0 27 49 27 q10 0 51 -4t62 -4q49 0 124 4t89 4t25.5 -8.5t11.5 -18.5q0 -14 -24.5 -21t-58.5 -30t-48 -74q-4 -14 -30 -210.5t-66 -422t-80 -323.5q-45 -109 -108.5 -171.5t-182.5 -133.5q-49 -29 -148.5 -49.5t-161.5 -20.5q-178 0 -282.5 35t-173.5 106q-61 61 -78.5 133t-17.5 205 q0 29 37.5 422t37.5 420q0 49 -27.5 73.5t-61.5 26.5t-61.5 10.5t-27.5 28.5z"/>
<glyph unicode="Ý" horiz-adv-x="1413" d="M684 1544q0 8 5 16.5t20.5 28t34.5 47.5q20 30 54 88l72 131q18 37 41 37t60 -13t37 -34q0 -33 -141.5 -175t-166.5 -142q-16 0 -16 16zM41 1434q0 29 68 28q12 0 92 -4t98 -4q25 0 95.5 4t86.5 4q61 0 62 -30q0 -20 -51.5 -39t-51.5 -47q0 -84 90 -240q33 -62 77 -158 l72 -154q28 -58 34 -59q4 0 98 127t188.5 278.5t94.5 198.5q0 29 -22.5 41.5t-50.5 11.5t-50.5 7t-22.5 31q0 29 53 28q10 0 50.5 -2t58.5 -2q47 0 110.5 3t100.5 3q53 0 53 -30q0 -12 -22.5 -22.5t-56 -24t-52.5 -33.5q-47 -49 -223 -307.5t-209 -294.5 q-41 -47 -58.5 -90.5t-29.5 -149.5q-33 -313 -33 -346q0 -41 45 -80q23 -18 51.5 -26.5t49 -9.5t35 -8t14.5 -22q0 -10 -2 -15t-10.5 -9t-26.5 -4q-10 0 -102.5 7t-129.5 7q-53 0 -103 -8t-69 -8q-55 0 -55 26q0 12 8 20.5t16.5 11.5t27 6t26.5 5q29 8 41 36t20 91 q55 377 56 436q0 12 -3.5 25.5t-12.5 37.5t-19 46.5t-35 68.5l-48 89l-64 124l-83 158q-102 201 -180 226q-6 2 -33.5 3t-45 9.5t-17.5 28.5z"/>
<glyph unicode="Þ" horiz-adv-x="1132" d="M41 23q0 16 15.5 22t37 8t47 25.5t39.5 68.5l72 559q72 558 72 562q0 53 -35 78.5t-87 31.5t-55 8q-16 6 -16 25q0 31 55 31q23 0 84.5 -8.5t126.5 -8.5q49 0 113.5 6.5t79.5 6.5q37 0 37 -29q0 -14 -19.5 -19.5t-47.5 -12.5t-40 -21q-29 -33 -45 -129.5t-16 -130.5 q0 -16 18 -17q23 0 96.5 7.5t104.5 7.5q172 0 273.5 -86t101.5 -254q0 -131 -70 -248t-190 -168q-84 -35 -218 -35q-57 0 -99 10.5t-42 24.5q0 4 6 4q2 0 15.5 -1t39 -2t58.5 -1q117 0 227.5 108.5t110.5 284.5q0 68 -26.5 121t-52.5 75.5t-67 49.5q-78 49 -190 49 q-80 0 -94.5 -16.5t-24.5 -98.5q-20 -180 -44 -348l-38 -250q-12 -82 -12 -110q0 -45 6 -76t21.5 -45t24.5 -20.5t34 -10.5t31 -6q8 -2 18 -4t17.5 -3t13.5 -3t9 -6t3 -11q0 -14 -6 -20t-12 -7t-25 -1q-6 0 -82 6t-125 6q-31 0 -84 -6t-73 -6q-72 0 -72 33z"/>
<glyph unicode="ß" horiz-adv-x="1042" d="M-88 -340q0 27 16.5 83t42.5 56q25 0 27 -26q6 -33 27.5 -53.5t34 -20.5t22.5 10t17 34t13.5 53.5t12.5 80.5l12 101q7 50 17 128l20 154l34 252l30 218t25.5 162.5t30.5 149.5l34 110q20 67 44.5 111t59.5 91q53 74 124 118t134 44q45 0 97.5 -16.5t102.5 -74t50 -145.5 q0 -84 -47 -162t-104.5 -128t-104.5 -110.5t-47 -111.5q0 -41 38 -98.5t126 -155.5q4 -4 30.5 -33.5t34.5 -40t27.5 -38t27 -47t14.5 -51.5t7 -64.5t-14.5 -73.5t-46 -87t-99 -77t-159.5 -31q-82 0 -156 31t-74 102q0 74 68 74q35 0 56.5 -22.5t31.5 -48t36.5 -48 t67.5 -22.5q51 0 88 16.5t51.5 42t19.5 43t5 31.5q0 45 -21.5 90t-46 72.5t-71.5 75.5q-158 164 -158 276q0 66 46 135.5t101.5 121.5t101.5 132t46 166q0 84 -45 137.5t-111 53.5q-20 0 -39.5 -4.5t-34 -11.5t-26.5 -15q-13 -7 -23 -21l-16 -22q-6 -8 -13 -22.5t-9 -20.5 t-8 -20l-5 -13q-27 -72 -53 -176.5t-38.5 -169t-14.5 -82.5q-20 -154 -46 -415t-45.5 -404.5t-43.5 -200.5q-37 -88 -94.5 -141t-95.5 -65.5t-68 -12.5q-74 0 -74 47z"/>
<glyph unicode="à" horiz-adv-x="1060" d="M412 1298q0 25 43 39.5t63.5 14.5t32.5 -37q33 -106 64.5 -179t44 -96.5t12.5 -31.5q0 -20 -21 -21q-23 0 -131 137t-108 174zM66 233q0 150 114 334q123 193 277 267q76 37 149 36q31 0 85 -11t89 -11q20 0 53 50t54 50q23 0 22 -30q0 -18 -17.5 -67.5t-23.5 -74.5 q-2 -8 -47 -262q-37 -203 -37 -262q0 -43 20.5 -82t49.5 -39q37 0 85 66.5t65 66.5q18 0 18 -22q0 -37 -37 -88q-43 -63 -101.5 -115.5t-97.5 -52.5q-57 0 -85.5 57t-33.5 114.5t-7.5 57.5t-24 -25.5t-57 -61.5t-79.5 -72t-101.5 -61.5t-112.5 -25.5q-131 0 -175 70.5 t-44 193.5zM209 246q0 -74 46 -119t114 -45q94 0 164.5 64.5t97.5 119.5q23 43 48.5 164t40.5 215t15 103q0 37 -45 54t-90 17q-66 0 -137.5 -45t-116.5 -121q-106 -176 -127 -297q-10 -61 -10 -110z"/>
<glyph unicode="á" horiz-adv-x="1060" d="M526 1004q0 8 5.5 16t20.5 27.5t34.5 48t53.5 87t73 132.5q18 37 40.5 37t59.5 -13.5t37 -33.5q0 -33 -141.5 -175.5t-165.5 -142.5q-17 1 -17 17zM66 233q0 150 114 334q123 193 277 267q76 37 149 36q31 0 85 -11t89 -11q20 0 53 50t54 50q23 0 22 -30 q0 -18 -17.5 -67.5t-23.5 -74.5q-2 -8 -47 -262q-37 -203 -37 -262q0 -43 20.5 -82t49.5 -39q37 0 85 66.5t65 66.5q18 0 18 -22q0 -37 -37 -88q-43 -63 -101.5 -115.5t-97.5 -52.5q-57 0 -85.5 57t-33.5 114.5t-7.5 57.5t-24 -25.5t-57 -61.5t-79.5 -72t-101.5 -61.5 t-112.5 -25.5q-131 0 -175 70.5t-44 193.5zM209 246q0 -74 46 -119t114 -45q94 0 164.5 64.5t97.5 119.5q23 43 48.5 164t40.5 215t15 103q0 37 -45 54t-90 17q-66 0 -137.5 -45t-116.5 -121q-106 -176 -127 -297q-10 -61 -10 -110z"/>
<glyph unicode="â" horiz-adv-x="1060" d="M377 1022q0 2 8 14l61 78l46 62l34 48q16 22 23.5 37t15.5 27l13 18q4 6 8 10.5t7 5.5t9 1h53q20 0 29 -20q28 -61 66 -129l58 -105q20 -37 21 -45q0 -12 -16 -12t-101 87t-94 87q-16 0 -115.5 -86t-111.5 -86q-14 0 -14 8zM66 233q0 150 114 334q123 193 277 267 q76 37 149 36q31 0 85 -11t89 -11q20 0 53 50t54 50q23 0 22 -30q0 -18 -17.5 -67.5t-23.5 -74.5q-2 -8 -47 -262q-37 -203 -37 -262q0 -43 20.5 -82t49.5 -39q37 0 85 66.5t65 66.5q18 0 18 -22q0 -37 -37 -88q-43 -63 -101.5 -115.5t-97.5 -52.5q-57 0 -85.5 57 t-33.5 114.5t-7.5 57.5t-24 -25.5t-57 -61.5t-79.5 -72t-101.5 -61.5t-112.5 -25.5q-131 0 -175 70.5t-44 193.5zM209 246q0 -74 46 -119t114 -45q94 0 164.5 64.5t97.5 119.5q23 43 48.5 164t40.5 215t15 103q0 37 -45 54t-90 17q-66 0 -137.5 -45t-116.5 -121 q-106 -176 -127 -297q-10 -61 -10 -110z"/>
<glyph unicode="ã" horiz-adv-x="1060" d="M309 1094q0 33 82 117.5t137 84.5q47 0 121 -49t125 -49q33 0 59.5 28.5t45 57.5t30.5 29q18 0 19 -23q0 -37 -81 -117.5t-136 -80.5q-51 0 -127 49t-119 49q-33 0 -60.5 -30t-47 -58.5t-31.5 -28.5q-17 1 -17 21zM66 233q0 150 114 334q123 193 277 267q76 37 149 36 q31 0 85 -11t89 -11q20 0 53 50t54 50q23 0 22 -30q0 -18 -17.5 -67.5t-23.5 -74.5q-2 -8 -47 -262q-37 -203 -37 -262q0 -43 20.5 -82t49.5 -39q37 0 85 66.5t65 66.5q18 0 18 -22q0 -37 -37 -88q-43 -63 -101.5 -115.5t-97.5 -52.5q-57 0 -85.5 57t-33.5 114.5t-7.5 57.5 t-24 -25.5t-57 -61.5t-79.5 -72t-101.5 -61.5t-112.5 -25.5q-131 0 -175 70.5t-44 193.5zM209 246q0 -74 46 -119t114 -45q94 0 164.5 64.5t97.5 119.5q23 43 48.5 164t40.5 215t15 103q0 37 -45 54t-90 17q-66 0 -137.5 -45t-116.5 -121q-106 -176 -127 -297 q-10 -61 -10 -110z"/>
<glyph unicode="ä" horiz-adv-x="1060" d="M393 1206q0 25 36 65t67 40q29 0 55.5 -33t26.5 -63.5t-39 -69.5t-56 -39q-37 0 -63.5 34.5t-26.5 65.5zM709 1206q0 25 36.5 65t67.5 40q29 0 55.5 -33t26.5 -63.5t-40 -69.5t-56 -39q-37 0 -63.5 34.5t-26.5 65.5zM66 233q0 150 114 334q123 193 277 267q76 37 149 36 q31 0 85 -11t89 -11q20 0 53 50t54 50q23 0 22 -30q0 -18 -17.5 -67.5t-23.5 -74.5q-2 -8 -47 -262q-37 -203 -37 -262q0 -43 20.5 -82t49.5 -39q37 0 85 66.5t65 66.5q18 0 18 -22q0 -37 -37 -88q-43 -63 -101.5 -115.5t-97.5 -52.5q-57 0 -85.5 57t-33.5 114.5t-7.5 57.5 t-24 -25.5t-57 -61.5t-79.5 -72t-101.5 -61.5t-112.5 -25.5q-131 0 -175 70.5t-44 193.5zM209 246q0 -74 46 -119t114 -45q94 0 164.5 64.5t97.5 119.5q23 43 48.5 164t40.5 215t15 103q0 37 -45 54t-90 17q-66 0 -137.5 -45t-116.5 -121q-106 -176 -127 -297 q-10 -61 -10 -110z"/>
<glyph unicode="å" horiz-adv-x="1060" d="M469 1188q0 70 54.5 123t117.5 53q66 0 98.5 -46t32.5 -99q0 -78 -63.5 -124t-102.5 -46q-78 0 -107.5 43t-29.5 96zM537 1196q0 -35 20.5 -56.5t54.5 -21.5q27 0 60 24.5t33 76.5q0 74 -74 73q-31 0 -62.5 -26.5t-31.5 -69.5zM66 233q0 150 114 334q123 193 277 267 q76 37 149 36q31 0 85 -11t89 -11q20 0 53 50t54 50q23 0 22 -30q0 -18 -17.5 -67.5t-23.5 -74.5q-2 -8 -47 -262q-37 -203 -37 -262q0 -43 20.5 -82t49.5 -39q37 0 85 66.5t65 66.5q18 0 18 -22q0 -37 -37 -88q-43 -63 -101.5 -115.5t-97.5 -52.5q-57 0 -85.5 57 t-33.5 114.5t-7.5 57.5t-24 -25.5t-57 -61.5t-79.5 -72t-101.5 -61.5t-112.5 -25.5q-131 0 -175 70.5t-44 193.5zM209 246q0 -74 46 -119t114 -45q94 0 164.5 64.5t97.5 119.5q23 43 48.5 164t40.5 215t15 103q0 37 -45 54t-90 17q-66 0 -137.5 -45t-116.5 -121 q-106 -176 -127 -297q-10 -61 -10 -110z"/>
<glyph unicode="æ" horiz-adv-x="1441" d="M66 233q0 119 70.5 263.5t199.5 254t270 109.5q31 0 80 -6t84 -6q20 0 53 50t54 50q23 0 22 -30q0 -16 -23.5 -87t-23.5 -96q0 -8 4 -8t18.5 17.5t40 42t61.5 48t94 41t128 17.5q74 0 126 -43t52 -109q0 -68 -44 -126t-82 -82.5t-70 -38.5q-119 -53 -324 -56 q-35 0 -35 -84q0 -119 74 -187.5t221 -68.5q51 0 101.5 22.5t82 44t37.5 21.5q27 0 27 -20q0 -43 -118 -117t-238 -74q-94 0 -160 26t-94.5 61.5t-43 71.5t-20.5 61.5t-12 25.5q-8 0 -47 -39l-85 -87q-46 -48 -119 -87t-142 -39q-131 0 -175 70.5t-44 193.5zM209 246 q0 -74 46 -119t114 -45q94 0 164.5 64.5t97.5 119.5q20 43 45.5 160t41 209t15.5 100q0 33 -41 51.5t-82 18.5q-143 0 -272 -175t-129 -384zM852 514q0 -41 16 -41q145 0 256 82t111 180q0 51 -36 73.5t-73 22.5q-76 0 -168 -96q-41 -43 -73.5 -118.5t-32.5 -102.5z"/>
<glyph unicode="ç" horiz-adv-x="856" d="M301 -162q70 68 98 68q8 0 31 -10.5t47.5 -40t24.5 -70.5q0 -86 -64.5 -139.5t-101.5 -53.5q-10 0 -10 9q0 4 20.5 16t41 36.5t20.5 61.5q0 41 -27 63.5t-53.5 35t-26.5 24.5zM66 305q0 219 154.5 403.5t365.5 184.5q20 0 63 -11.5t92.5 -47t49.5 -89.5q0 -31 -20.5 -55 t-47.5 -24q-29 0 -56.5 23.5t-48 50t-58.5 50t-87 23.5q-16 0 -56 -19.5t-77 -52.5q-20 -18 -47 -54t-57.5 -115.5t-30.5 -163.5q0 -313 241 -314q74 0 134.5 28t94.5 55.5t46 27.5q27 0 27 -27q0 -18 -43 -64t-135.5 -92.5t-194.5 -46.5q-309 0 -309 330z"/>
<glyph unicode="è" horiz-adv-x="823" d="M367 1298q0 25 43 39.5t63.5 14.5t32.5 -37q33 -106 64.5 -179t44 -96.5t12.5 -31.5q0 -20 -21 -21q-23 0 -131 137t-108 174zM66 301q0 129 61 256t170 227q115 109 285 109q74 0 126 -43t52 -109q0 -51 -24.5 -97t-61.5 -76.5t-64.5 -48t-48.5 -25.5q-119 -53 -321 -56 q-35 0 -35 -84q0 -119 73.5 -187.5t221.5 -68.5q51 0 101 22.5t82 44t38 21.5q25 0 24 -20q0 -43 -117.5 -117t-238.5 -74q-182 0 -252.5 86t-70.5 240zM233 514q0 -41 19 -41q145 0 255.5 82t110.5 180q0 51 -35.5 73.5t-72.5 22.5q-76 0 -168 -96q-41 -43 -75 -118.5 t-34 -102.5z"/>
<glyph unicode="é" horiz-adv-x="823" d="M481 1004q0 8 5.5 16t20.5 27.5t34.5 48t53.5 87t73 132.5q18 37 40.5 37t59.5 -13.5t37 -33.5q0 -33 -141.5 -175.5t-165.5 -142.5q-17 1 -17 17zM66 301q0 129 61 256t170 227q115 109 285 109q74 0 126 -43t52 -109q0 -51 -24.5 -97t-61.5 -76.5t-64.5 -48 t-48.5 -25.5q-119 -53 -321 -56q-35 0 -35 -84q0 -119 73.5 -187.5t221.5 -68.5q51 0 101 22.5t82 44t38 21.5q25 0 24 -20q0 -43 -117.5 -117t-238.5 -74q-182 0 -252.5 86t-70.5 240zM233 514q0 -41 19 -41q145 0 255.5 82t110.5 180q0 51 -35.5 73.5t-72.5 22.5 q-76 0 -168 -96q-41 -43 -75 -118.5t-34 -102.5z"/>
<glyph unicode="ê" horiz-adv-x="823" d="M332 1022q0 2 8 14l60 78l46 62l34 48q16 22 24 37t16 27l12 18q4 6 8.5 10.5t7.5 5.5t9 1h53q20 0 29 -20q29 -61 67 -129l58 -105q20 -37 20 -45q0 -12 -16 -12t-101 87t-94 87q-16 0 -115.5 -86t-111.5 -86q-14 0 -14 8zM66 301q0 129 61 256t170 227q115 109 285 109 q74 0 126 -43t52 -109q0 -51 -24.5 -97t-61.5 -76.5t-64.5 -48t-48.5 -25.5q-119 -53 -321 -56q-35 0 -35 -84q0 -119 73.5 -187.5t221.5 -68.5q51 0 101 22.5t82 44t38 21.5q25 0 24 -20q0 -43 -117.5 -117t-238.5 -74q-182 0 -252.5 86t-70.5 240zM233 514q0 -41 19 -41 q145 0 255.5 82t110.5 180q0 51 -35.5 73.5t-72.5 22.5q-76 0 -168 -96q-41 -43 -75 -118.5t-34 -102.5z"/>
<glyph unicode="ë" horiz-adv-x="823" d="M348 1206q0 25 36 65t67 40q29 0 55 -33t26 -63.5t-38.5 -69.5t-55.5 -39q-37 0 -63.5 34.5t-26.5 65.5zM664 1206q0 25 36.5 65t67.5 40q29 0 55.5 -33t26.5 -63.5t-40 -69.5t-56 -39q-37 0 -63.5 34.5t-26.5 65.5zM66 301q0 129 61 256t170 227q115 109 285 109 q74 0 126 -43t52 -109q0 -51 -24.5 -97t-61.5 -76.5t-64.5 -48t-48.5 -25.5q-119 -53 -321 -56q-35 0 -35 -84q0 -119 73.5 -187.5t221.5 -68.5q51 0 101 22.5t82 44t38 21.5q25 0 24 -20q0 -43 -117.5 -117t-238.5 -74q-182 0 -252.5 86t-70.5 240zM233 514q0 -41 19 -41 q145 0 255.5 82t110.5 180q0 51 -35.5 73.5t-72.5 22.5q-76 0 -168 -96q-41 -43 -75 -118.5t-34 -102.5z"/>
<glyph unicode="ì" horiz-adv-x="512" d="M78 1298q0 25 43 39.5t63.5 14.5t32.5 -37q33 -106 64.5 -179t44 -96.5t12.5 -31.5q0 -20 -21 -21q-23 0 -131 137t-108 174zM41 811q0 29 47 29h21q37 0 103.5 9t129.5 9q29 0 29 -22q0 -27 -23.5 -107t-32.5 -131q-61 -387 -61 -407.5t12.5 -38t28.5 -17.5 q31 0 56.5 26.5t43 53.5t27.5 27q20 0 20 -23q0 -18 -20.5 -59t-38.5 -60q-113 -121 -188.5 -120.5t-75.5 170.5q0 82 46 310t46 281q0 25 -10.5 34t-38.5 9q-25 0 -56.5 1t-35.5 1q-29 0 -29 25z"/>
<glyph unicode="í" horiz-adv-x="512" d="M193 1004q0 8 5 16t20 27.5t34.5 48t53.5 87t73 132.5q18 37 40.5 37t59.5 -13.5t37 -33.5q0 -33 -141.5 -175.5t-165.5 -142.5q-16 1 -16 17zM41 811q0 29 47 29h21q37 0 103.5 9t129.5 9q29 0 29 -22q0 -27 -23.5 -107t-32.5 -131q-61 -387 -61 -407.5t12.5 -38 t28.5 -17.5q31 0 56.5 26.5t43 53.5t27.5 27q20 0 20 -23q0 -18 -20.5 -59t-38.5 -60q-113 -121 -188.5 -120.5t-75.5 170.5q0 82 46 310t46 281q0 25 -10.5 34t-38.5 9q-25 0 -56.5 1t-35.5 1q-29 0 -29 25z"/>
<glyph unicode="î" horiz-adv-x="512" d="M43 1022q0 2 8 14l61 78l46 62l34 48q16 22 23.5 37t16 27t12.5 18.5t8 10.5t7 5t9 1h54q20 0 28 -20q29 -61 67 -129l59 -105q20 -37 20 -45q0 -12 -16.5 -12t-101.5 87t-93 87q-16 0 -115.5 -86t-112.5 -86q-14 0 -14 8zM41 811q0 29 47 29h21q37 0 103.5 9t129.5 9 q29 0 29 -22q0 -27 -23.5 -107t-32.5 -131q-61 -387 -61 -407.5t12.5 -38t28.5 -17.5q31 0 56.5 26.5t43 53.5t27.5 27q20 0 20 -23q0 -18 -20.5 -59t-38.5 -60q-113 -121 -188.5 -120.5t-75.5 170.5q0 82 46 310t46 281q0 25 -10.5 34t-38.5 9q-25 0 -56.5 1t-35.5 1 q-29 0 -29 25z"/>
<glyph unicode="ï" horiz-adv-x="512" d="M59 1206q0 25 36 65t67 40q29 0 55.5 -33t26.5 -63.5t-39 -69.5t-55 -39q-37 0 -64 34.5t-27 65.5zM375 1206q0 25 37 65t67 40q29 0 55.5 -33t26.5 -63.5t-40 -69.5t-56 -39q-37 0 -63.5 34.5t-26.5 65.5zM41 811q0 29 47 29h21q37 0 103.5 9t129.5 9q29 0 29 -22 q0 -27 -23.5 -107t-32.5 -131q-61 -387 -61 -407.5t12.5 -38t28.5 -17.5q31 0 56.5 26.5t43 53.5t27.5 27q20 0 20 -23q0 -18 -20.5 -59t-38.5 -60q-113 -121 -188.5 -120.5t-75.5 170.5q0 82 46 310t46 281q0 25 -10.5 34t-38.5 9q-25 0 -56.5 1t-35.5 1q-29 0 -29 25z"/>
<glyph unicode="ð" horiz-adv-x="927" d="M66 346q0 209 132 377t351 168q109 0 184 -66q-14 123 -80 269q-25 55 -30 55q-2 0 -6.5 -1t-8.5 -3t-11 -6t-15 -6l-123 -46q-117 -45 -131.5 -45t-25.5 27t-11 43q0 8 146.5 59.5t146.5 57.5q0 2 -12.5 21.5t-33 46t-38.5 46.5q-33 35 -67 61t-55.5 36t-34.5 21.5 t-13 23.5q0 25 71 24q43 0 118 -56t138 -150q27 -39 29 -39t7 2l15 6l19 8l123 45q68 25 89 36l3 1q12 0 27.5 -23.5t15.5 -48.5q0 -12 -84 -41l-123 -43q-51 -18 -51 -24l14 -31q14 -31 34 -83t39.5 -119.5t33.5 -159t14 -181.5q0 -156 -51 -296t-163.5 -236t-266.5 -96 q-135 0 -225 94t-90 272zM223 344q0 -147 50.5 -225t128 -78t138 55.5t92.5 138t48 165.5t16 153q0 137 -50 206.5t-126 69.5q-78 0 -149.5 -68.5t-106.5 -187.5q-41 -143 -41 -229z"/>
<glyph unicode="ñ" horiz-adv-x="1077" d="M324 1094q0 33 81.5 117.5t137.5 84.5q47 0 120.5 -49t124.5 -49q33 0 59.5 28.5t45 57.5t31.5 29q18 0 18 -23q0 -37 -81 -117.5t-136 -80.5q-51 0 -127 49t-119 49q-33 0 -60.5 -30t-47 -58.5t-31.5 -28.5q-16 1 -16 21zM49 657q0 61 72 147.5t129 86.5 q53 0 71.5 -54.5t18.5 -107.5t4 -53t13.5 12t33 39t55.5 51q150 117 250 117q172 0 172 -256q0 -82 -17 -244t-17 -186q0 -74 38 -74q16 0 37 11.5t33 22.5l12 11q6 6 15.5 20.5t14.5 19.5t14.5 10.5t19.5 5.5q18 0 18 -25q0 -59 -101 -141t-169 -82q-31 0 -53.5 37.5 t-22.5 91.5q0 88 21.5 282.5t21.5 223t-6 60.5t-42 70t-95 38q-70 0 -133 -91l-41 -59q-12 -18 -22.5 -50t-13.5 -51q-2 -18 -14 -84l-22 -126q-18 -96 -27.5 -156.5t-10.5 -78t-2 -29t-1 -17.5q-4 -33 -19.5 -43t-56.5 -10q-45 0 -58 10t-13 53q0 35 45 254t45 308 q0 49 -15.5 80.5t-31.5 31.5q-35 0 -73 -57.5t-58 -57.5q-19 0 -19 39z"/>
<glyph unicode="ò" horiz-adv-x="913" d="M356 1298q0 25 43 39.5t63.5 14.5t33.5 -37q33 -106 64.5 -179t43.5 -96.5t12 -31.5q0 -20 -20 -21q-23 0 -131.5 137t-108.5 174zM66 346q0 209 132 377t351 168q145 0 222 -103.5t77 -259.5q0 -133 -52.5 -255.5t-163 -207.5t-253.5 -85q-135 0 -224 94t-89 272z M223 344q0 -147 50.5 -225t128 -78t138 55.5t92.5 138t48 165.5t16 153q0 137 -50 206.5t-126 69.5q-78 0 -149.5 -68.5t-106.5 -187.5q-41 -143 -41 -229z"/>
<glyph unicode="ó" horiz-adv-x="913" d="M471 1004q0 8 5 16t20.5 27.5t35.5 48.5q18 28 52 86l73 133q18 37 41 37t60 -13.5t37 -33.5q0 -33 -141.5 -175.5t-166.5 -142.5q-16 1 -16 17zM66 346q0 209 132 377t351 168q145 0 222 -103.5t77 -259.5q0 -133 -52.5 -255.5t-163 -207.5t-253.5 -85q-135 0 -224 94 t-89 272zM223 344q0 -147 50.5 -225t128 -78t138 55.5t92.5 138t48 165.5t16 153q0 137 -50 206.5t-126 69.5q-78 0 -149.5 -68.5t-106.5 -187.5q-41 -143 -41 -229z"/>
<glyph unicode="ô" horiz-adv-x="913" d="M322 1022q0 2 8 14l60 78l46 62l34 48q15 22 23.5 37t16.5 27t12 18.5t8.5 10.5t7.5 5t9 1h53q20 0 29 -20q29 -61 67 -129l58 -105q20 -37 20 -45q0 -12 -16.5 -12t-101.5 87t-93 87q-16 0 -115.5 -86t-111.5 -86q-14 0 -14 8zM66 346q0 209 132 377t351 168 q145 0 222 -103.5t77 -259.5q0 -133 -52.5 -255.5t-163 -207.5t-253.5 -85q-135 0 -224 94t-89 272zM223 344q0 -147 50.5 -225t128 -78t138 55.5t92.5 138t48 165.5t16 153q0 137 -50 206.5t-126 69.5q-78 0 -149.5 -68.5t-106.5 -187.5q-41 -143 -41 -229z"/>
<glyph unicode="õ" horiz-adv-x="913" d="M254 1094q0 33 82 117.5t137 84.5q47 0 121 -49t125 -49q33 0 59.5 28.5t45 57.5t30.5 29q18 0 18 -23q0 -37 -80.5 -117.5t-136.5 -80.5q-51 0 -126.5 49t-118.5 49q-33 0 -60.5 -30t-47 -58.5t-32.5 -28.5q-16 1 -16 21zM66 346q0 209 132 377t351 168 q145 0 222 -103.5t77 -259.5q0 -133 -52.5 -255.5t-163 -207.5t-253.5 -85q-135 0 -224 94t-89 272zM223 344q0 -147 50.5 -225t128 -78t138 55.5t92.5 138t48 165.5t16 153q0 137 -50 206.5t-126 69.5q-78 0 -149.5 -68.5t-106.5 -187.5q-41 -143 -41 -229z"/>
<glyph unicode="ö" horiz-adv-x="913" d="M338 1206q0 25 36 65t66 40q29 0 55.5 -33t26.5 -63.5t-39 -69.5t-55 -39q-37 0 -63.5 34.5t-26.5 65.5zM653 1206q0 25 37 65t68 40q29 0 55.5 -33t26.5 -63.5t-40 -69.5t-57 -39q-37 0 -63.5 34.5t-26.5 65.5zM66 346q0 209 132 377t351 168q145 0 222 -103.5 t77 -259.5q0 -133 -52.5 -255.5t-163 -207.5t-253.5 -85q-135 0 -224 94t-89 272zM223 344q0 -147 50.5 -225t128 -78t138 55.5t92.5 138t48 165.5t16 153q0 137 -50 206.5t-126 69.5q-78 0 -149.5 -68.5t-106.5 -187.5q-41 -143 -41 -229z"/>
<glyph unicode="÷" horiz-adv-x="1040" d="M43 434q0 16 2 23.5t10 12.5t27 5h881q16 0 23 -5t8 -12t1 -26q0 -29 -6 -38t-37 -9h-872q-25 0 -31 10t-6 39zM414 655.5q0 32.5 25.5 58t60.5 25.5t59.5 -24.5t24.5 -57.5q0 -35 -26 -59.5t-58 -24.5q-35 0 -60.5 25t-25.5 57.5zM426 207q0 35 24.5 58.5t57.5 23.5 q35 0 60.5 -25.5t25.5 -58.5t-24.5 -57.5t-59.5 -24.5t-59.5 24.5t-24.5 59.5z"/>
<glyph unicode="ø" horiz-adv-x="913" d="M66 346q0 209 132 377t351 168q29 0 53.5 -5t37.5 -9l13 -5q2 0 15 23l61 106q10 18 24.5 18.5t37 -11t22.5 -29.5q0 -12 -29 -59l-51 -93l12 -11q12 -11 29 -33.5t33 -54.5t28.5 -85t12.5 -115q0 -133 -52.5 -255.5t-162 -207.5t-252.5 -85q-20 0 -39.5 2t-33.5 6l-26 7 l-17 5l-7 2l-14 -22l-58 -99q-29 -51 -41 -51t-36.5 14.5t-24.5 28.5q0 8 4 16l57 99q33 57 33 59l-27 30q-28 30 -56.5 100.5t-28.5 168.5zM223 344q0 -37 6.5 -82t13.5 -71.5t9 -26.5q16 33 33 61l307 537l9 14q5 8 7 12.5t2 6.5q0 4 -11 12t-33.5 15t-45.5 7 q-78 0 -149.5 -68.5t-106.5 -187.5q-41 -143 -41 -229zM305 86q0 -14 33 -29.5t63 -15.5q78 0 138.5 55.5t92.5 138t48 165.5t16 153q0 45 -6 85t-12 58.5t-8 18.5t-11 -15l-319 -553q-35 -59 -35 -61z"/>
<glyph unicode="ù" horiz-adv-x="1075" d="M371 1298q0 25 43 39.5t63.5 14.5t32.5 -37q33 -106 64.5 -179t44 -96.5t12.5 -31.5q0 -20 -21 -21q-23 0 -131 137t-108 174zM41 602q0 78 68.5 176.5t162.5 98.5q33 0 52.5 -35t22.5 -62.5t3 -52.5q0 -92 -38 -290.5t-38 -274.5q0 -25 12.5 -40.5t24.5 -15.5 q10 0 21.5 3.5t24 10.5t22.5 15t25.5 22.5t24.5 24.5l27 30l28 32l30 36l31 37q145 176 237 531q8 33 60 33q68 0 67 -45q0 -20 -62.5 -309t-62.5 -347q0 -49 45 -49q55 0 89 38t52.5 76t35.5 38q29 0 28 -43q0 -55 -96 -156.5t-223 -101.5q-61 0 -62 110q0 57 9.5 131 t18.5 125t9 55q0 23 -10 23q-4 0 -12.5 -13.5t-26.5 -47t-45 -70.5q-223 -317 -393 -318q-70 0 -70 132q0 123 46 321.5t46 249.5q0 43 -41 43q-14 0 -42.5 -36t-49.5 -83q-12 -29 -31 -29q-20 0 -20 27z"/>
<glyph unicode="ú" horiz-adv-x="1075" d="M485 1004q0 8 5.5 16t20.5 27.5t34.5 48t53.5 87t73 132.5q18 37 40.5 37t59.5 -13.5t37 -33.5q0 -33 -141.5 -175.5t-165.5 -142.5q-17 1 -17 17zM41 602q0 78 68.5 176.5t162.5 98.5q33 0 52.5 -35t22.5 -62.5t3 -52.5q0 -92 -38 -290.5t-38 -274.5q0 -25 12.5 -40.5 t24.5 -15.5q10 0 21.5 3.5t24 10.5t22.5 15t25.5 22.5t24.5 24.5l27 30l28 32l30 36l31 37q145 176 237 531q8 33 60 33q68 0 67 -45q0 -20 -62.5 -309t-62.5 -347q0 -49 45 -49q55 0 89 38t52.5 76t35.5 38q29 0 28 -43q0 -55 -96 -156.5t-223 -101.5q-61 0 -62 110 q0 57 9.5 131t18.5 125t9 55q0 23 -10 23q-4 0 -12.5 -13.5t-26.5 -47t-45 -70.5q-223 -317 -393 -318q-70 0 -70 132q0 123 46 321.5t46 249.5q0 43 -41 43q-14 0 -42.5 -36t-49.5 -83q-12 -29 -31 -29q-20 0 -20 27z"/>
<glyph unicode="û" horiz-adv-x="1075" d="M336 1022q0 2 8 14l60 78l46 62l34 48q16 22 24 37t16 27l12 18q4 6 8.5 10.5t7.5 5.5t9 1h53q20 0 29 -20q29 -61 67 -129l58 -105q20 -37 20 -45q0 -12 -16 -12t-101 87t-93 87q-16 0 -116 -86t-112 -86q-14 0 -14 8zM41 602q0 78 68.5 176.5t162.5 98.5q33 0 52.5 -35 t22.5 -62.5t3 -52.5q0 -92 -38 -290.5t-38 -274.5q0 -25 12.5 -40.5t24.5 -15.5q10 0 21.5 3.5t24 10.5t22.5 15t25.5 22.5t24.5 24.5l27 30l28 32l30 36l31 37q145 176 237 531q8 33 60 33q68 0 67 -45q0 -20 -62.5 -309t-62.5 -347q0 -49 45 -49q55 0 89 38t52.5 76 t35.5 38q29 0 28 -43q0 -55 -96 -156.5t-223 -101.5q-61 0 -62 110q0 57 9.5 131t18.5 125t9 55q0 23 -10 23q-4 0 -12.5 -13.5t-26.5 -47t-45 -70.5q-223 -317 -393 -318q-70 0 -70 132q0 123 46 321.5t46 249.5q0 43 -41 43q-14 0 -42.5 -36t-49.5 -83q-12 -29 -31 -29 q-20 0 -20 27z"/>
<glyph unicode="ü" horiz-adv-x="1075" d="M352 1206q0 25 36 65t67 40q29 0 55.5 -33t26.5 -63.5t-39 -69.5t-56 -39q-37 0 -63.5 34.5t-26.5 65.5zM668 1206q0 25 36.5 65t67.5 40q29 0 55.5 -33t26.5 -63.5t-40 -69.5t-56 -39q-37 0 -63.5 34.5t-26.5 65.5zM41 602q0 78 68.5 176.5t162.5 98.5q33 0 52.5 -35 t22.5 -62.5t3 -52.5q0 -92 -38 -290.5t-38 -274.5q0 -25 12.5 -40.5t24.5 -15.5q10 0 21.5 3.5t24 10.5t22.5 15t25.5 22.5t24.5 24.5l27 30l28 32l30 36l31 37q145 176 237 531q8 33 60 33q68 0 67 -45q0 -20 -62.5 -309t-62.5 -347q0 -49 45 -49q55 0 89 38t52.5 76 t35.5 38q29 0 28 -43q0 -55 -96 -156.5t-223 -101.5q-61 0 -62 110q0 57 9.5 131t18.5 125t9 55q0 23 -10 23q-4 0 -12.5 -13.5t-26.5 -47t-45 -70.5q-223 -317 -393 -318q-70 0 -70 132q0 123 46 321.5t46 249.5q0 43 -41 43q-14 0 -42.5 -36t-49.5 -83q-12 -29 -31 -29 q-20 0 -20 27z"/>
<glyph unicode="ý" horiz-adv-x="833" d="M383 1004q0 8 5 16t20.5 27.5t35.5 48.5q18 28 52 86l73 133q18 37 41 37t60 -13.5t37 -33.5q0 -33 -141.5 -175.5t-166.5 -142.5q-16 1 -16 17zM14 -256q0 27 19.5 47.5t46.5 20.5q39 0 84 -34t94 -34q80 0 167 134t87 206q0 100 -130 371.5t-204 271.5q-51 0 -72.5 -38 t-30.5 -77t-34 -39q-20 0 -21 45q0 51 14.5 107.5t54.5 107t97 50.5q68 0 145 -91.5t130 -199.5l94 -200q41 -91 47 -91q20 0 47 127t27 229q0 31 -25.5 80t-25.5 76q0 31 17 53.5t52 22.5t57.5 -31t22.5 -78q0 -86 -44 -279.5t-126 -400.5q-188 -477 -420 -477 q-170 0 -170 121z"/>
<glyph unicode="þ" horiz-adv-x="999" d="M6 -375q0 29 42 47.5t48 36.5l142 1053q0 10 -7 10q-10 0 -51 -18.5t-53 -18.5q-27 0 -27 25v8q0 18 13.5 25t91.5 34q8 4 15 6.5t11.5 6.5t8.5 6t6 7t4 7t3 9.5t1 10.5t1 12t1 13q10 82 30 204l32 201q12 79 12 93q0 41 -51 41q-16 0 -33 -2t-29 -2q-33 0 -45 4t-12 20 q0 27 30 29q74 6 130.5 18.5t85 22.5t40.5 10q33 0 33 -37v-8q0 -4 -1 -8t-3 -14.5t-4 -23.5t-7 -38.5t-10 -57.5t-13.5 -81t-16.5 -109q-37 -258 -37 -282q0 -14 10 -15q6 0 26.5 1t59.5 3.5t88 2.5q362 0 363 -275q0 -170 -80 -305q-4 -8 -15.5 -27.5t-16.5 -26.5 t-15 -24.5t-17.5 -27t-20.5 -24.5t-25.5 -26.5t-30 -26t-37.5 -28.5q-121 -86 -270 -86q-16 0 -56.5 4t-54.5 4q-18 0 -23.5 -10t-10.5 -60q-5 -32 -7 -53q-2 -23 -8 -58.5t-9.5 -59t-3.5 -31.5q0 -45 43 -62.5t85 -23.5t42 -25q0 -27 -28 -26q-37 0 -107.5 1t-97.5 1 q-25 0 -62.5 -1t-48.5 -1h-18q-35 -1 -35 26zM289 104q0 -8 8 -18t36.5 -20.5t72.5 -10.5q145 0 261.5 161t116.5 310q0 80 -29.5 138.5t-69.5 88t-93 47t-87 21.5t-65 4q-18 0 -31.5 -3t-17.5 -3q-16 0 -35 -157l-26 -228q-41 -307 -41 -330z"/>
<glyph unicode="ÿ" horiz-adv-x="833" d="M250 1206q0 25 36 65t66 40q29 0 55.5 -33t26.5 -63.5t-39 -69.5t-55 -39q-37 0 -63.5 34.5t-26.5 65.5zM565 1206q0 25 37 65t68 40q29 0 55.5 -33t26.5 -63.5t-40 -69.5t-57 -39q-37 0 -63.5 34.5t-26.5 65.5zM14 -256q0 27 19.5 47.5t46.5 20.5q39 0 84 -34t94 -34 q80 0 167 134t87 206q0 100 -130 371.5t-204 271.5q-51 0 -72.5 -38t-30.5 -77t-34 -39q-20 0 -21 45q0 51 14.5 107.5t54.5 107t97 50.5q68 0 145 -91.5t130 -199.5l94 -200q41 -91 47 -91q20 0 47 127t27 229q0 31 -25.5 80t-25.5 76q0 31 17 53.5t52 22.5t57.5 -31 t22.5 -78q0 -86 -44 -279.5t-126 -400.5q-188 -477 -420 -477q-170 0 -170 121z"/>
<glyph unicode="Ā" horiz-adv-x="1579" d="M748 1731q0 55 40 55q158 0 225.5 -2t143.5 -2q16 0 21.5 -5t5.5 -24q0 -59 -35 -59q-14 0 -179 1t-206 1q-16 0 -16 35zM41 18q0 27 51 43q20 8 32.5 15.5t27.5 19.5q16 14 32 38l34 56q20 32 50 88l68 124l94 170l122 222l160 284l199 352q16 29 23.5 34.5t24 5.5 t23.5 -14t30 -94l61 -215q47 -159 169 -531l134 -407q35 -90 53.5 -111.5t77.5 -40.5q33 -10 33 -41q0 -20 -63 -20q-23 0 -63 3t-71 3q-37 0 -94 -5t-96 -5q-55 0 -55 22q0 18 21.5 30.5t46 17t46 22.5t21.5 49q0 35 -16.5 99.5t-39 138t-28.5 98.5q-10 46 -44 55 q-14 4 -32 4q-10 0 -90 -1t-158 -1q-156 0 -207 3t-67 3q-55 0 -72 -30q-57 -100 -100 -187.5t-58.5 -127.5t-15.5 -46q0 -51 35 -68.5t69.5 -22.5t34.5 -25q0 -10 -2 -17.5t-7 -9.5t-8 -2h-13q-43 0 -82 1t-60.5 2t-35.5 1q-18 0 -65.5 -2t-88.5 -2.5t-41 22.5zM555 639 q0 -16 68 -16h35q26 0 121 1t270 1q16 0 23 5t8 10t1 15q0 25 -89 295.5t-107 270.5q-10 0 -170 -287t-160 -295z"/>
<glyph unicode="ā" horiz-adv-x="1060" d="M399 1190q0 55 41 55q158 0 225.5 -2t143.5 -2q16 0 21.5 -5t5.5 -24q0 -59 -35 -59q-14 0 -179 1t-206 1q-17 0 -17 35zM66 233q0 150 114 334q123 193 277 267q76 37 149 36q31 0 85 -11t89 -11q20 0 53 50t54 50q23 0 22 -30q0 -18 -17.5 -67.5t-23.5 -74.5 q-2 -8 -47 -262q-37 -203 -37 -262q0 -43 20.5 -82t49.5 -39q37 0 85 66.5t65 66.5q18 0 18 -22q0 -37 -37 -88q-43 -63 -101.5 -115.5t-97.5 -52.5q-57 0 -85.5 57t-33.5 114.5t-7.5 57.5t-24 -25.5t-57 -61.5t-79.5 -72t-101.5 -61.5t-112.5 -25.5q-131 0 -175 70.5 t-44 193.5zM209 246q0 -74 46 -119t114 -45q94 0 164.5 64.5t97.5 119.5q23 43 48.5 164t40.5 215t15 103q0 37 -45 54t-90 17q-66 0 -137.5 -45t-116.5 -121q-106 -176 -127 -297q-10 -61 -10 -110z"/>
<glyph unicode="Ă" horiz-adv-x="1579" d="M754 1786q0 39 10 39h22q6 0 14 -22.5t22 -49.5t55 -49.5t106 -22.5q55 0 98 22.5t61.5 49.5t32 49.5t19.5 22.5h14q14 0 15 -4q0 -16 -15.5 -53t-44 -83.5t-83 -79t-119.5 -32.5q-96 0 -151.5 64.5t-55.5 148.5zM41 18q0 27 51 43q20 8 32.5 15.5t27.5 19.5q16 14 32 38 l34 56q20 32 50 88l68 124l94 170l122 222l160 284l199 352q16 29 23.5 34.5t24 5.5t23.5 -14t30 -94l61 -215q47 -159 169 -531l134 -407q35 -90 53.5 -111.5t77.5 -40.5q33 -10 33 -41q0 -20 -63 -20q-23 0 -63 3t-71 3q-37 0 -94 -5t-96 -5q-55 0 -55 22q0 18 21.5 30.5 t46 17t46 22.5t21.5 49q0 35 -16.5 99.5t-39 138t-28.5 98.5q-10 46 -44 55q-14 4 -32 4q-10 0 -90 -1t-158 -1q-156 0 -207 3t-67 3q-55 0 -72 -30q-57 -100 -100 -187.5t-58.5 -127.5t-15.5 -46q0 -51 35 -68.5t69.5 -22.5t34.5 -25q0 -10 -2 -17.5t-7 -9.5t-8 -2h-13 q-43 0 -82 1t-60.5 2t-35.5 1q-18 0 -65.5 -2t-88.5 -2.5t-41 22.5zM555 639q0 -16 68 -16h35q26 0 121 1t270 1q16 0 23 5t8 10t1 15q0 25 -89 295.5t-107 270.5q-10 0 -170 -287t-160 -295z"/>
<glyph unicode="ă" horiz-adv-x="1060" d="M406 1245q0 39 10 39h22q6 0 14 -22.5t21.5 -49t54.5 -49t107 -22.5q55 0 98 22.5t61.5 49t32 49t19.5 22.5h14q14 0 14 -4q0 -16 -15 -53t-44 -83t-83 -79t-120 -33q-96 0 -151 64.5t-55 148.5zM66 233q0 150 114 334q123 193 277 267q76 37 149 36q31 0 85 -11t89 -11 q20 0 53 50t54 50q23 0 22 -30q0 -18 -17.5 -67.5t-23.5 -74.5q-2 -8 -47 -262q-37 -203 -37 -262q0 -43 20.5 -82t49.5 -39q37 0 85 66.5t65 66.5q18 0 18 -22q0 -37 -37 -88q-43 -63 -101.5 -115.5t-97.5 -52.5q-57 0 -85.5 57t-33.5 114.5t-7.5 57.5t-24 -25.5t-57 -61.5 t-79.5 -72t-101.5 -61.5t-112.5 -25.5q-131 0 -175 70.5t-44 193.5zM209 246q0 -74 46 -119t114 -45q94 0 164.5 64.5t97.5 119.5q23 43 48.5 164t40.5 215t15 103q0 37 -45 54t-90 17q-66 0 -137.5 -45t-116.5 -121q-106 -176 -127 -297q-10 -61 -10 -110z"/>
<glyph unicode="Ą" horiz-adv-x="1579" d="M41 18q0 27 51 43q20 8 32.5 15.5t27.5 19.5q16 14 32 38l34 56q20 32 50 88l68 124l94 170l122 222l160 284l199 352q16 29 23.5 34.5t24 5.5t22.5 -13t26 -82l66 -228q47 -159 169 -531l134 -407q35 -90 53.5 -111.5t77.5 -40.5q33 -10 33 -41q0 -20 -63 -20 q-2 0 -15.5 1t-33 2t-39.5 1q-131 0 -223.5 -58.5t-92.5 -131.5q0 -57 31 -94.5t72 -37.5q31 0 63.5 27t40.5 27q6 0 6 -17q0 -27 -57.5 -70.5t-120.5 -43.5q-154 0 -154 135q0 104 121 196q10 6 49 32t55.5 41t35 49t18.5 77q0 39 -15.5 102.5t-39 136t-29.5 99.5 q-10 46 -44 55q-14 4 -32 4q-10 0 -90 -1t-158 -1q-156 0 -207 3t-67 3q-55 0 -72 -30q-57 -100 -100 -187.5t-58.5 -127.5t-15.5 -46q0 -51 35 -68.5t69.5 -22.5t34.5 -25q0 -10 -2 -17.5t-7 -9.5t-8 -2h-13q-43 0 -82 1t-60.5 2t-35.5 1q-18 0 -65.5 -2t-88.5 -2.5 t-41 22.5zM555 639q0 -16 68 -16h35q26 0 121 1t270 1q16 0 23 5t8 10t1 15q0 25 -89 295.5t-107 270.5q-10 0 -170 -287t-160 -295z"/>
<glyph unicode="ą" horiz-adv-x="1060" d="M66 233.5q0 122.5 74.5 270t203.5 257t262 109.5q31 0 85 -11t89 -11q20 0 53 50t54 50q23 0 22 -30q0 -18 -17.5 -67.5t-23.5 -74.5q-84 -426 -84 -524q0 -43 20.5 -82t49.5 -39q37 0 85 66.5t65 66.5q18 0 18 -22q0 -86 -148 -211q-23 -18 -94 -56t-116.5 -78 t-45.5 -87q0 -57 31 -94.5t72 -37.5q31 0 63.5 27t40.5 27q6 0 6 -17q0 -27 -58 -70.5t-122 -43.5q-152 0 -151 135q0 55 31.5 103t69.5 75t69.5 55.5t31.5 48.5q0 18 -10 42t-16 61l-17 94q-2 0 -23.5 -25.5t-57 -61.5t-79.5 -72t-101.5 -61.5t-112.5 -25.5q-131 0 -175 71 t-44 193.5zM209 246q0 -74 46 -119t114 -45q94 0 164.5 64.5t97.5 119.5q23 43 48.5 164t40.5 215t15 103q0 37 -45 54t-90 17q-66 0 -137.5 -45t-116.5 -121q-70 -115 -103.5 -205.5t-33.5 -201.5z"/>
<glyph unicode="Ć" horiz-adv-x="1560" d="M829 1544q0 8 5.5 16.5t20.5 28l35 47.5l53 88l73 131q18 37 40.5 37t59.5 -13t37 -34q0 -33 -141.5 -175t-165.5 -142q-17 0 -17 16zM80 639q0 152 49 294t144.5 261t251 189.5t352.5 70.5q125 0 243.5 -39t185.5 -78l66 -39q6 0 21.5 16.5t23.5 16.5q25 0 25 -33 q0 -88 3 -149.5t6 -83t6 -39.5t3 -33q0 -49 -28 -49q-14 0 -24.5 16.5t-26 60.5t-23.5 64q-25 63 -52.5 97.5t-76.5 66.5q-186 127 -385 127q-184 0 -322.5 -103.5t-203 -258t-64.5 -330.5q0 -301 166 -478t395 -177q256 0 442 211q25 27 45.5 70.5t35 69.5t32.5 26 q33 0 32 -37q0 -14 -4.5 -35t-15 -49.5t-14.5 -42.5q-8 -29 -15 -64t-12.5 -48t-19.5 -21q-297 -156 -547 -156q-172 0 -308 57.5t-219 154.5t-125 218t-42 256z"/>
<glyph unicode="ć" horiz-adv-x="856" d="M449 1004q0 8 5 16t20 27.5t34.5 48t53.5 87t73 132.5q18 37 40.5 37t59.5 -13.5t37 -33.5q0 -33 -141.5 -175.5t-165.5 -142.5q-16 1 -16 17zM66 305q0 219 154.5 403.5t365.5 184.5q20 0 63 -11.5t92.5 -47t49.5 -89.5q0 -31 -20.5 -55t-47.5 -24q-29 0 -56.5 23.5 t-48 50t-58.5 50t-87 23.5q-16 0 -56 -19.5t-77 -52.5q-20 -18 -47 -54t-57.5 -115.5t-30.5 -163.5q0 -313 241 -314q74 0 134.5 28t94.5 55.5t46 27.5q27 0 27 -27q0 -18 -43 -64t-135.5 -92.5t-194.5 -46.5q-309 0 -309 330z"/>
<glyph unicode="Ĉ" horiz-adv-x="1560" d="M680 1563q0 2 8 14l60 78l46 63l34 48q16 22 24 36.5t16 26.5l13 18q4 6 8 10.5t7 5.5t9 1h53q20 0 29 -21q29 -61 67 -129l58 -104q20 -37 21 -45q0 -12 -16.5 -12.5t-101.5 86.5t-93 87q-16 0 -115.5 -86t-112.5 -86q-14 1 -14 9zM80 639q0 152 49 294t144.5 261 t251 189.5t352.5 70.5q125 0 243.5 -39t185.5 -78l66 -39q6 0 21.5 16.5t23.5 16.5q25 0 25 -33q0 -88 3 -149.5t6 -83t6 -39.5t3 -33q0 -49 -28 -49q-14 0 -24.5 16.5t-26 60.5t-23.5 64q-25 63 -52.5 97.5t-76.5 66.5q-186 127 -385 127q-184 0 -322.5 -103.5t-203 -258 t-64.5 -330.5q0 -301 166 -478t395 -177q256 0 442 211q25 27 45.5 70.5t35 69.5t32.5 26q33 0 32 -37q0 -14 -4.5 -35t-15 -49.5t-14.5 -42.5q-8 -29 -15 -64t-12.5 -48t-19.5 -21q-297 -156 -547 -156q-172 0 -308 57.5t-219 154.5t-125 218t-42 256z"/>
<glyph unicode="ĉ" horiz-adv-x="856" d="M299 1022q0 2 8 14l61 78l46 62l34 48q16 22 23.5 37t16 27t12.5 18.5t8 10.5t7 5t9 1h54q20 0 28 -20q29 -61 67 -129l59 -105q20 -37 20 -45q0 -12 -16.5 -12t-101.5 87t-93 87q-16 0 -115.5 -86t-112.5 -86q-14 0 -14 8zM66 305q0 219 154.5 403.5t365.5 184.5 q20 0 63 -11.5t92.5 -47t49.5 -89.5q0 -31 -20.5 -55t-47.5 -24q-29 0 -56.5 23.5t-48 50t-58.5 50t-87 23.5q-16 0 -56 -19.5t-77 -52.5q-20 -18 -47 -54t-57.5 -115.5t-30.5 -163.5q0 -313 241 -314q74 0 134.5 28t94.5 55.5t46 27.5q27 0 27 -27q0 -18 -43 -64 t-135.5 -92.5t-194.5 -46.5q-309 0 -309 330z"/>
<glyph unicode="Ċ" horiz-adv-x="1560" d="M834 1755q0 16 38.5 62.5t65.5 46.5q29 0 53.5 -40t24.5 -69q0 -31 -37 -72t-55 -41q-23 0 -56.5 45t-33.5 68zM80 639q0 152 49 294t144.5 261t251 189.5t352.5 70.5q125 0 243.5 -39t185.5 -78l66 -39q6 0 21.5 16.5t23.5 16.5q25 0 25 -33q0 -88 3 -149.5t6 -83 t6 -39.5t3 -33q0 -49 -28 -49q-14 0 -24.5 16.5t-26 60.5t-23.5 64q-25 63 -52.5 97.5t-76.5 66.5q-186 127 -385 127q-184 0 -322.5 -103.5t-203 -258t-64.5 -330.5q0 -301 166 -478t395 -177q256 0 442 211q25 27 45.5 70.5t35 69.5t32.5 26q33 0 32 -37q0 -14 -4.5 -35 t-15 -49.5t-14.5 -42.5q-8 -29 -15 -64t-12.5 -48t-19.5 -21q-297 -156 -547 -156q-172 0 -308 57.5t-219 154.5t-125 218t-42 256z"/>
<glyph unicode="ċ" horiz-adv-x="856" d="M453 1214q0 16 38.5 62.5t65.5 46.5q29 0 53.5 -40t24.5 -69q0 -31 -37 -71.5t-55 -40.5q-23 0 -56.5 44.5t-33.5 67.5zM66 305q0 219 154.5 403.5t365.5 184.5q20 0 63 -11.5t92.5 -47t49.5 -89.5q0 -31 -20.5 -55t-47.5 -24q-29 0 -56.5 23.5t-48 50t-58.5 50t-87 23.5 q-16 0 -56 -19.5t-77 -52.5q-20 -18 -47 -54t-57.5 -115.5t-30.5 -163.5q0 -313 241 -314q74 0 134.5 28t94.5 55.5t46 27.5q27 0 27 -27q0 -18 -43 -64t-135.5 -92.5t-194.5 -46.5q-309 0 -309 330z"/>
<glyph unicode="Č" horiz-adv-x="1560" d="M709 1851q0 12 14 13h4q12 0 97 -87t96 -87q14 0 110 84l40 36q22 20 31 29.5t20.5 16t21.5 6.5q14 0 14 -11q0 -8 -4 -14l-61 -78l-46 -63l-34 -48q-16 -22 -23.5 -35.5t-15.5 -25.5t-12.5 -18t-8.5 -10.5t-7 -5.5t-9 -1h-53q-20 0 -29 21q-26 57 -64 125l-60 105 q-22 38 -21 48zM80 639q0 152 49 294t144.5 261t251 189.5t352.5 70.5q125 0 243.5 -39t185.5 -78l66 -39q6 0 21.5 16.5t23.5 16.5q25 0 25 -33q0 -88 3 -149.5t6 -83t6 -39.5t3 -33q0 -49 -28 -49q-14 0 -24.5 16.5t-26 60.5t-23.5 64q-25 63 -52.5 97.5t-76.5 66.5 q-186 127 -385 127q-184 0 -322.5 -103.5t-203 -258t-64.5 -330.5q0 -301 166 -478t395 -177q256 0 442 211q25 27 45.5 70.5t35 69.5t32.5 26q33 0 32 -37q0 -14 -4.5 -35t-15 -49.5t-14.5 -42.5q-8 -29 -15 -64t-12.5 -48t-19.5 -21q-297 -156 -547 -156q-172 0 -308 57.5 t-219 154.5t-125 218t-42 256z"/>
<glyph unicode="č" horiz-adv-x="856" d="M328 1311q0 12 14 12h4q12 0 97 -87t96 -87q14 0 110 84l40 37q22 20 31 29.5t20.5 15.5t21.5 6q14 0 14 -10q0 -8 -4 -15l-60 -78l-46 -62l-34 -48q-16 -22 -24 -36l-16 -26q-8 -12 -12.5 -18t-8.5 -10t-7 -5t-9 -1h-53q-20 0 -29 20q-27 57 -65 125l-58 106 q-22 38 -22 48zM66 305q0 219 154.5 403.5t365.5 184.5q20 0 63 -11.5t92.5 -47t49.5 -89.5q0 -31 -20.5 -55t-47.5 -24q-29 0 -56.5 23.5t-48 50t-58.5 50t-87 23.5q-16 0 -56 -19.5t-77 -52.5q-20 -18 -47 -54t-57.5 -115.5t-30.5 -163.5q0 -313 241 -314q74 0 134.5 28 t94.5 55.5t46 27.5q27 0 27 -27q0 -18 -43 -64t-135.5 -92.5t-194.5 -46.5q-309 0 -309 330z"/>
<glyph unicode="Ď" horiz-adv-x="1570" d="M655 1851q0 12 15 13h4q12 0 97 -87t95 -87q14 0 111 84l39 36l32 30q10 9 20.5 15.5t21.5 6.5q14 0 14 -11q0 -8 -4 -14l-60 -78l-46 -63l-34 -48q-16 -22 -24 -35.5t-16 -25.5l-13 -18q-4 -6 -8 -10.5t-7 -5.5t-9 -1h-54q-20 0 -28 21q-27 57 -65 125l-60 105 q-22 38 -21 48zM41 27q0 16 16.5 23t38 10t46 24.5t38.5 65.5q10 39 19 88l139 1024q4 33 4 36q0 31 -28.5 56.5t-63.5 27.5q-94 6 -94 45q0 37 63 37q35 0 95.5 -11t111.5 -11t142 10t177 10q389 0 572.5 -162.5t183.5 -414.5q0 -258 -160 -504q-45 -72 -130 -153 t-138 -111q-193 -117 -463 -117q-53 0 -137 3t-180 3q-72 0 -134.5 -8t-72.5 -8q-18 0 -31.5 11.5t-13.5 25.5zM352 145q0 -37 20.5 -56t78.5 -19h180q90 0 212 43t206 118q82 76 140 175.5t81.5 195.5t33 161.5t9.5 119.5q0 66 -14.5 128t-55.5 130.5t-104.5 119t-171 83 t-244.5 32.5q-127 0 -164 -16.5t-59 -95.5q-8 -34 -45 -314l-70 -540q-33 -260 -33 -265z"/>
<glyph unicode="ď" horiz-adv-x="1013" d="M1014 1468q70 66 98 66q8 0 29.5 -10.5t46 -40t24.5 -70.5q0 -86 -63.5 -138t-99.5 -52q-12 0 -13 8q0 4 20.5 16.5t42 37t21.5 61.5q0 41 -26.5 63.5t-53 34.5t-26.5 24zM35 256q0 236 161.5 429.5t348.5 193.5q27 0 75 -13.5t76 -13.5q4 0 39 269.5t35 283.5 q0 23 -17.5 37t-41.5 14q-10 0 -27.5 -1t-31.5 -1h-13q-33 0 -33 23q0 16 17.5 22t55.5 10t56 9q29 8 54.5 14t35 9t21.5 6t22 3h25q14 0 23.5 -10t9.5 -24.5t-3 -37t-13 -84.5l-22 -150q-14 -86 -40 -272l-57 -413q-43 -297 -43 -346q0 -88 53 -88q39 0 74.5 31.5t59 63.5 t36.5 32q23 0 22 -19q0 -47 -87 -148t-175 -101q-49 0 -75.5 35.5t-30.5 78.5l-7 79q-4 36 -12 36q-4 0 -30.5 -36t-62.5 -79t-99.5 -78.5t-132.5 -35.5q-125 0 -185.5 74.5t-60.5 197.5zM178 313q0 -96 43 -153.5t131 -57.5q123 0 207 107q53 66 83 254t30 291 q0 39 -44 60.5t-93 21.5q-90 0 -174.5 -86t-133.5 -207t-49 -230z"/>
<glyph unicode="Đ" horiz-adv-x="1570" d="M41 27q0 16 16.5 23t38 10t46 24.5t38.5 65.5q8 24 26 152l35 244l15 116q0 18 -7 22t-26 4h-102q-27 0 -27 45q0 18 7.5 31.5t15.5 13.5q16 0 69.5 -2t67.5 -2q16 0 19 7t8 50l57 431q4 33 4 36q0 31 -28.5 56.5t-63.5 27.5q-94 6 -94 45q0 37 63 37q35 0 95.5 -11 t111.5 -11t142 10t177 10q389 0 572.5 -162.5t183.5 -414.5q0 -258 -160 -504q-45 -72 -130 -153t-138 -111q-193 -117 -463 -117q-53 0 -137 3t-180 3q-72 0 -134.5 -8t-72.5 -8q-18 0 -31.5 11.5t-13.5 25.5zM352 145q0 -37 20.5 -56t78.5 -19h180q90 0 212 43t206 118 q82 76 140 175.5t81.5 195.5t33 161.5t9.5 119.5q0 66 -14.5 128t-55.5 130.5t-104.5 119t-171 83t-244.5 32.5q-127 0 -164 -16.5t-59 -95.5q-6 -20 -23.5 -139t-31.5 -228l-13 -109q0 -14 27 -14q37 0 182 3t160 3q25 0 24 -47q0 -43 -16 -43q-12 0 -81 -1t-126 -1h-151 q-23 0 -27 -5t-8 -32l-16 -124l-32 -250q-16 -126 -16 -132z"/>
<glyph unicode="đ" horiz-adv-x="1013" d="M35 256q0 236 161.5 429.5t348.5 193.5q27 0 75 -13.5t76 -13.5q2 0 19.5 116.5t17.5 129.5q0 18 -18 18h-279q-27 0 -26 35q0 53 22 53q8 0 81 -1t163 -1h39q25 0 29 3t7 24q1 6 1 10l8 64q10 96 10 102q0 23 -17.5 37t-41.5 14q-10 0 -27.5 -1t-31.5 -1h-13 q-33 0 -33 23q0 16 17.5 22t55.5 10t56 9q29 8 54.5 14t35 9t21.5 6t22 3h25q14 0 23.5 -10t9.5 -24q0 -33 -27 -203l-8 -62q-4 -29 -4 -30q0 -16 26 -17q16 0 54.5 1t46.5 1q18 0 22 -6t4 -20q0 -63 -30 -64h-125q-12 0 -14.5 -3t-5.5 -22q-1 -6 -1 -10l-73 -522 q-43 -297 -43 -346q0 -88 53 -88q39 0 74.5 31.5t59 63.5t36.5 32q23 0 22 -19q0 -47 -87 -148t-175 -101q-49 0 -75.5 35.5t-30.5 78.5l-7 79q-4 36 -12 36q-4 0 -30.5 -36t-62.5 -79t-99.5 -78.5t-132.5 -35.5q-125 0 -185.5 74.5t-60.5 197.5zM178 313q0 -96 43 -153.5 t131 -57.5q123 0 207 107q53 66 83 254t30 291q0 39 -44 60.5t-93 21.5q-90 0 -174.5 -86t-133.5 -207t-49 -230z"/>
<glyph unicode="Ē" horiz-adv-x="1292" d="M592 1731q0 55 41 55q158 0 225.5 -2t142.5 -2q16 0 21.5 -5t5.5 -24q0 -59 -35 -59q-14 0 -179 1t-206 1q-16 0 -16 35zM41 29q0 27 45 28q47 2 72.5 33t36 68t26.5 140q4 23 6 36q0 6 16.5 106.5t24.5 165.5l74 621q2 18 2 43q0 57 -24.5 84.5t-53 29.5t-53.5 9.5 t-25 25.5q0 31 48 31q18 0 84.5 -1t182 -2t251.5 -1q43 0 243.5 4t229.5 4q37 0 37 -39q0 -10 -4.5 -46t-4.5 -62q0 -14 3.5 -51t3.5 -60q0 -57 -27 -57q-18 0 -24.5 14t-6.5 34.5t-8 51.5t-31 55q-8 10 -28.5 22.5t-71.5 28t-115 15.5q-78 0 -166 3t-149 3 q-90 0 -109.5 -20.5t-36.5 -118.5q-51 -358 -51 -416q0 -20 13.5 -24.5t74.5 -4.5q266 0 329 8.5t89 40.5q20 25 32.5 53.5t18.5 41t19 12.5q25 0 24 -23q0 -18 -17 -95t-24 -118q-4 -23 -4 -80t-7 -89.5t-25 -32.5q-23 0 -23 32q0 98 -35 123q-59 43 -219 43h-99 q-38 0 -47.5 1t-15.5 1h-12q-78 0 -80 -34q-6 -62 -26 -184l-34 -216q-14 -94 -14 -108q0 -49 49.5 -62.5t208.5 -13.5q174 0 296 31.5t166 69.5t74 70t42 32q20 0 20 -29q0 -55 -86 -163.5t-151 -108.5q-147 0 -367.5 11t-265.5 11q-57 0 -118.5 -3t-110.5 -3q-72 0 -72 29 z"/>
<glyph unicode="ē" horiz-adv-x="823" d="M354 1190q0 55 41 55q158 0 225.5 -2t143.5 -2q16 0 21.5 -5t5.5 -24q0 -59 -35 -59q-14 0 -179 1t-206 1q-17 0 -17 35zM66 301q0 129 61 256t170 227q115 109 285 109q74 0 126 -43t52 -109q0 -51 -24.5 -97t-61.5 -76.5t-64.5 -48t-48.5 -25.5q-119 -53 -321 -56 q-35 0 -35 -84q0 -119 73.5 -187.5t221.5 -68.5q51 0 101 22.5t82 44t38 21.5q25 0 24 -20q0 -43 -117.5 -117t-238.5 -74q-182 0 -252.5 86t-70.5 240zM233 514q0 -41 19 -41q145 0 255.5 82t110.5 180q0 51 -35.5 73.5t-72.5 22.5q-76 0 -168 -96q-41 -43 -75 -118.5 t-34 -102.5z"/>
<glyph unicode="Ĕ" horiz-adv-x="1292" d="M598 1786q0 39 10 39h23q6 0 14 -22.5t21.5 -49.5t54.5 -49.5t106 -22.5q55 0 98.5 22.5t62 49.5t31.5 49.5t19 22.5h15q14 0 14 -4q0 -16 -15.5 -53t-44 -83.5t-83 -79t-119.5 -32.5q-96 0 -151.5 64.5t-55.5 148.5zM41 29q0 27 45 28q47 2 72.5 33t36 68t26.5 140 q4 23 6 36q0 6 16.5 106.5t24.5 165.5l74 621q2 18 2 43q0 57 -24.5 84.5t-53 29.5t-53.5 9.5t-25 25.5q0 31 48 31q18 0 84.5 -1t182 -2t251.5 -1q43 0 243.5 4t229.5 4q37 0 37 -39q0 -10 -4.5 -46t-4.5 -62q0 -14 3.5 -51t3.5 -60q0 -57 -27 -57q-18 0 -24.5 14 t-6.5 34.5t-8 51.5t-31 55q-8 10 -28.5 22.5t-71.5 28t-115 15.5q-78 0 -166 3t-149 3q-90 0 -109.5 -20.5t-36.5 -118.5q-51 -358 -51 -416q0 -20 13.5 -24.5t74.5 -4.5q266 0 329 8.5t89 40.5q20 25 32.5 53.5t18.5 41t19 12.5q25 0 24 -23q0 -18 -17 -95t-24 -118 q-4 -23 -4 -80t-7 -89.5t-25 -32.5q-23 0 -23 32q0 98 -35 123q-59 43 -219 43h-99q-38 0 -47.5 1t-15.5 1h-12q-78 0 -80 -34q-6 -62 -26 -184l-34 -216q-14 -94 -14 -108q0 -49 49.5 -62.5t208.5 -13.5q174 0 296 31.5t166 69.5t74 70t42 32q20 0 20 -29q0 -55 -86 -163.5 t-151 -108.5q-147 0 -367.5 11t-265.5 11q-57 0 -118.5 -3t-110.5 -3q-72 0 -72 29z"/>
<glyph unicode="ĕ" horiz-adv-x="823" d="M360 1245q0 39 11 39h22q6 0 14.5 -22.5t21.5 -49t54 -49t107 -22.5q55 0 98 22.5t61.5 49t32 49t19.5 22.5h14q14 0 14 -4q0 -16 -15 -53t-44 -83t-83 -79t-120 -33q-96 0 -151.5 64.5t-55.5 148.5zM66 301q0 129 61 256t170 227q115 109 285 109q74 0 126 -43t52 -109 q0 -51 -24.5 -97t-61.5 -76.5t-64.5 -48t-48.5 -25.5q-119 -53 -321 -56q-35 0 -35 -84q0 -119 73.5 -187.5t221.5 -68.5q51 0 101 22.5t82 44t38 21.5q25 0 24 -20q0 -43 -117.5 -117t-238.5 -74q-182 0 -252.5 86t-70.5 240zM233 514q0 -41 19 -41q145 0 255.5 82 t110.5 180q0 51 -35.5 73.5t-72.5 22.5q-76 0 -168 -96q-41 -43 -75 -118.5t-34 -102.5z"/>
<glyph unicode="Ė" horiz-adv-x="1292" d="M723 1755q0 16 39 62.5t65 46.5q29 0 53.5 -40t24.5 -69q0 -31 -37 -72t-55 -41q-23 0 -56.5 45t-33.5 68zM41 29q0 27 45 28q47 2 72.5 33t36 68t26.5 140q4 23 6 36q0 6 16.5 106.5t24.5 165.5l74 621q2 18 2 43q0 57 -24.5 84.5t-53 29.5t-53.5 9.5t-25 25.5 q0 31 48 31q18 0 84.5 -1t182 -2t251.5 -1q43 0 243.5 4t229.5 4q37 0 37 -39q0 -10 -4.5 -46t-4.5 -62q0 -14 3.5 -51t3.5 -60q0 -57 -27 -57q-18 0 -24.5 14t-6.5 34.5t-8 51.5t-31 55q-8 10 -28.5 22.5t-71.5 28t-115 15.5q-78 0 -166 3t-149 3q-90 0 -109.5 -20.5 t-36.5 -118.5q-51 -358 -51 -416q0 -20 13.5 -24.5t74.5 -4.5q266 0 329 8.5t89 40.5q20 25 32.5 53.5t18.5 41t19 12.5q25 0 24 -23q0 -18 -17 -95t-24 -118q-4 -23 -4 -80t-7 -89.5t-25 -32.5q-23 0 -23 32q0 98 -35 123q-59 43 -219 43h-99q-38 0 -47.5 1t-15.5 1h-12 q-78 0 -80 -34q-6 -62 -26 -184l-34 -216q-14 -94 -14 -108q0 -49 49.5 -62.5t208.5 -13.5q174 0 296 31.5t166 69.5t74 70t42 32q20 0 20 -29q0 -55 -86 -163.5t-151 -108.5q-147 0 -367.5 11t-265.5 11q-57 0 -118.5 -3t-110.5 -3q-72 0 -72 29z"/>
<glyph unicode="ė" horiz-adv-x="823" d="M485 1214q0 16 39 62.5t66 46.5q29 0 53.5 -40t24.5 -69q0 -31 -37 -71.5t-56 -40.5q-23 0 -56.5 44.5t-33.5 67.5zM66 301q0 129 61 256t170 227q115 109 285 109q74 0 126 -43t52 -109q0 -51 -24.5 -97t-61.5 -76.5t-64.5 -48t-48.5 -25.5q-119 -53 -321 -56 q-35 0 -35 -84q0 -119 73.5 -187.5t221.5 -68.5q51 0 101 22.5t82 44t38 21.5q25 0 24 -20q0 -43 -117.5 -117t-238.5 -74q-182 0 -252.5 86t-70.5 240zM233 514q0 -41 19 -41q145 0 255.5 82t110.5 180q0 51 -35.5 73.5t-72.5 22.5q-76 0 -168 -96q-41 -43 -75 -118.5 t-34 -102.5z"/>
<glyph unicode="Ę" horiz-adv-x="1292" d="M41 29q0 27 45 28q47 2 72.5 33t36 68t26.5 140q4 23 6 36q0 6 16.5 106.5t24.5 165.5l74 621q2 18 2 43q0 57 -24.5 84.5t-53 29.5t-53.5 9.5t-25 25.5q0 31 48 31q18 0 84.5 -1t182 -2t251.5 -1q43 0 243.5 4t229.5 4q37 0 37 -39q0 -10 -4.5 -46t-4.5 -62 q0 -14 3.5 -51t3.5 -60q0 -57 -27 -57q-18 0 -24.5 14t-6.5 34.5t-8 51.5t-31 55q-8 10 -28.5 22.5t-71.5 28t-115 15.5q-78 0 -166 3t-149 3q-90 0 -109.5 -20.5t-36.5 -118.5q-51 -358 -51 -416q0 -20 13.5 -24.5t74.5 -4.5q266 0 329 8.5t89 40.5q20 25 32.5 53.5 t18.5 41t19 12.5q25 0 24 -23q0 -18 -17 -95t-24 -118q-4 -23 -4 -80t-7 -89.5t-25 -32.5q-23 0 -23 32q0 98 -35 123q-59 43 -219 43h-99q-38 0 -47.5 1t-15.5 1h-12q-78 0 -80 -34q-6 -62 -26 -184l-34 -216q-14 -94 -14 -108q0 -49 49.5 -62.5t208.5 -13.5 q174 0 296 31.5t166 69.5t74 70t42 32q20 0 20 -29q0 -33 -39.5 -99.5t-91.5 -113.5q-20 -20 -83.5 -62t-100.5 -82t-37 -89q0 -57 31 -94.5t72 -37.5q31 0 63.5 27t40.5 27q6 0 6 -17q0 -27 -57.5 -70.5t-120.5 -43.5q-154 0 -154 135q0 51 31 101t60.5 82t29.5 42 q0 25 -127 29q-61 2 -202.5 9t-190.5 7q-57 0 -118.5 -3t-110.5 -3q-72 0 -72 29z"/>
<glyph unicode="ę" horiz-adv-x="823" d="M66 301q0 129 61 256t170 227q115 109 285 109q74 0 126 -43t52 -109q0 -51 -24.5 -97t-61.5 -76.5t-64.5 -48t-48.5 -25.5q-119 -53 -321 -56q-35 0 -35 -84q0 -119 73.5 -187.5t221.5 -68.5q51 0 101 22.5t82 44t38 21.5q25 0 24 -20q0 -31 -49 -69t-178 -109 q-133 -74 -133 -178q0 -57 30.5 -94.5t71.5 -37.5q31 0 64 27t41 27q6 0 6 -17q0 -27 -57.5 -70.5t-120.5 -43.5q-154 0 -154 135q0 51 31 101t62.5 83t31.5 41t-33.5 11t-81 14.5t-95.5 38t-81.5 97t-33.5 179.5zM233 514q0 -41 19 -41q145 0 255.5 82t110.5 180 q0 51 -35.5 73.5t-72.5 22.5q-76 0 -168 -96q-41 -43 -75 -118.5t-34 -102.5z"/>
<glyph unicode="Ě" horiz-adv-x="1292" d="M598 1851q0 12 14 13h4q12 0 97.5 -87t95.5 -87q14 0 111 84l40 36l30 30q9 9 20.5 15.5t21.5 6.5q14 0 15 -11q0 -8 -5 -14l-60 -78l-46 -63l-34 -48q-16 -22 -24 -36l-16 -25l-12 -18q-4 -6 -8 -10.5t-7.5 -5.5t-9.5 -1h-53q-20 0 -29 21q-27 57 -65 125l-58 105 q-22 38 -22 48zM41 29q0 27 45 28q47 2 72.5 33t36 68t26.5 140q4 23 6 36q0 6 16.5 106.5t24.5 165.5l74 621q2 18 2 43q0 57 -24.5 84.5t-53 29.5t-53.5 9.5t-25 25.5q0 31 48 31q18 0 84.5 -1t182 -2t251.5 -1q43 0 243.5 4t229.5 4q37 0 37 -39q0 -10 -4.5 -46t-4.5 -62 q0 -14 3.5 -51t3.5 -60q0 -57 -27 -57q-18 0 -24.5 14t-6.5 34.5t-8 51.5t-31 55q-8 10 -28.5 22.5t-71.5 28t-115 15.5q-78 0 -166 3t-149 3q-90 0 -109.5 -20.5t-36.5 -118.5q-51 -358 -51 -416q0 -20 13.5 -24.5t74.5 -4.5q266 0 329 8.5t89 40.5q20 25 32.5 53.5 t18.5 41t19 12.5q25 0 24 -23q0 -18 -17 -95t-24 -118q-4 -23 -4 -80t-7 -89.5t-25 -32.5q-23 0 -23 32q0 98 -35 123q-59 43 -219 43h-99q-38 0 -47.5 1t-15.5 1h-12q-78 0 -80 -34q-6 -62 -26 -184l-34 -216q-14 -94 -14 -108q0 -49 49.5 -62.5t208.5 -13.5 q174 0 296 31.5t166 69.5t74 70t42 32q20 0 20 -29q0 -55 -86 -163.5t-151 -108.5q-147 0 -367.5 11t-265.5 11q-57 0 -118.5 -3t-110.5 -3q-72 0 -72 29z"/>
<glyph unicode="ě" horiz-adv-x="823" d="M360 1311q0 12 15 12h4q12 0 97 -87t95 -87q14 0 111 84l40 37l30 30q10 10 21 15.5t22 5.5q14 0 14 -10q0 -8 -4 -15l-61 -78l-46 -62l-34 -48q-16 -22 -24 -36t-16 -26l-12 -18q-4 -6 -8 -10t-7 -5t-9 -1h-53q-20 0 -29 20q-27 57 -65 125l-59 106q-22 38 -22 48z M66 301q0 129 61 256t170 227q115 109 285 109q74 0 126 -43t52 -109q0 -51 -24.5 -97t-61.5 -76.5t-64.5 -48t-48.5 -25.5q-119 -53 -321 -56q-35 0 -35 -84q0 -119 73.5 -187.5t221.5 -68.5q51 0 101 22.5t82 44t38 21.5q25 0 24 -20q0 -43 -117.5 -117t-238.5 -74 q-182 0 -252.5 86t-70.5 240zM233 514q0 -41 19 -41q145 0 255.5 82t110.5 180q0 51 -35.5 73.5t-72.5 22.5q-76 0 -168 -96q-41 -43 -75 -118.5t-34 -102.5z"/>
<glyph unicode="Ĝ" horiz-adv-x="1583" d="M639 1563q0 2 8 14l61 78l46 63l34 48q16 22 24 36q8 15 16 27l12 18q4 6 8 10.5t7 5.5t9 1h54q20 0 28 -21q29 -61 67 -129l59 -104q20 -37 20 -45q0 -12 -16.5 -12.5t-101.5 86.5t-93 87q-16 0 -115.5 -86t-112.5 -86q-14 1 -14 9zM80 735q0 76 22.5 165t71.5 191.5 t148.5 191.5t234.5 136q137 47 266 47q90 0 177 -15t146.5 -37.5t105.5 -45t73 -38t31 -15.5q6 0 28.5 20.5t30.5 20.5q27 0 27 -37q0 -8 -2 -43t-2 -64q0 -41 7 -102t7 -70q0 -47 -35 -47q-16 0 -24.5 19.5t-22.5 61.5t-39 77q-78 117 -226.5 178.5t-313.5 61.5 q-72 0 -139.5 -15.5t-142.5 -60.5t-129 -116t-90 -191.5t-36 -276.5q0 -285 158.5 -482.5t414.5 -197.5q94 0 158 14.5t123 58.5t89 137t30 237v12q0 106 -17.5 134t-95.5 28h-18q-59 0 -60 37q0 27 68 26q27 0 94.5 -3t93.5 -3q41 0 82 2t64.5 4t25.5 2q39 0 39 -24 q0 -14 -14 -22.5t-32.5 -11.5t-36 -20.5t-23.5 -50.5q-45 -281 -45 -393v-63q0 -29 -3 -38.5t-7.5 -13.5t-29 -10t-46.5 -14q-4 -2 -33 -13.5t-52.5 -19.5t-66.5 -21.5t-84 -21.5t-96 -14t-109 -6q-362 0 -553.5 206.5t-191.5 548.5z"/>
<glyph unicode="ĝ" horiz-adv-x="890" d="M260 1022q0 2 8 14l60 78l46 62l34 48q16 22 24 37t16.5 27t12.5 18.5t8 10.5t7 5t9 1h54q20 0 28 -20q29 -61 67 -129l58 -105q20 -37 21 -45q0 -12 -16.5 -12t-101.5 87t-93 87q-16 0 -115.5 -86t-112.5 -86q-14 0 -14 8zM-49 -150q0 51 20.5 90.5t49 59.5t57 31.5 t49 17.5t20.5 8q0 4 -6 13.5t-12 29t-6 47.5q0 43 20.5 74t40 46.5t19.5 21.5q0 2 -21.5 21.5t-44 79t-22.5 157.5q0 109 85 218t220 109q47 0 122.5 -26.5t102.5 -26.5q31 0 82 22.5t66 22.5q20 0 39.5 -12t19.5 -41q0 -20 -20.5 -41.5t-55.5 -21.5q-31 0 -67.5 8t-40.5 8 q-25 0 -25 -18q0 -4 9.5 -26t18.5 -58.5t9 -75.5q0 -115 -83 -233.5t-210 -118.5q-55 0 -102 13t-56 13q-2 0 -7 -5t-11 -22.5t-6 -41.5q0 -57 82 -96.5t179 -61t179 -75.5t82 -138q0 -123 -93 -172t-263 -49q-176 0 -298 62t-122 187zM63 -125q0 -109 93.5 -166t210.5 -57 q229 0 229 133q0 35 -72.5 77t-287.5 130q-50 20 -68 37q-27 0 -66 -49.5t-39 -104.5zM238 512q0 -113 39.5 -171t99.5 -58q72 0 128 80.5t56 214.5q0 117 -42 180t-103 63q-70 0 -124 -83t-54 -226z"/>
<glyph unicode="Ğ" horiz-adv-x="1583" d="M668 1786q0 39 10 39h22q6 0 14 -22.5t22 -49.5t54.5 -49.5t106.5 -22.5q55 0 98 22.5t61.5 49.5t32 49.5t19.5 22.5h14q14 0 15 -4q0 -16 -15.5 -53t-44 -83.5t-83 -79t-120.5 -32.5q-96 0 -151 64.5t-55 148.5zM80 735q0 76 22.5 165t71.5 191.5t148.5 191.5t234.5 136 q137 47 266 47q90 0 177 -15t146.5 -37.5t105.5 -45t73 -38t31 -15.5q6 0 28.5 20.5t30.5 20.5q27 0 27 -37q0 -8 -2 -43t-2 -64q0 -41 7 -102t7 -70q0 -47 -35 -47q-16 0 -24.5 19.5t-22.5 61.5t-39 77q-78 117 -226.5 178.5t-313.5 61.5q-72 0 -139.5 -15.5t-142.5 -60.5 t-129 -116t-90 -191.5t-36 -276.5q0 -285 158.5 -482.5t414.5 -197.5q94 0 158 14.5t123 58.5t89 137t30 237v12q0 106 -17.5 134t-95.5 28h-18q-59 0 -60 37q0 27 68 26q27 0 94.5 -3t93.5 -3q41 0 82 2t64.5 4t25.5 2q39 0 39 -24q0 -14 -14 -22.5t-32.5 -11.5t-36 -20.5 t-23.5 -50.5q-45 -281 -45 -393v-63q0 -29 -3 -38.5t-7.5 -13.5t-29 -10t-46.5 -14q-4 -2 -33 -13.5t-52.5 -19.5t-66.5 -21.5t-84 -21.5t-96 -14t-109 -6q-362 0 -553.5 206.5t-191.5 548.5z"/>
<glyph unicode="ğ" horiz-adv-x="890" d="M289 1245q0 39 10 39h23q6 0 14 -22.5t21.5 -49t54.5 -49t106 -22.5q55 0 98 22.5t61.5 49t32 49t19.5 22.5h14q14 0 15 -4q0 -16 -15.5 -53t-44 -83t-83 -79t-119.5 -33q-96 0 -151.5 64.5t-55.5 148.5zM-49 -150q0 51 20.5 90.5t49 59.5t57 31.5t49 17.5t20.5 8 q0 4 -6 13.5t-12 29t-6 47.5q0 43 20.5 74t40 46.5t19.5 21.5q0 2 -21.5 21.5t-44 79t-22.5 157.5q0 109 85 218t220 109q47 0 122.5 -26.5t102.5 -26.5q31 0 82 22.5t66 22.5q20 0 39.5 -12t19.5 -41q0 -20 -20.5 -41.5t-55.5 -21.5q-31 0 -67.5 8t-40.5 8q-25 0 -25 -18 q0 -4 9.5 -26t18.5 -58.5t9 -75.5q0 -115 -83 -233.5t-210 -118.5q-55 0 -102 13t-56 13q-2 0 -7 -5t-11 -22.5t-6 -41.5q0 -57 82 -96.5t179 -61t179 -75.5t82 -138q0 -123 -93 -172t-263 -49q-176 0 -298 62t-122 187zM63 -125q0 -109 93.5 -166t210.5 -57q229 0 229 133 q0 35 -72.5 77t-287.5 130q-50 20 -68 37q-27 0 -66 -49.5t-39 -104.5zM238 512q0 -113 39.5 -171t99.5 -58q72 0 128 80.5t56 214.5q0 117 -42 180t-103 63q-70 0 -124 -83t-54 -226z"/>
<glyph unicode="Ġ" horiz-adv-x="1583" d="M793 1755q0 16 38.5 62.5t65.5 46.5q29 0 53.5 -40t24.5 -69q0 -31 -37 -72t-55 -41q-23 0 -56.5 45t-33.5 68zM80 735q0 76 22.5 165t71.5 191.5t148.5 191.5t234.5 136q137 47 266 47q90 0 177 -15t146.5 -37.5t105.5 -45t73 -38t31 -15.5q6 0 28.5 20.5t30.5 20.5 q27 0 27 -37q0 -8 -2 -43t-2 -64q0 -41 7 -102t7 -70q0 -47 -35 -47q-16 0 -24.5 19.5t-22.5 61.5t-39 77q-78 117 -226.5 178.5t-313.5 61.5q-72 0 -139.5 -15.5t-142.5 -60.5t-129 -116t-90 -191.5t-36 -276.5q0 -285 158.5 -482.5t414.5 -197.5q94 0 158 14.5t123 58.5 t89 137t30 237v12q0 106 -17.5 134t-95.5 28h-18q-59 0 -60 37q0 27 68 26q27 0 94.5 -3t93.5 -3q41 0 82 2t64.5 4t25.5 2q39 0 39 -24q0 -14 -14 -22.5t-32.5 -11.5t-36 -20.5t-23.5 -50.5q-45 -281 -45 -393v-63q0 -29 -3 -38.5t-7.5 -13.5t-29 -10t-46.5 -14 q-4 -2 -33 -13.5t-52.5 -19.5t-66.5 -21.5t-84 -21.5t-96 -14t-109 -6q-362 0 -553.5 206.5t-191.5 548.5z"/>
<glyph unicode="ġ" horiz-adv-x="890" d="M414 1214q0 16 39 62.5t65 46.5q29 0 53.5 -40t24.5 -69q0 -31 -37 -71.5t-55 -40.5q-23 0 -56.5 44.5t-33.5 67.5zM-49 -150q0 51 20.5 90.5t49 59.5t57 31.5t49 17.5t20.5 8q0 4 -6 13.5t-12 29t-6 47.5q0 43 20.5 74t40 46.5t19.5 21.5q0 2 -21.5 21.5t-44 79 t-22.5 157.5q0 109 85 218t220 109q47 0 122.5 -26.5t102.5 -26.5q31 0 82 22.5t66 22.5q20 0 39.5 -12t19.5 -41q0 -20 -20.5 -41.5t-55.5 -21.5q-31 0 -67.5 8t-40.5 8q-25 0 -25 -18q0 -4 9.5 -26t18.5 -58.5t9 -75.5q0 -115 -83 -233.5t-210 -118.5q-55 0 -102 13 t-56 13q-2 0 -7 -5t-11 -22.5t-6 -41.5q0 -57 82 -96.5t179 -61t179 -75.5t82 -138q0 -123 -93 -172t-263 -49q-176 0 -298 62t-122 187zM63 -125q0 -109 93.5 -166t210.5 -57q229 0 229 133q0 35 -72.5 77t-287.5 130q-50 20 -68 37q-27 0 -66 -49.5t-39 -104.5zM238 512 q0 -113 39.5 -171t99.5 -58q72 0 128 80.5t56 214.5q0 117 -42 180t-103 63q-70 0 -124 -83t-54 -226z"/>
<glyph unicode="Ģ" horiz-adv-x="1583" d="M680 -162q70 68 98 68q8 0 30.5 -10.5t47.5 -40t25 -70.5q0 -86 -64.5 -139.5t-101.5 -53.5q-10 0 -10 9q0 4 20 16t40.5 36.5t20.5 61.5q0 41 -26.5 63.5t-53 35t-26.5 24.5zM80 735q0 76 22.5 165t71.5 191.5t148.5 191.5t234.5 136q137 47 266 47q90 0 177 -15 t146.5 -37.5t105.5 -45t73 -38t31 -15.5q6 0 28.5 20.5t30.5 20.5q27 0 27 -37q0 -8 -2 -43t-2 -64q0 -41 7 -102t7 -70q0 -47 -35 -47q-16 0 -24.5 19.5t-22.5 61.5t-39 77q-78 117 -226.5 178.5t-313.5 61.5q-72 0 -139.5 -15.5t-142.5 -60.5t-129 -116t-90 -191.5 t-36 -276.5q0 -285 158.5 -482.5t414.5 -197.5q94 0 158 14.5t123 58.5t89 137t30 237v12q0 106 -17.5 134t-95.5 28h-18q-59 0 -60 37q0 27 68 26q27 0 94.5 -3t93.5 -3q41 0 82 2t64.5 4t25.5 2q39 0 39 -24q0 -14 -14 -22.5t-32.5 -11.5t-36 -20.5t-23.5 -50.5 q-45 -281 -45 -393v-63q0 -29 -3 -38.5t-7.5 -13.5t-29 -10t-46.5 -14q-4 -2 -33 -13.5t-52.5 -19.5t-66.5 -21.5t-84 -21.5t-96 -14t-109 -6q-362 0 -553.5 206.5t-191.5 548.5z"/>
<glyph unicode="ģ" horiz-adv-x="890" d="M375 1149q0 86 64.5 138t101.5 52q10 0 10 -8q0 -4 -20.5 -16t-41 -37t-20.5 -61q0 -41 26.5 -64t53 -35t26.5 -24q-70 -68 -98 -68q-8 0 -30.5 11.5t-47 41t-24.5 70.5zM-49 -150q0 51 20.5 90.5t49 59.5t57 31.5t49 17.5t20.5 8q0 4 -6 13.5t-12 29t-6 47.5 q0 43 20.5 74t40 46.5t19.5 21.5q0 2 -21.5 21.5t-44 79t-22.5 157.5q0 109 85 218t220 109q47 0 122.5 -26.5t102.5 -26.5q31 0 82 22.5t66 22.5q20 0 39.5 -12t19.5 -41q0 -20 -20.5 -41.5t-55.5 -21.5q-31 0 -67.5 8t-40.5 8q-25 0 -25 -18q0 -4 9.5 -26t18.5 -58.5 t9 -75.5q0 -115 -83 -233.5t-210 -118.5q-55 0 -102 13t-56 13q-2 0 -7 -5t-11 -22.5t-6 -41.5q0 -57 82 -96.5t179 -61t179 -75.5t82 -138q0 -123 -93 -172t-263 -49q-176 0 -298 62t-122 187zM63 -125q0 -109 93.5 -166t210.5 -57q229 0 229 133q0 35 -72.5 77t-287.5 130 q-50 20 -68 37q-27 0 -66 -49.5t-39 -104.5zM238 512q0 -113 39.5 -171t99.5 -58q72 0 128 80.5t56 214.5q0 117 -42 180t-103 63q-70 0 -124 -83t-54 -226z"/>
<glyph unicode="Ĥ" horiz-adv-x="1609" d="M639 1563q0 2 8 14l61 78l46 63l34 48q16 22 24 36q8 15 16 27l12 18q4 6 8 10.5t7 5.5t9 1h54q20 0 28 -21q29 -61 67 -129l59 -104q20 -37 20 -45q0 -12 -16.5 -12.5t-101.5 86.5t-93 87q-16 0 -115.5 -86t-112.5 -86q-14 1 -14 9zM41 23q0 14 10 21t24.5 8t37 11.5 t41.5 28.5q8 8 13 17.5t10 26t9 31.5t9.5 45t8.5 56.5t9 73.5t10 88t12.5 109.5t14.5 128.5l34 272l30 242q10 84 10 86q0 53 -35 78.5t-87 31.5t-55 8q-16 6 -16 25q0 31 55 31q23 0 84.5 -7.5t126.5 -7.5q49 0 113.5 7.5t79.5 7.5q37 0 37 -31q0 -14 -19.5 -19.5 t-47.5 -12.5t-40 -21q-23 -27 -34 -76t-26.5 -171t-31.5 -214q-8 -51 -8 -80q0 -16 5 -20t19 -4q25 0 76 -1t211 -2.5t395 -3.5h41q35 0 45.5 14.5t16.5 69.5q2 16 12 110l19 172q8 77 8 87q0 98 -82 133q-10 4 -40 7t-50.5 10.5t-20.5 21.5q0 27 55 27q20 0 88 -3t132 -3 q49 0 105 4t71 4q45 0 45 -31q0 -16 -41 -25.5t-55 -27.5q-43 -51 -62 -240q-25 -229 -53 -447l-43 -325q-14 -108 -14 -139q0 -23 2 -43.5t5 -34.5t10 -25.5t11 -19.5t15.5 -13.5t15.5 -8.5t17.5 -6t16.5 -3t17 -1t17 -1q68 -4 67 -37q0 -25 -37 -24q-39 0 -102.5 9 t-106.5 9q-59 0 -114.5 -8t-69.5 -8q-66 0 -66 26.5t39 30.5q23 2 41.5 14.5t28.5 22.5t17.5 36.5t9.5 35t6 41.5l4 32q57 408 57 443q0 23 -11 28t-58 5q-12 0 -80 -1.5t-125 -1.5h-481q-35 0 -40.5 -6t-9.5 -45l-14 -106q-43 -297 -43 -342q0 -35 6 -59.5t12.5 -39 t22.5 -25.5t22.5 -13.5t29 -8.5t24.5 -6q6 -2 14 -3t12 -3t11.5 -3t10.5 -3t7 -5t5 -7t1 -9q0 -18 -33 -18q-41 0 -100 2t-117 2q-23 0 -79 -5t-80 -5q-70 0 -70 29z"/>
<glyph unicode="ĥ" horiz-adv-x="993" d="M391 1563q0 2 8 14l61 78l46 63l34 48q16 22 24 36q8 15 16 27l12 18q4 6 8 10.5t7 5.5t9 1h54q20 0 28 -21q29 -61 67 -129l59 -104q20 -37 20 -45q0 -12 -16.5 -12.5t-101.5 86.5t-93 87q-16 0 -115.5 -86t-111.5 -86q-15 1 -15 9zM59 47q-1 25 11 91l28 155 q16 88 21 129l45 301l70 465q30 203 30 209q0 47 -57 47q-25 0 -52.5 -1t-31.5 -1q-27 0 -27 24q0 23 78 29q96 8 151.5 21.5t69.5 13.5q25 0 25 -27q0 -4 -61.5 -339t-61.5 -445q0 -23 8 -23q4 0 45 43t109.5 87t142.5 44q182 0 182 -231q0 -61 -24.5 -215t-24.5 -199 q0 -94 49 -94q27 0 86 37q18 10 36 32l30 36q12 16 18 16q20 0 21 -16q0 -70 -98.5 -156t-167.5 -86q-100 0 -101 190q0 63 18.5 210t18.5 208q0 160 -117 160q-70 0 -138 -41t-105 -137q-18 -47 -30.5 -122t-28 -210t-23.5 -193q-6 -37 -23.5 -49t-52.5 -12q-68 0 -68 49z "/>
<glyph unicode="Ħ" horiz-adv-x="1609" d="M41 23q0 14 10 21t24.5 8t37 11.5t41.5 28.5q25 25 36 88.5t41 323.5l56 463q2 16 2 34.5t-8.5 22.5t-32.5 4h-96q-27 0 -27 35q0 55 22 55h119q8 0 14.5 1t11.5 2t8 4t4 5.5t3 8.5t2 9t1 13t1 15q2 27 5 46t4.5 26t2.5 13.5t1 10.5q0 51 -35 75.5t-86 30.5t-56 8 q-16 6 -16 25q0 31 55 31q23 0 84.5 -7.5t126.5 -7.5q49 0 113.5 7.5t79.5 7.5q37 0 37 -31q0 -14 -18.5 -19.5t-46 -11.5t-42.5 -22q-25 -25 -41 -108t-16 -120q0 -12 7 -14t36 -2q98 0 341 2t349 2q45 0 54.5 9.5t13.5 64.5q0 10 1 21.5t2 17.5t1 8q0 98 -82 133 q-10 4 -40 7t-50.5 10.5t-20.5 21.5q0 27 55 27q20 0 88 -3t132 -3q49 0 105 4t71 4q45 0 45 -31q0 -16 -41 -25.5t-55 -27.5q-25 -29 -40.5 -96.5t-15.5 -104.5q0 -14 1 -19.5t7.5 -10.5t18.5 -5h94q27 0 27 -33q0 -57 -33 -57h-98q-23 0 -27 -6t-8 -36q-2 -11 -2 -17 l-6 -43q-20 -174 -44 -350l-35 -261q-11 -84 -11 -112q0 -23 2 -43.5t5 -34.5t10 -25.5t11 -19.5t15.5 -13.5t15.5 -8.5t17.5 -6t16.5 -3t17 -1t17 -1q68 -4 67 -37q0 -25 -37 -24q-39 0 -102.5 9t-106.5 9q-59 0 -114.5 -8t-69.5 -8q-66 0 -66 26.5t39 30.5q23 2 41.5 14.5 t28.5 22.5t17.5 36.5t9.5 35t6 41.5l4 32q57 408 57 443q0 23 -11 28t-58 5q-12 0 -80 -1.5t-125 -1.5h-481q-35 0 -40.5 -6t-9.5 -45l-14 -106q-43 -297 -43 -342q0 -35 6 -59.5t12.5 -39t22.5 -25.5t22.5 -13.5t29 -8.5t24.5 -6q6 -2 14 -3t12 -3t11.5 -3t10.5 -3t7 -5 t5 -7t1 -9q0 -18 -33 -18q-41 0 -100 2t-117 2q-23 0 -79 -5t-80 -5q-70 0 -70 29zM420 817q0 -16 5 -20t19 -4q72 0 361 -3.5t362 -3.5q33 0 44.5 12.5t17.5 57.5l14 152q0 16 -7 19t-46 3q-133 0 -342 -1t-215 -1h-139q-39 0 -44.5 -7t-11.5 -54q-18 -111 -18 -150z"/>
<glyph unicode="ħ" horiz-adv-x="993" d="M59 47q-1 25 9 81l30 177l39 242l76 508q0 12 -31 12h-88q-27 0 -26 35q0 55 24 55q10 0 43 -1t64 -1q12 0 19 2t10 9.5t4 10.5t4 17q6 47 14 100.5t11 77t3 25.5q0 47 -57 47q-25 0 -52.5 -1t-31.5 -1q-27 0 -27 24q0 23 78 29q96 8 151.5 21.5t69.5 13.5q25 0 25 -27 q0 -18 -30 -173.5t-30 -160.5q0 -16 29 -16q98 0 187.5 3t117.5 3q16 0 17 -37q0 -53 -29 -53q-12 0 -70.5 -1t-115.5 -1h-127q-29 0 -31 -20q-41 -238 -41 -328q0 -23 8 -23q4 0 45 43t109.5 87t142.5 44q182 0 182 -231q0 -61 -24.5 -215t-24.5 -199q0 -94 49 -94 q27 0 86 37q18 10 36 32l30 36q12 16 18 16q20 0 21 -16q0 -70 -98.5 -156t-167.5 -86q-100 0 -101 190q0 63 18.5 210t18.5 208q0 160 -117 160q-70 0 -138 -41t-105 -137q-18 -47 -30.5 -122t-28 -210t-23.5 -193q-6 -37 -23.5 -49t-52.5 -12q-68 0 -68 49z"/>
<glyph unicode="Ĩ" horiz-adv-x="665" d="M111 1634q0 33 81.5 118t137.5 85q47 0 120.5 -49t124.5 -49q33 0 60 28.5t45 57t31 28.5q18 0 18 -22q0 -37 -81 -118t-136 -81q-51 0 -127 49.5t-119 49.5q-33 0 -60.5 -30t-47 -58.5t-31.5 -28.5q-16 0 -16 20zM41 23q0 14 12.5 20t27.5 7t35.5 11.5t35.5 30.5 q27 39 30 70q4 40 42 328l69 531q31 243 31 247q0 53 -35 78.5t-87 31.5t-55 8q-16 6 -16 25q0 31 55 31q23 0 84.5 -8.5t126.5 -8.5q49 0 113.5 6.5t79.5 6.5q37 0 37 -29q0 -14 -19.5 -19.5t-47.5 -12.5t-40 -21q-41 -47 -59 -240q-25 -231 -55 -448l-48 -327 q-16 -110 -16 -138q0 -45 6 -76t21.5 -45t24.5 -20.5t34 -10.5t31 -6q8 -2 18 -4t17.5 -3t13.5 -3t9 -6t3 -11q0 -14 -6 -20t-12 -7t-25 -1q-6 0 -82 6t-125 6q-31 0 -84 -6t-73 -6q-72 0 -72 33z"/>
<glyph unicode="ĩ" horiz-adv-x="512" d="M-25 1094q0 33 82 117.5t138 84.5q47 0 120.5 -49t124.5 -49q33 0 59.5 28.5t45 57.5t30.5 29q18 0 19 -23q0 -37 -81 -117.5t-136 -80.5q-51 0 -127 49t-119 49q-33 0 -60.5 -30t-47 -58.5t-31.5 -28.5q-17 1 -17 21zM41 811q0 29 47 29h21q37 0 103.5 9t129.5 9 q29 0 29 -22q0 -27 -23.5 -107t-32.5 -131q-61 -387 -61 -407.5t12.5 -38t28.5 -17.5q31 0 56.5 26.5t43 53.5t27.5 27q20 0 20 -23q0 -18 -20.5 -59t-38.5 -60q-113 -121 -188.5 -120.5t-75.5 170.5q0 82 46 310t46 281q0 25 -10.5 34t-38.5 9q-25 0 -56.5 1t-35.5 1 q-29 0 -29 25z"/>
<glyph unicode="Ī" horiz-adv-x="665" d="M201 1731q0 55 41 55q158 0 225.5 -2t142.5 -2q16 0 21 -5t6 -24q0 -59 -35 -59q-14 0 -179 1t-206 1q-16 0 -16 35zM41 23q0 14 12.5 20t27.5 7t35.5 11.5t35.5 30.5q27 39 30 70q4 40 42 328l69 531q31 243 31 247q0 53 -35 78.5t-87 31.5t-55 8q-16 6 -16 25 q0 31 55 31q23 0 84.5 -8.5t126.5 -8.5q49 0 113.5 6.5t79.5 6.5q37 0 37 -29q0 -14 -19.5 -19.5t-47.5 -12.5t-40 -21q-41 -47 -59 -240q-25 -231 -55 -448l-48 -327q-16 -110 -16 -138q0 -45 6 -76t21.5 -45t24.5 -20.5t34 -10.5t31 -6q8 -2 18 -4t17.5 -3t13.5 -3t9 -6 t3 -11q0 -14 -6 -20t-12 -7t-25 -1q-6 0 -82 6t-125 6q-31 0 -84 -6t-73 -6q-72 0 -72 33z"/>
<glyph unicode="ī" horiz-adv-x="512" d="M66 1190q0 55 40 55q158 0 225.5 -2t143.5 -2q16 0 21.5 -5t5.5 -24q0 -59 -35 -59q-14 0 -179 1t-206 1q-16 0 -16 35zM41 811q0 29 47 29h21q37 0 103.5 9t129.5 9q29 0 29 -22q0 -27 -23.5 -107t-32.5 -131q-61 -387 -61 -407.5t12.5 -38t28.5 -17.5q31 0 56.5 26.5 t43 53.5t27.5 27q20 0 20 -23q0 -18 -20.5 -59t-38.5 -60q-113 -121 -188.5 -120.5t-75.5 170.5q0 82 46 310t46 281q0 25 -10.5 34t-38.5 9q-25 0 -56.5 1t-35.5 1q-29 0 -29 25z"/>
<glyph unicode="Ĭ" horiz-adv-x="665" d="M207 1786q0 39 10 39h23q6 0 14 -22.5t21.5 -49.5t54.5 -49.5t106 -22.5q55 0 98.5 22.5t61.5 49.5t31.5 49.5t19.5 22.5h15q14 0 14 -4q0 -16 -15.5 -53t-44 -83.5t-83 -79t-119.5 -32.5q-96 0 -151.5 64.5t-55.5 148.5zM41 23q0 14 12.5 20t27.5 7t35.5 11.5t35.5 30.5 q27 39 30 70q4 40 42 328l69 531q31 243 31 247q0 53 -35 78.5t-87 31.5t-55 8q-16 6 -16 25q0 31 55 31q23 0 84.5 -8.5t126.5 -8.5q49 0 113.5 6.5t79.5 6.5q37 0 37 -29q0 -14 -19.5 -19.5t-47.5 -12.5t-40 -21q-41 -47 -59 -240q-25 -231 -55 -448l-48 -327 q-16 -110 -16 -138q0 -45 6 -76t21.5 -45t24.5 -20.5t34 -10.5t31 -6q8 -2 18 -4t17.5 -3t13.5 -3t9 -6t3 -11q0 -14 -6 -20t-12 -7t-25 -1q-6 0 -82 6t-125 6q-31 0 -84 -6t-73 -6q-72 0 -72 33z"/>
<glyph unicode="ĭ" horiz-adv-x="512" d="M72 1245q0 39 10 39h22q6 0 14 -22.5t22 -49t55 -49t106 -22.5q55 0 98 22.5t61.5 49t32 49t19.5 22.5h14q14 0 15 -4q0 -16 -15.5 -53t-44 -83t-83 -79t-119.5 -33q-96 0 -151.5 64.5t-55.5 148.5zM41 811q0 29 47 29h21q37 0 103.5 9t129.5 9q29 0 29 -22 q0 -27 -23.5 -107t-32.5 -131q-61 -387 -61 -407.5t12.5 -38t28.5 -17.5q31 0 56.5 26.5t43 53.5t27.5 27q20 0 20 -23q0 -18 -20.5 -59t-38.5 -60q-113 -121 -188.5 -120.5t-75.5 170.5q0 82 46 310t46 281q0 25 -10.5 34t-38.5 9q-25 0 -56.5 1t-35.5 1q-29 0 -29 25z"/>
<glyph unicode="Į" horiz-adv-x="665" d="M41 23q0 16 15.5 22t37 8t47 25.5t39.5 68.5l72 559q72 558 72 562q0 53 -35 78.5t-87 31.5t-55 8q-16 6 -16 25q0 31 55 31q23 0 84.5 -8.5t126.5 -8.5q49 0 113.5 6.5t79.5 6.5q37 0 37 -29q0 -14 -19.5 -19.5t-47.5 -12.5t-40 -21q-41 -47 -59 -240q-25 -231 -55 -448 l-48 -327q-16 -110 -16 -138q0 -45 6 -76t21.5 -45t24.5 -20.5t34 -10.5t31 -6q8 -2 18 -4t17.5 -3t13.5 -3t9 -6t3 -11q0 -14 -6 -20t-12 -7t-25 -1q-14 0 -77.5 5t-77.5 5q-35 0 -52 -25q-61 -72 -61 -165q0 -57 30.5 -94.5t71.5 -37.5q29 0 62 15.5t39 15.5q12 0 12 -10 q0 -27 -58.5 -62.5t-121.5 -35.5q-76 0 -113 40t-37 105q0 59 29 113.5t57.5 88.5t28.5 40q0 10 -21 10q-4 0 -29.5 -4t-45.5 -4q-72 0 -72 33z"/>
<glyph unicode="į" horiz-adv-x="512" d="M-43 -264q0 66 46 120t92 89t46 55q0 6 -11 43t-11 107q0 82 46 310t46 281q0 25 -10.5 34t-38.5 9q-25 0 -56.5 1t-35.5 1q-29 0 -29 25q0 29 47 29h21q37 0 103.5 9t129.5 9q29 0 29 -22q0 -27 -23.5 -107t-32.5 -131q-61 -387 -61 -407.5t12.5 -38t28.5 -17.5 q31 0 56.5 26.5t43 53.5t27.5 27q20 0 20 -23q0 -18 -20.5 -59t-38.5 -60q-68 -68 -131.5 -102.5t-99.5 -65.5q-76 -57 -76 -122q0 -57 30.5 -94.5t71.5 -37.5q25 0 60.5 21.5t44 21.5t8.5 -16q0 -27 -58.5 -65.5t-121.5 -38.5q-74 0 -114 39t-40 96zM258 1214q0 16 39 62.5 t63 46.5q29 0 54.5 -39t25.5 -70q0 -29 -36.5 -68.5t-53.5 -39.5q-25 0 -58.5 45t-33.5 63z"/>
<glyph unicode="İ" horiz-adv-x="665" d="M332 1755q0 16 39 62.5t65 46.5q29 0 53.5 -40t24.5 -69q0 -31 -37 -72t-55 -41q-23 0 -56.5 45t-33.5 68zM41 23q0 14 12.5 20t27.5 7t35.5 11.5t35.5 30.5q27 39 30 70q4 40 42 328l69 531q31 243 31 247q0 53 -35 78.5t-87 31.5t-55 8q-16 6 -16 25q0 31 55 31 q23 0 84.5 -8.5t126.5 -8.5q49 0 113.5 6.5t79.5 6.5q37 0 37 -29q0 -14 -19.5 -19.5t-47.5 -12.5t-40 -21q-41 -47 -59 -240q-25 -231 -55 -448l-48 -327q-16 -110 -16 -138q0 -45 6 -76t21.5 -45t24.5 -20.5t34 -10.5t31 -6q8 -2 18 -4t17.5 -3t13.5 -3t9 -6t3 -11 q0 -14 -6 -20t-12 -7t-25 -1q-6 0 -82 6t-125 6q-31 0 -84 -6t-73 -6q-72 0 -72 33z"/>
<glyph unicode="ı" horiz-adv-x="512" d="M41 811q0 29 47 29h21q37 0 103.5 9t129.5 9q29 0 29 -22q0 -27 -23.5 -107t-32.5 -131q-61 -387 -61 -407.5t12.5 -38t28.5 -17.5q31 0 56.5 26.5t43 53.5t27.5 27q20 0 20 -23q0 -18 -20.5 -59t-38.5 -60q-113 -121 -188.5 -120.5t-75.5 170.5q0 82 46 310t46 281 q0 25 -10.5 34t-38.5 9q-25 0 -56.5 1t-35.5 1q-29 0 -29 25z"/>
<glyph unicode="Ĳ" horiz-adv-x="1394" d="M545 -80q0 23 23.5 90.5t52.5 67.5q16 0 29.5 -29t38 -56.5t67.5 -27.5q80 0 124 146.5t72 392.5l86 733q0 10 3 27.5t3 23.5q0 80 -139 92q-51 4 -51 37t53 33q25 0 78 -9t123 -9q68 0 131.5 8t67.5 8q47 0 47 -25q0 -20 -12.5 -25t-31 -7t-39 -11.5t-40 -48.5 t-31.5 -108q-4 -29 -38 -320t-66 -504q-20 -141 -76 -264q-53 -121 -164 -198.5t-205 -77.5q-47 0 -76.5 17t-29.5 44zM41 23q0 14 12.5 20t27.5 7t35.5 11.5t35.5 30.5q27 39 30 70q4 40 42 328l69 531q31 243 31 247q0 53 -35 78.5t-87 31.5t-55 8q-16 6 -16 25 q0 31 55 31q23 0 84.5 -8.5t126.5 -8.5q49 0 113.5 6.5t79.5 6.5q37 0 37 -29q0 -14 -19.5 -19.5t-47.5 -12.5t-40 -21q-41 -47 -59 -240q-25 -231 -55 -448l-48 -327q-16 -110 -16 -138q0 -45 6 -76t21.5 -45t24.5 -20.5t34 -10.5t31 -6q8 -2 18 -4t17.5 -3t13.5 -3t9 -6 t3 -11q0 -14 -6 -20t-12 -7t-25 -1q-6 0 -82 6t-125 6q-31 0 -84 -6t-73 -6q-72 0 -72 33z"/>
<glyph unicode="ĳ" horiz-adv-x="1007" d="M362 -268q0 33 27 32q20 0 61.5 -43t69.5 -43q33 0 53.5 82t53.5 351q13 113 35 271l34 252l13 101q0 49 -66 49h-53q-37 0 -37 25q0 33 41 33q8 0 28.5 1t34.5 1q27 0 75 9t77 9q47 0 47 -33q0 -51 -19.5 -156.5t-25.5 -144.5l-35 -278l-26 -210q-8 -58 -20.5 -134 t-27 -106.5t-37 -65.5t-59.5 -70l-14 -14q-12 -12 -18 -16l-16 -14q-11 -9 -20.5 -12t-22.5 -8.5t-29.5 -7.5t-34.5 -2q-43 0 -61.5 11.5t-20.5 46.5q-2 31 -4.5 54.5t-2.5 29.5zM735 1210q0 27 37 68t68 41q23 0 49 -35t26 -67q0 -29 -32.5 -70t-53.5 -41q-33 0 -63.5 43 t-30.5 61zM41 811q0 29 47 29h21q37 0 103.5 9t129.5 9q29 0 29 -22q0 -27 -23.5 -107t-32.5 -131q-61 -387 -61 -407.5t12.5 -38t28.5 -17.5q31 0 56.5 26.5t43 53.5t27.5 27q20 0 20 -23q0 -18 -20.5 -59t-38.5 -60q-113 -121 -188.5 -120.5t-75.5 170.5q0 82 46 310 t46 281q0 25 -10.5 34t-38.5 9q-25 0 -56.5 1t-35.5 1q-29 0 -29 25zM258 1214q0 16 39 62.5t63 46.5q29 0 54.5 -39t25.5 -70q0 -29 -36.5 -68.5t-53.5 -39.5q-25 0 -58.5 45t-33.5 63z"/>
<glyph unicode="Ĵ" horiz-adv-x="829" d="M334 1563q0 2 8 14l60 78l46 63l34 48q16 22 24 36.5t16 26.5t12.5 18t8.5 10.5t7 5.5t9 1h53q20 0 29 -21q29 -61 67 -129l58 -104q20 -37 20 -45q0 -12 -16 -12.5t-101 86.5t-94 87q-16 0 -115.5 -86t-111.5 -86q-14 1 -14 9zM-20 -80q0 23 23.5 90.5t51.5 67.5 q16 0 29.5 -29t38 -56.5t67.5 -27.5q80 0 124 146.5t73 392.5l86 733q0 10 3 27.5t3 23.5q0 80 -139 92q-51 4 -51 37t53 33q25 0 78 -9t123 -9q68 0 131 8t67 8q47 0 47 -25q0 -20 -12 -25t-30.5 -7t-39 -11.5t-40 -48.5t-31.5 -108q-4 -29 -38 -320t-67 -504 q-20 -141 -75 -264q-53 -121 -164 -198.5t-205 -77.5q-47 0 -76.5 17t-29.5 44z"/>
<glyph unicode="ĵ" horiz-adv-x="495" d="M8 1022q0 2 8 14l60 78l46 62l34 48q16 22 24 37t16.5 27t12.5 18.5t8 10.5t7 5t9 1h54q20 0 28 -20q29 -61 67 -129l58 -105q20 -37 21 -45q0 -12 -16.5 -12t-101.5 87t-93 87q-16 0 -115.5 -86t-111.5 -86q-15 0 -15 8zM-150 -268q0 33 27 32q20 0 61.5 -43t69.5 -43 q33 0 53.5 82t53.5 351q13 113 35 271l34 252l13 101q0 49 -66 49h-53q-37 0 -37 25q0 33 41 33q8 0 28.5 1t34.5 1q27 0 75 9t77 9q47 0 47 -33q0 -51 -19.5 -156.5t-25.5 -144.5l-35 -278l-26 -210q-8 -58 -20.5 -134t-27 -106.5t-37 -65.5t-59.5 -70l-14 -14 q-12 -12 -18 -16l-16 -14q-11 -9 -20.5 -12t-22.5 -8.5t-29.5 -7.5t-34.5 -2q-43 0 -61.5 11.5t-20.5 46.5q-2 31 -4.5 54.5t-2.5 29.5z"/>
<glyph unicode="Ķ" horiz-adv-x="1585" d="M594 -162q70 68 98 68q8 0 30.5 -10.5t47.5 -40t25 -70.5q0 -86 -64.5 -139.5t-101.5 -53.5q-10 0 -11 9q0 4 20.5 16t41 36.5t20.5 61.5q0 41 -26.5 63.5t-53 35t-26.5 24.5zM41 27q0 18 18.5 24t43 9t52 33t42.5 87q23 88 78 564.5t55 525.5t-40 81.5t-100 37.5 q-37 2 -36 34q0 25 36 25l11 -1l29 -3q20 -2 45.5 -4t65.5 -3t85 -1q51 0 105.5 4t66.5 4q39 0 39 -21q0 -10 -7 -15t-26.5 -11t-34.5 -15q-61 -37 -77.5 -108.5t-53.5 -425.5q-2 -14 -4 -30.5t-3 -26t-1 -15.5q0 -18 14 -18q16 0 242 167l391 296q109 86 109 122 q0 29 -49.5 43.5t-49.5 34.5q0 25 56 25q4 0 80.5 -6t107.5 -6q41 0 99.5 6t70.5 6q43 0 43 -33t-26 -39q-10 -4 -38 -8t-53.5 -12t-93 -48t-164.5 -110l-442 -317q-10 -8 -29.5 -20.5t-31.5 -22.5l-26 -19q-13 -10 -20.5 -19.5t-7.5 -17.5t19 -26l252 -283l181 -208 q48 -54 115.5 -114.5t114.5 -76t119 -19.5q47 -4 47 -28q0 -29 -35 -29q-8 0 -88 4t-114 4h-67q-26 0 -37 -1t-13 -1q-20 0 -51 34t-180 211l-213 255q-151 177 -165 186q-7 5 -20 4q-20 0 -39 -18l-5 -4q-5 -4 -6 -6t-5 -6.5t-6 -8.5t-5 -12t-5.5 -16.5t-4.5 -21.5 t-4 -28.5t-4 -35.5q-33 -295 -33 -304q0 -111 21.5 -136t107.5 -38q63 -6 64 -30q0 -27 -47 -27q-61 0 -102.5 3t-69.5 3q-61 0 -142 -5t-92 -5q-59 0 -59 31z"/>
<glyph unicode="ķ" horiz-adv-x="925" d="M281 -162q70 68 98 68q8 0 30.5 -10.5t47 -40t24.5 -70.5q0 -86 -64.5 -139.5t-101.5 -53.5q-10 0 -10 9q0 4 20.5 16t41 36.5t20.5 61.5q0 41 -26.5 63.5t-53 35t-26.5 24.5zM59 47q1 25 11 91l24 156l21 128l41 272q29 199 50 366t36 249q16 92 16 96q0 39 -51 39 q-25 0 -52.5 2t-31.5 2q-31 0 -31 25q0 31 31 30q96 4 164.5 17.5t85.5 13.5q37 0 37 -31q0 -8 -15 -94l-18 -119q-45 -264 -82 -547l-19 -141q0 -6 -5 -28.5t-9 -49t-4 -45.5q0 -16 1 -23t5 -11.5t12 -4.5q23 0 148 98.5t170 172.5q12 23 30.5 75t41 76.5t65.5 24.5 q31 0 48.5 -21.5t16.5 -54.5q0 -53 -78.5 -123t-157.5 -118t-79 -50l103 -184l22 -41q14 -27 24 -42l22 -35l20 -34l17 -24.5t17.5 -17.5t16.5 -5q41 0 88 57.5t55 57.5q18 0 19 -37q0 -57 -72 -139t-127 -82q-39 0 -89 70.5t-90 155.5t-80 155.5t-60 70.5l-50 -26 q-12 -8 -27.5 -16.5t-21.5 -10.5t-14 -8t-9 -6t-4 -8.5t-3 -9.5t-2.5 -14t-2.5 -19l-36 -269q-6 -61 -70 -61q-68 0 -68 49z"/>
<glyph unicode="Ĺ" horiz-adv-x="1206" d="M373 1544q0 8 5 16.5t20.5 28t35.5 47.5l52 88l73 131q18 37 41 37t59.5 -13t36.5 -34q0 -33 -141 -175t-166 -142q-16 0 -16 16zM51 20q0 18 14.5 24.5t43 15t51.5 26.5q12 10 18 18.5t12.5 19.5t10.5 34.5t8 50.5t10 81t15 112l21 160l28 210q59 424 59 522 q0 109 -125 113q-25 0 -42 12.5t-17 28.5q0 25 32 25q4 0 31 -4.5t80 -8.5t123 -4q63 0 120.5 4t65.5 4q43 0 43 -26q0 -16 -20.5 -24.5t-46 -14.5t-50 -35t-32.5 -80q-145 -1055 -146 -1094q0 -70 38 -91t186 -21q137 0 240.5 15.5t157.5 38t91 48t50.5 48t25.5 38t24 15.5 q25 0 25 -31q0 -43 -46 -120t-69 -97q-55 -49 -125 -49h-96q-96 0 -272 11t-232 11q-57 0 -133 -6t-125 -6q-47 -1 -47 26z"/>
<glyph unicode="ĺ" horiz-adv-x="534" d="M248 1614q0 8 5 16t20.5 27.5t35 48.5t53.5 87l72 132q18 37 41 37t59.5 -13.5t36.5 -33.5q0 -33 -141 -175.5t-166 -142.5q-16 1 -16 17zM94 176q0 51 13.5 139t29 168t15.5 84q8 57 23 196.5t26 209.5q66 416 65 430q0 41 -51 41q-16 0 -31.5 -1t-27.5 -1q-59 0 -60 28 q0 27 31 29q82 6 153.5 18.5t94.5 12.5q43 0 43 -33q0 -16 -9.5 -47t-11.5 -47q-33 -174 -45 -263t-23.5 -207t-37.5 -292q-59 -412 -60 -440q0 -51 6.5 -65.5t26.5 -14.5q39 0 70 22.5t46 50t34.5 50t36.5 22.5q25 0 24 -33q0 -29 -102 -147q-37 -43 -91.5 -72.5 t-86.5 -29.5q-23 0 -35.5 4t-29.5 19.5t-26.5 58t-9.5 110.5z"/>
<glyph unicode="Ļ" horiz-adv-x="1206" d="M477 -162q70 68 98 68q8 0 31 -10.5t47.5 -40t24.5 -70.5q0 -86 -64.5 -139.5t-101.5 -53.5q-10 0 -10 9q0 4 20.5 16t41 36.5t20.5 61.5q0 41 -27 63.5t-53.5 35t-26.5 24.5zM51 20q0 18 14.5 24.5t43 15t51.5 26.5q12 10 18 18.5t12.5 19.5t10.5 34.5t8 50.5t10 81 t15 112l21 160l28 210q59 424 59 522q0 109 -125 113q-25 0 -42 12.5t-17 28.5q0 25 32 25q4 0 31 -4.5t80 -8.5t123 -4q63 0 120.5 4t65.5 4q43 0 43 -26q0 -16 -20.5 -24.5t-46 -14.5t-50 -35t-32.5 -80q-145 -1055 -146 -1094q0 -70 38 -91t186 -21q137 0 240.5 15.5 t157.5 38t91 48t50.5 48t25.5 38t24 15.5q25 0 25 -31q0 -43 -46 -120t-69 -97q-55 -49 -125 -49h-96q-96 0 -272 11t-232 11q-57 0 -133 -6t-125 -6q-47 -1 -47 26z"/>
<glyph unicode="ļ" horiz-adv-x="534" d="M104 -162q70 68 99 68q8 0 30.5 -10.5t47 -40t24.5 -70.5q0 -86 -64.5 -139.5t-101.5 -53.5q-10 0 -10 9q0 4 20.5 16t41 36.5t20.5 61.5q0 41 -26.5 63.5t-53.5 35t-27 24.5zM94 176q0 51 13.5 139t29 168t15.5 84q8 57 23 196.5t26 209.5q66 416 65 430q0 41 -51 41 q-16 0 -31.5 -1t-27.5 -1q-59 0 -60 28q0 27 31 29q82 6 153.5 18.5t94.5 12.5q43 0 43 -33q0 -16 -9.5 -47t-11.5 -47q-33 -174 -45 -263t-23.5 -207t-37.5 -292q-59 -412 -60 -440q0 -51 6.5 -65.5t26.5 -14.5q39 0 70 22.5t46 50t34.5 50t36.5 22.5q25 0 24 -33 q0 -29 -102 -147q-37 -43 -91.5 -72.5t-86.5 -29.5q-23 0 -35.5 4t-29.5 19.5t-26.5 58t-9.5 110.5z"/>
<glyph unicode="Ľ" horiz-adv-x="1206" d="M788 1468q70 66 99 66q8 0 29.5 -10.5t46 -40t24.5 -70.5q0 -86 -63.5 -138t-100.5 -52q-12 0 -12 8q0 4 20.5 16.5t42 37t21.5 61.5q0 41 -26.5 63.5t-53.5 34.5t-27 24zM51 20q0 18 14.5 24.5t43 15t51.5 26.5q12 10 18 18.5t12.5 19.5t10.5 34.5t8 50.5t10 81t15 112 l21 160l28 210q59 424 59 522q0 109 -125 113q-25 0 -42 12.5t-17 28.5q0 25 32 25q4 0 31 -4.5t80 -8.5t123 -4q63 0 120.5 4t65.5 4q43 0 43 -26q0 -16 -20.5 -24.5t-46 -14.5t-50 -35t-32.5 -80q-145 -1055 -146 -1094q0 -70 38 -91t186 -21q137 0 240.5 15.5t157.5 38 t91 48t50.5 48t25.5 38t24 15.5q25 0 25 -31q0 -43 -46 -120t-69 -97q-55 -49 -125 -49h-96q-96 0 -272 11t-232 11q-57 0 -133 -6t-125 -6q-47 -1 -47 26z"/>
<glyph unicode="ľ" horiz-adv-x="534" d="M475 1468q70 66 98 66q8 0 30 -10.5t46.5 -40t24.5 -70.5q0 -86 -63.5 -138t-100.5 -52q-12 0 -12 8q0 4 21.5 16.5t42 37t20.5 61.5q0 41 -27 63.5t-53.5 34.5t-26.5 24zM94 176q0 51 13.5 139t29 168t15.5 84q8 57 23 196.5t26 209.5q66 416 65 430q0 41 -51 41 q-16 0 -31.5 -1t-27.5 -1q-59 0 -60 28q0 27 31 29q82 6 153.5 18.5t94.5 12.5q43 0 43 -33q0 -16 -9.5 -47t-11.5 -47q-33 -174 -45 -263t-23.5 -207t-37.5 -292q-59 -412 -60 -440q0 -51 6.5 -65.5t26.5 -14.5q39 0 70 22.5t46 50t34.5 50t36.5 22.5q25 0 24 -33 q0 -29 -102 -147q-37 -43 -91.5 -72.5t-86.5 -29.5q-23 0 -35.5 4t-29.5 19.5t-26.5 58t-9.5 110.5z"/>
<glyph unicode="Ŀ" horiz-adv-x="1220" d="M817 680q0 16 38 61t63 45q29 0 54 -38.5t25 -69.5q0 -29 -36.5 -69t-53.5 -40q-25 0 -57.5 46.5t-32.5 64.5zM51 20q0 18 14.5 24.5t43 15t51.5 26.5q12 10 18 18.5t12.5 19.5t10.5 34.5t8 50.5t10 81t15 112l21 160l28 210q59 424 59 522q0 109 -125 113 q-25 0 -42 12.5t-17 28.5q0 25 32 25q4 0 31 -4.5t80 -8.5t123 -4q63 0 120.5 4t65.5 4q43 0 43 -26q0 -16 -20.5 -24.5t-46 -14.5t-50 -35t-32.5 -80q-145 -1055 -146 -1094q0 -70 38 -91t186 -21q137 0 240.5 15.5t157.5 38t91 48t50.5 48t25.5 38t24 15.5q25 0 25 -31 q0 -43 -46 -120t-69 -97q-55 -49 -125 -49h-96q-96 0 -272 11t-232 11q-57 0 -133 -6t-125 -6q-47 -1 -47 26z"/>
<glyph unicode="ŀ" horiz-adv-x="1089" d="M686 680q0 16 38 61t62 45q29 0 54.5 -38.5t25.5 -69.5q0 -29 -36.5 -69t-53.5 -40q-25 0 -57.5 46.5t-32.5 64.5zM94 176q0 51 13.5 139t29 168t15.5 84q8 57 23 196.5t26 209.5q66 416 65 430q0 41 -51 41q-16 0 -31.5 -1t-27.5 -1q-59 0 -60 28q0 27 31 29 q82 6 153.5 18.5t94.5 12.5q43 0 43 -33q0 -16 -9.5 -47t-11.5 -47q-33 -174 -45 -263t-23.5 -207t-37.5 -292q-59 -412 -60 -440q0 -51 6.5 -65.5t26.5 -14.5q39 0 70 22.5t46 50t34.5 50t36.5 22.5q25 0 24 -33q0 -29 -102 -147q-37 -43 -91.5 -72.5t-86.5 -29.5 q-23 0 -35.5 4t-29.5 19.5t-26.5 58t-9.5 110.5z"/>
<glyph unicode="Ł" horiz-adv-x="1196" d="M41 20q0 18 14.5 24.5t43 15t51.5 26.5q29 27 40 72t32 234q13 114 24 188q0 2 1 10l1 8q0 10 -12 10q-4 0 -13 -4l-102 -37q-12 -4 -21 -4q-25 0 -24 39q0 41 16 49l148 51q25 8 28 50q63 453 64 542q0 109 -125 113q-25 0 -42.5 12.5t-17.5 28.5q0 25 33 26q4 0 31 -5 t80 -9t123 -4q66 0 121 4t65 4q43 0 43 -26q0 -16 -20.5 -24.5t-46 -14.5t-50 -35t-32.5 -80l-34 -246q-34 -246 -34 -252q0 -10 8 -10l17 4l430 164q25 12 39 12q20 0 20 -26q0 -41 -11 -54.5t-42 -23.5l-447 -168q-31 -10 -34 -45q-57 -444 -58 -449q0 -70 38 -91t185 -21 q137 0 240.5 15.5t158 38t91.5 48t50 48t25.5 38t24.5 15.5q25 0 25 -31q0 -43 -46 -120t-69 -97q-55 -49 -125 -49h-96q-96 0 -272.5 11t-231.5 11q-57 0 -133 -6t-125 -6q-47 -1 -47 26z"/>
<glyph unicode="ł" horiz-adv-x="534" d="M12 678q0 47 21 53l127 57q18 8 22 43q10 91 32 229l37 232q15 94 15 111q0 41 -51 41q-16 0 -31.5 -1t-27.5 -1q-59 0 -60 28q0 27 31 29q82 6 153.5 18.5t94.5 12.5q43 0 43 -33q0 -6 -14.5 -76.5t-38 -209t-37.5 -285.5q-4 -41 -4 -43q0 -10 6 -11q2 0 5 2.5t9 5.5 t12 5l35 16q74 37 84 37q8 0 12.5 -1t7.5 -10t3 -26q0 -12 -1 -21.5t-5.5 -15.5t-6.5 -11t-10 -9t-10 -6t-11.5 -6.5t-11.5 -4.5l-104 -49q-26 -12 -32 -29q-3 -9 -23 -153q-51 -354 -52 -395q0 -51 6.5 -65.5t26.5 -14.5q39 0 70 22.5t46 50t34.5 50t36.5 22.5q25 0 24 -33 q0 -29 -102 -147q-37 -43 -91.5 -72.5t-86.5 -29.5q-23 0 -35.5 4t-29.5 19.5t-26.5 58.5t-9.5 110q0 63 18.5 185t36 219.5t17.5 103.5q0 10 -4 10q-2 0 -65.5 -28.5t-65.5 -28.5q-19 0 -19 41z"/>
<glyph unicode="Ń" horiz-adv-x="1646" d="M799 1544q0 8 5 16.5t20.5 28t35.5 47.5l52 88l73 131q18 37 41 37t59.5 -13t36.5 -34q0 -33 -141 -175t-166 -142q-16 0 -16 16zM41 12q0 10 8 16.5t19.5 9.5t29 9t29.5 19q16 14 29.5 30.5t23.5 44t16.5 49t15.5 71.5t14 85t17.5 115t20.5 137q4 29 21.5 132.5 t27 164.5t18.5 143t9 131q0 27 -4 49.5t-8 35t-18.5 29.5t-18.5 22.5t-25.5 25t-25.5 23.5q-25 23 -72 25.5t-79 6t-32 29.5q0 39 138 39q12 0 41.5 -3t44.5 -3q4 0 28.5 1t32.5 1q10 0 17.5 -1t14.5 -4t10 -5t11 -12q9 -9 13 -15l15 -21l19 -28q485 -672 716 -1038 q41 -65 52 -66q39 0 99.5 468t60.5 534q0 57 -25.5 87.5t-57.5 36t-57.5 16.5t-25.5 36q0 20 51 20q8 0 66.5 -4t89.5 -4q49 0 89 4t54 4q33 0 43.5 -6t10.5 -22q0 -6 -3 -10.5t-11.5 -7.5t-14.5 -4t-16.5 -4t-16.5 -5q-55 -16 -79.5 -88t-41.5 -209q-86 -723 -159 -1059 q-2 -16 -14.5 -35.5t-28.5 -19.5q-14 0 -30.5 18.5t-47.5 67.5l-69 112l-110 176q-72 114 -157 232l-126 180l-92 130l-59 81q-26 37 -38.5 56.5t-18.5 31.5q-12 25 -33 25q-29 0 -39 -97q-23 -227 -65.5 -490t-42.5 -349q0 -80 80 -105l23 -6l24 -6q8 -2 18.5 -6t14.5 -10 t4 -15q0 -25 -35 -24q-10 0 -53 3t-152 3q-41 0 -83 -3t-50 -3q-45 -1 -45 22z"/>
<glyph unicode="ń" horiz-adv-x="1077" d="M541 1004q0 8 5 16t20.5 27.5t35.5 48.5q18 28 52 86l73 133q18 37 41 37t59.5 -13.5t36.5 -33.5q0 -33 -141 -175.5t-166 -142.5q-16 1 -16 17zM49 657q0 61 72 147.5t129 86.5q53 0 71.5 -54.5t18.5 -107.5t4 -53t13.5 12t33 39t55.5 51q150 117 250 117 q172 0 172 -256q0 -82 -17 -244t-17 -186q0 -74 38 -74q16 0 37 11.5t33 22.5l12 11q6 6 15.5 20.5t14.5 19.5t14.5 10.5t19.5 5.5q18 0 18 -25q0 -59 -101 -141t-169 -82q-31 0 -53.5 37.5t-22.5 91.5q0 88 21.5 282.5t21.5 223t-6 60.5t-42 70t-95 38q-70 0 -133 -91 l-41 -59q-12 -18 -22.5 -50t-13.5 -51q-2 -18 -14 -84l-22 -126q-18 -96 -27.5 -156.5t-10.5 -78t-2 -29t-1 -17.5q-4 -33 -19.5 -43t-56.5 -10q-45 0 -58 10t-13 53q0 35 45 254t45 308q0 49 -15.5 80.5t-31.5 31.5q-35 0 -73 -57.5t-58 -57.5q-19 0 -19 39z"/>
<glyph unicode="Ņ" horiz-adv-x="1646" d="M618 -162q70 68 99 68q8 0 30.5 -10.5t47 -40t24.5 -70.5q0 -86 -64.5 -139.5t-101.5 -53.5q-10 0 -10 9q0 4 20.5 16t41 36.5t20.5 61.5q0 41 -26.5 63.5t-53.5 35t-27 24.5zM41 12q0 10 8 16.5t19.5 9.5t29 9t29.5 19q16 14 29.5 30.5t23.5 44t16.5 49t15.5 71.5t14 85 t17.5 115t20.5 137q4 29 21.5 132.5t27 164.5t18.5 143t9 131q0 27 -4 49.5t-8 35t-18.5 29.5t-18.5 22.5t-25.5 25t-25.5 23.5q-25 23 -72 25.5t-79 6t-32 29.5q0 39 138 39q12 0 41.5 -3t44.5 -3q4 0 28.5 1t32.5 1q10 0 17.5 -1t14.5 -4t10 -5t11 -12q9 -9 13 -15l15 -21 l19 -28q485 -672 716 -1038q41 -65 52 -66q39 0 99.5 468t60.5 534q0 57 -25.5 87.5t-57.5 36t-57.5 16.5t-25.5 36q0 20 51 20q8 0 66.5 -4t89.5 -4q49 0 89 4t54 4q33 0 43.5 -6t10.5 -22q0 -6 -3 -10.5t-11.5 -7.5t-14.5 -4t-16.5 -4t-16.5 -5q-55 -16 -79.5 -88 t-41.5 -209q-86 -723 -159 -1059q-2 -16 -14.5 -35.5t-28.5 -19.5q-14 0 -30.5 18.5t-47.5 67.5l-69 112l-110 176q-72 114 -157 232l-126 180l-92 130l-59 81q-26 37 -38.5 56.5t-18.5 31.5q-12 25 -33 25q-29 0 -39 -97q-23 -227 -65.5 -490t-42.5 -349q0 -80 80 -105 l23 -6l24 -6q8 -2 18.5 -6t14.5 -10t4 -15q0 -25 -35 -24q-10 0 -53 3t-152 3q-41 0 -83 -3t-50 -3q-45 -1 -45 22z"/>
<glyph unicode="ņ" horiz-adv-x="1077" d="M395 -162q70 68 99 68q8 0 30.5 -10.5t47 -40t24.5 -70.5q0 -86 -64.5 -139.5t-101.5 -53.5q-10 0 -10 9q0 4 20.5 16t41 36.5t20.5 61.5q0 41 -26.5 63.5t-53.5 35t-27 24.5zM49 657q0 61 72 147.5t129 86.5q53 0 71.5 -54.5t18.5 -107.5t4 -53t13.5 12t33 39t55.5 51 q150 117 250 117q172 0 172 -256q0 -82 -17 -244t-17 -186q0 -74 38 -74q16 0 37 11.5t33 22.5l12 11q6 6 15.5 20.5t14.5 19.5t14.5 10.5t19.5 5.5q18 0 18 -25q0 -59 -101 -141t-169 -82q-31 0 -53.5 37.5t-22.5 91.5q0 88 21.5 282.5t21.5 223t-6 60.5t-42 70t-95 38 q-70 0 -133 -91l-41 -59q-12 -18 -22.5 -50t-13.5 -51q-2 -18 -14 -84l-22 -126q-18 -96 -27.5 -156.5t-10.5 -78t-2 -29t-1 -17.5q-4 -33 -19.5 -43t-56.5 -10q-45 0 -58 10t-13 53q0 35 45 254t45 308q0 49 -15.5 80.5t-31.5 31.5q-35 0 -73 -57.5t-58 -57.5q-19 0 -19 39 z"/>
<glyph unicode="Ň" horiz-adv-x="1646" d="M678 1851q0 12 14 13h4q12 0 97.5 -87t95.5 -87q14 0 110 84l40 36q22 20 31 29.5t20.5 16t21.5 6.5q14 0 14 -11q0 -8 -4 -14l-60 -78l-46 -63l-34 -48l-24 -36l-16 -25l-12 -18q-4 -6 -8 -10.5t-7.5 -5.5t-9.5 -1h-53q-20 0 -29 21q-27 57 -65 125l-58 105 q-22 38 -22 48zM41 12q0 10 8 16.5t19.5 9.5t29 9t29.5 19q16 14 29.5 30.5t23.5 44t16.5 49t15.5 71.5t14 85t17.5 115t20.5 137q4 29 21.5 132.5t27 164.5t18.5 143t9 131q0 27 -4 49.5t-8 35t-18.5 29.5t-18.5 22.5t-25.5 25t-25.5 23.5q-25 23 -72 25.5t-79 6t-32 29.5 q0 39 138 39q12 0 41.5 -3t44.5 -3q4 0 28.5 1t32.5 1q10 0 17.5 -1t14.5 -4t10 -5t11 -12q9 -9 13 -15l15 -21l19 -28q485 -672 716 -1038q41 -65 52 -66q39 0 99.5 468t60.5 534q0 57 -25.5 87.5t-57.5 36t-57.5 16.5t-25.5 36q0 20 51 20q8 0 66.5 -4t89.5 -4q49 0 89 4 t54 4q33 0 43.5 -6t10.5 -22q0 -6 -3 -10.5t-11.5 -7.5t-14.5 -4t-16.5 -4t-16.5 -5q-55 -16 -79.5 -88t-41.5 -209q-86 -723 -159 -1059q-2 -16 -14.5 -35.5t-28.5 -19.5q-14 0 -30.5 18.5t-47.5 67.5l-69 112l-110 176q-72 114 -157 232l-126 180l-92 130l-59 81 q-26 37 -38.5 56.5t-18.5 31.5q-12 25 -33 25q-29 0 -39 -97q-23 -227 -65.5 -490t-42.5 -349q0 -80 80 -105l23 -6l24 -6q8 -2 18.5 -6t14.5 -10t4 -15q0 -25 -35 -24q-10 0 -53 3t-152 3q-41 0 -83 -3t-50 -3q-45 -1 -45 22z"/>
<glyph unicode="ň" horiz-adv-x="1077" d="M420 1311q0 12 14 12h4q12 0 97.5 -87t95.5 -87q14 0 110 84l40 37q22 20 31 29.5t20.5 15.5t21.5 6q14 0 14 -10q0 -8 -4 -15l-60 -78l-46 -62l-34 -48l-24 -36l-16 -26l-12 -18q-4 -6 -8.5 -10t-7.5 -5t-9 -1h-53q-20 0 -29 20q-27 57 -65 125l-58 106q-22 38 -22 48z M49 657q0 61 72 147.5t129 86.5q53 0 71.5 -54.5t18.5 -107.5t4 -53t13.5 12t33 39t55.5 51q150 117 250 117q172 0 172 -256q0 -82 -17 -244t-17 -186q0 -74 38 -74q16 0 37 11.5t33 22.5l12 11q6 6 15.5 20.5t14.5 19.5t14.5 10.5t19.5 5.5q18 0 18 -25q0 -59 -101 -141 t-169 -82q-31 0 -53.5 37.5t-22.5 91.5q0 88 21.5 282.5t21.5 223t-6 60.5t-42 70t-95 38q-70 0 -133 -91l-41 -59q-12 -18 -22.5 -50t-13.5 -51q-2 -18 -14 -84l-22 -126q-18 -96 -27.5 -156.5t-10.5 -78t-2 -29t-1 -17.5q-4 -33 -19.5 -43t-56.5 -10q-45 0 -58 10t-13 53 q0 35 45 254t45 308q0 49 -15.5 80.5t-31.5 31.5q-35 0 -73 -57.5t-58 -57.5q-19 0 -19 39z"/>
<glyph unicode="ŉ" horiz-adv-x="1507" d="M479 657q0 61 72 147.5t129 86.5q53 0 71.5 -54.5t18.5 -107.5t4 -53t13.5 12t33 39t56.5 51q150 117 249 117q172 0 172 -256q0 -82 -17 -244t-17 -186q0 -74 39 -74q16 0 36.5 11.5t32.5 22.5l12 11q6 6 15.5 20.5t14.5 19.5t14.5 10.5t19.5 5.5q18 0 18 -25 q0 -59 -101 -141t-169 -82q-31 0 -53.5 37.5t-22.5 91.5q0 88 21.5 282.5t21.5 223t-6 60.5t-42 70t-95 38q-70 0 -133 -91l-41 -59q-12 -18 -22.5 -50t-13.5 -51q-2 -18 -14 -84l-22 -126q-18 -96 -27.5 -156.5t-10.5 -78t-2 -29t-1 -17.5q-4 -33 -19.5 -43t-56.5 -10 q-45 0 -58 10t-13 53q0 35 45 254t45 308q0 49 -15.5 80.5t-31.5 31.5q-35 0 -73 -57.5t-58 -57.5q-19 0 -19 39zM74 899q0 16 13 28.5t30.5 24t40 40t37.5 67.5q25 59 24 92q0 41 -16.5 70.5t-36 44t-35.5 31t-16 35t44 68.5t72 50q6 0 17.5 -5t28 -20.5t29.5 -38 t23.5 -61.5t10.5 -86q0 -100 -53.5 -189t-108.5 -132.5t-79.5 -43.5t-24.5 25z"/>
<glyph unicode="Ō" horiz-adv-x="1669" d="M694 1731q0 55 41 55q158 0 225.5 -2t143.5 -2q16 0 21 -5t5 -24q0 -59 -34 -59q-14 0 -179 1t-206 1q-17 0 -17 35zM80 643q0 152 54 297t154.5 264t257 190.5t343.5 71.5q174 0 312 -58t220 -156.5t125 -221.5t43 -260q0 -145 -48 -285.5t-141 -260.5t-247 -192.5 t-346 -72.5q-328 0 -527.5 188.5t-199.5 495.5zM256 711q0 -315 168 -496.5t397 -181.5q178 0 316.5 112.5t205 279.5t66.5 353q0 180 -43 289q-59 154 -189 246t-317 92q-145 0 -264 -66.5t-190.5 -171t-110.5 -223t-39 -233.5z"/>
<glyph unicode="ō" horiz-adv-x="913" d="M344 1190q0 55 41 55q158 0 225.5 -2t143.5 -2q16 0 21 -5t5 -24q0 -59 -35 -59q-14 0 -179 1t-206 1q-16 0 -16 35zM66 346q0 209 132 377t351 168q145 0 222 -103.5t77 -259.5q0 -133 -52.5 -255.5t-163 -207.5t-253.5 -85q-135 0 -224 94t-89 272zM223 344 q0 -147 50.5 -225t128 -78t138 55.5t92.5 138t48 165.5t16 153q0 137 -50 206.5t-126 69.5q-78 0 -149.5 -68.5t-106.5 -187.5q-41 -143 -41 -229z"/>
<glyph unicode="Ŏ" horiz-adv-x="1669" d="M700 1786q0 39 11 39h22q6 0 14.5 -22.5t21.5 -49.5t54 -49.5t107 -22.5q55 0 98 22.5t61.5 49.5t32 49.5t19.5 22.5h14q14 0 14 -4q0 -16 -15 -53t-44 -83.5t-83 -79t-120 -32.5q-96 0 -151.5 64.5t-55.5 148.5zM80 643q0 152 54 297t154.5 264t257 190.5t343.5 71.5 q174 0 312 -58t220 -156.5t125 -221.5t43 -260q0 -145 -48 -285.5t-141 -260.5t-247 -192.5t-346 -72.5q-328 0 -527.5 188.5t-199.5 495.5zM256 711q0 -315 168 -496.5t397 -181.5q178 0 316.5 112.5t205 279.5t66.5 353q0 180 -43 289q-59 154 -189 246t-317 92 q-145 0 -264 -66.5t-190.5 -171t-110.5 -223t-39 -233.5z"/>
<glyph unicode="ŏ" horiz-adv-x="913" d="M350 1245q0 39 10 39h23q6 0 14.5 -22.5t21.5 -49t54 -49t107 -22.5q55 0 98 22.5t61.5 49t31.5 49t20 22.5h14q14 0 14 -4q0 -16 -15.5 -53t-44 -83t-82.5 -79t-120 -33q-96 0 -151.5 64.5t-55.5 148.5zM66 346q0 209 132 377t351 168q145 0 222 -103.5t77 -259.5 q0 -133 -52.5 -255.5t-163 -207.5t-253.5 -85q-135 0 -224 94t-89 272zM223 344q0 -147 50.5 -225t128 -78t138 55.5t92.5 138t48 165.5t16 153q0 137 -50 206.5t-126 69.5q-78 0 -149.5 -68.5t-106.5 -187.5q-41 -143 -41 -229z"/>
<glyph unicode="Ő" horiz-adv-x="1669" d="M686 1544q0 8 5 16t19 28l34 48q20 28 55 87t73 132q18 37 41 37t60 -13t37 -34q0 -35 -141.5 -176t-166.5 -141q-16 0 -16 16zM999 1544q0 8 5.5 16.5t20.5 28t34.5 48t54.5 87t74 131.5q18 37 40.5 37t59.5 -13t37 -34q0 -35 -141.5 -176t-165.5 -141q-19 0 -19 16z M80 643q0 152 54 297t154.5 264t257 190.5t343.5 71.5q174 0 312 -58t220 -156.5t125 -221.5t43 -260q0 -145 -48 -285.5t-141 -260.5t-247 -192.5t-346 -72.5q-328 0 -527.5 188.5t-199.5 495.5zM256 711q0 -315 168 -496.5t397 -181.5q178 0 316.5 112.5t205 279.5 t66.5 353q0 180 -43 289q-59 154 -189 246t-317 92q-145 0 -264 -66.5t-190.5 -171t-110.5 -223t-39 -233.5z"/>
<glyph unicode="ő" horiz-adv-x="913" d="M336 1004q0 8 5 16t19 28l34 48q20 28 54.5 86.5t73.5 132.5q18 37 41 37t59.5 -13.5t36.5 -33.5q0 -35 -141 -176.5t-166 -141.5q-16 1 -16 17zM649 1004q0 8 5 16t20.5 27.5t35 48t54.5 87t74 132.5q18 37 40.5 37t59.5 -13.5t37 -33.5q0 -35 -141.5 -176.5 t-165.5 -141.5q-19 1 -19 17zM66 346q0 209 132 377t351 168q145 0 222 -103.5t77 -259.5q0 -133 -52.5 -255.5t-163 -207.5t-253.5 -85q-135 0 -224 94t-89 272zM223 344q0 -147 50.5 -225t128 -78t138 55.5t92.5 138t48 165.5t16 153q0 137 -50 206.5t-126 69.5 q-78 0 -149.5 -68.5t-106.5 -187.5q-41 -143 -41 -229z"/>
<glyph unicode="Œ" horiz-adv-x="2144" d="M80 643q0 152 54 297t154.5 264t257 190.5t343.5 71.5q14 0 151.5 -13t565.5 -13q43 0 243.5 5t229.5 5q35 0 35 -41q0 -10 -3.5 -45t-3.5 -61q0 -14 3.5 -51.5t3.5 -59.5q0 -20 -7.5 -39.5t-19.5 -19.5q-18 0 -24.5 14t-6.5 34.5t-8 52.5t-31 56q-8 10 -28.5 22.5 t-72.5 27t-116 14.5q-78 0 -166 3t-149 3q-92 0 -110.5 -20.5t-35.5 -116.5q-49 -344 -49 -416q0 -20 14.5 -25.5t73.5 -5.5q264 0 326.5 9.5t89.5 41.5q20 25 32.5 53.5t18.5 41t19 12.5q25 0 24 -25q0 -20 -16.5 -99t-22.5 -114q-2 -20 -4 -79.5t-9 -91t-26 -31.5 q-20 0 -20 34q0 96 -37 123q-57 43 -217 43h-99q-38 0 -48.5 1t-16.5 1h-12q-76 0 -78 -37q-6 -61 -26 -183l-34 -216q-14 -94 -14 -108q0 -45 43 -59.5t215 -14.5q174 0 296 31.5t166 68.5t74 69t42 32q20 0 20 -27q0 -55 -87 -163.5t-152 -108.5q-147 0 -366.5 10 t-264.5 10q-121 0 -201 -20.5t-186 -20.5q-328 0 -527.5 188.5t-199.5 495.5zM256 711q0 -315 168 -496.5t397 -181.5q39 0 69 2t54 11l38 14q15 6 28.5 26t20.5 29.5t15.5 42t10.5 46.5l9 59q7 46 11 67q2 18 18.5 113.5t24.5 158.5l74 621q2 18 2 41q0 39 -43 68.5 t-104.5 44t-110.5 21.5t-78 7q-145 0 -264 -66.5t-190.5 -171t-110.5 -223t-39 -233.5z"/>
<glyph unicode="œ" horiz-adv-x="1435" d="M66 346q0 209 132 377t351 168q61 0 111.5 -20.5t78 -48t46 -56.5t26.5 -49.5t10 -20.5q6 0 33 31t64.5 67.5t111.5 67.5t164 31q74 0 125 -43t51 -109q0 -68 -44 -126t-82 -82.5t-70 -38.5q-119 -53 -322 -56q-37 0 -37 -84q0 -119 74 -187.5t221 -68.5q51 0 101.5 22.5 t82 44t37.5 21.5q27 0 27 -20q0 -43 -118 -117t-239 -74q-74 0 -130 15.5t-85.5 38t-47 45t-24.5 38.5l-7 15l-15 -15q-14 -15 -41.5 -39t-63.5 -46.5t-91.5 -38t-114.5 -15.5q-133 0 -224 97.5t-91 275.5zM223 344q0 -147 50.5 -225t128 -78t138 55.5t92.5 138t48 165.5 t16 153q0 137 -50 206.5t-126 69.5q-78 0 -149.5 -68.5t-106.5 -187.5q-41 -143 -41 -229zM846 514q0 -41 16 -41q145 0 256 82t111 180q0 51 -36 73.5t-73 22.5q-76 0 -168 -96q-41 -43 -73.5 -118.5t-32.5 -102.5z"/>
<glyph unicode="Ŕ" horiz-adv-x="1304" d="M602 1544q0 8 5 16.5t20.5 28t35 48t53.5 87t72 131.5q18 37 41 37t60 -13t37 -34q0 -33 -141.5 -175t-166.5 -142q-16 0 -16 16zM41 18q0 20 13.5 28.5t43 17t49.5 18.5q29 16 38.5 62t37.5 299q26 247 49 434q6 51 20 151l22 169q10 69 10 81q0 100 -127 111 q-66 4 -66 24q0 23 13.5 30t48.5 7q20 0 79.5 -6t85.5 -6q51 0 150.5 8t187.5 8q94 0 138 -4q139 -12 221 -100t82 -209q0 -119 -83 -224.5t-243 -160.5q-18 -6 -18 -23q0 -35 105.5 -273.5t158.5 -307.5q72 -98 168 -99q39 0 39 -22q0 -47 -144 -47q-121 0 -168 37.5 t-108 175.5q-55 123 -109.5 269t-79 198.5t-49.5 52.5q-6 0 -47 -1t-47 -1q-16 0 -38.5 1t-33.5 1q-23 0 -33 -35t-20 -145l-29 -289q0 -6 -3 -37t-3 -35q0 -47 29 -74.5t62.5 -35t62.5 -17.5t29 -29q0 -27 -70 -26q-33 0 -90.5 6t-63.5 6q-59 0 -136 -9t-79 -9 q-55 -1 -55 30zM426 844q0 -53 63 -53h29q182 0 246 14q70 16 117 77.5t62 122t15 113.5q0 106 -76.5 186t-215.5 80q-92 0 -137.5 -24.5t-51.5 -102.5q-5 -90 -19 -187l-23 -156q-9 -60 -9 -70z"/>
<glyph unicode="ŕ" horiz-adv-x="720" d="M344 1004q0 8 5 16t20.5 27.5t35 48t53.5 87t72 132.5q18 37 41 37t60 -13.5t37 -33.5q0 -33 -141.5 -175.5t-166.5 -142.5q-16 1 -16 17zM31 606q0 66 18.5 119t44 82t54 49.5t48 26.5t27.5 6q49 0 76 -72q51 -135 57 -135q2 0 39 52t99.5 105.5t130.5 53.5 q37 0 56 -19.5t19 -44.5q0 -16 -11 -44.5t-11 -30.5l-3 -18q-3 -17 -7 -27.5t-13.5 -21.5t-21.5 -11q-18 0 -30.5 21.5t-31 43t-49.5 21.5q-59 0 -100 -123t-53 -231l-11 -68q-37 -288 -52 -321q-22 -27 -62 -27h-11q-61 0 -61 53q0 33 44 242t44 295q0 139 -70 139 q-37 0 -61.5 -29.5t-36.5 -67.5t-14 -40q-12 -12 -23 -13q-24 0 -24 35z"/>
</font>
</defs>
</svg>
